SplineFontDB: 3.0
FontName: NothingYouCouldDo
FullName: Nothing You Could Do
FamilyName: Nothing You Could Do
Weight: Book
Copyright: Copyright (c) 2010, Kimberly Geswein (kimberlygeswein.com). This Font Software is licensed under the SIL Open Font License, Version 1.1.  This license available with a FAQ at:  http://scripts.sil.org/OFL
Version: 1.005
ItalicAngle: 0
UnderlinePosition: -52
UnderlineWidth: 51
Ascent: 819
Descent: 205
sfntRevision: 0x00010148
LayerCount: 2
Layer: 0 1 "Back"  1
Layer: 1 1 "Fore"  0
XUID: [1021 288 713564382 13462635]
FSType: 0
OS2Version: 3
OS2_WeightWidthSlopeOnly: 0
OS2_UseTypoMetrics: 1
CreationTime: 1283963760
ModificationTime: 1310121438
PfmFamily: 17
TTFWeight: 400
TTFWidth: 5
LineGap: 0
VLineGap: 0
Panose: 2 0 0 0 0 0 0 0 0 0
OS2TypoAscent: 143
OS2TypoAOffset: 1
OS2TypoDescent: -202
OS2TypoDOffset: 1
OS2TypoLinegap: 0
OS2WinAscent: 0
OS2WinAOffset: 1
OS2WinDescent: 0
OS2WinDOffset: 1
HheadAscent: 0
HheadAOffset: 1
HheadDescent: 0
HheadDOffset: 1
OS2SubXSize: 717
OS2SubYSize: 666
OS2SubXOff: 0
OS2SubYOff: 143
OS2SupXSize: 717
OS2SupYSize: 666
OS2SupXOff: 0
OS2SupYOff: 488
OS2StrikeYSize: 51
OS2StrikeYPos: 256
OS2Vendor: 'PYRS'
OS2CodePages: 00000001.00000000
OS2UnicodeRanges: a000002f.4000004a.00000000.00000000
DEI: 91125
TtTable: prep
PUSHW_1
 511
SCANCTRL
PUSHB_1
 4
SCANTYPE
EndTTInstrs
ShortTable: maxp 16
  1
  0
  312
  172
  5
  155
  4
  2
  0
  1
  1
  0
  64
  0
  3
  1
EndShort

StartChar: exclam
Encoding: 33 33 4
Width: 266
GlyphClass: 2
Flags: W
LayerCount: 2
Fore
SplineSet
11 23 m 0,0,1
 3 35 3 35 9.5 49 c 128,-1,2
 16 63 16 63 28 72.5 c 128,-1,3
 40 82 40 82 52 82.5 c 128,-1,4
 64 83 64 83 68 68 c 256,5,6
 72 53 72 53 68.5 37 c 128,-1,7
 65 21 65 21 56.5 11 c 128,-1,8
 48 1 48 1 36 2 c 128,-1,9
 24 3 24 3 11 23 c 0,0,1
68 305 m 0,10,11
 66 311 66 311 70 335 c 128,-1,12
 74 359 74 359 82 393.5 c 128,-1,13
 90 428 90 428 102 470 c 128,-1,14
 114 512 114 512 128 554 c 128,-1,15
 142 596 142 596 157 635 c 128,-1,16
 172 674 172 674 186.5 703 c 128,-1,17
 201 732 201 732 214.5 747 c 128,-1,18
 228 762 228 762 239 757 c 1,19,20
 240 752 240 752 235.5 723.5 c 128,-1,21
 231 695 231 695 222 653.5 c 128,-1,22
 213 612 213 612 200.5 562 c 128,-1,23
 188 512 188 512 174.5 464 c 128,-1,24
 161 416 161 416 146 374.5 c 128,-1,25
 131 333 131 333 117 308 c 128,-1,26
 103 283 103 283 90 280 c 128,-1,27
 77 277 77 277 68 305 c 0,10,11
EndSplineSet
EndChar

StartChar: quotedbl
Encoding: 34 34 5
Width: 284
GlyphClass: 2
Flags: W
LayerCount: 2
Fore
SplineSet
185 409 m 0,0,1
 183 413 183 413 178.5 421.5 c 128,-1,2
 174 430 174 430 174 431 c 2,3,-1
 174 601 l 1,4,5
 193 610 193 610 203.5 600 c 128,-1,6
 214 590 214 590 218 569.5 c 128,-1,7
 222 549 222 549 221 521 c 128,-1,8
 220 493 220 493 216 467.5 c 128,-1,9
 212 442 212 442 206.5 422.5 c 128,-1,10
 201 403 201 403 197 398 c 1,11,12
 195 398 195 398 190.5 402.5 c 128,-1,13
 186 407 186 407 185 409 c 0,0,1
72 431 m 0,14,15
 67 445 67 445 64.5 466 c 128,-1,16
 62 487 62 487 61 509.5 c 128,-1,17
 60 532 60 532 60 553.5 c 128,-1,18
 60 575 60 575 61 589 c 1,19,20
 61 606 61 606 68 601.5 c 128,-1,21
 75 597 75 597 83.5 585 c 128,-1,22
 92 573 92 573 99 559 c 128,-1,23
 106 545 106 545 106 544 c 0,24,25
 107 531 107 531 107 510.5 c 128,-1,26
 107 490 107 490 107 470 c 128,-1,27
 107 450 107 450 107 435.5 c 128,-1,28
 107 421 107 421 106 420 c 2,29,-1
 94 409 l 1,30,31
 91 410 91 410 82.5 418.5 c 128,-1,32
 74 427 74 427 72 431 c 0,14,15
EndSplineSet
EndChar

StartChar: numbersign
Encoding: 35 35 6
Width: 689
GlyphClass: 2
Flags: W
LayerCount: 2
Fore
SplineSet
322 11 m 0,0,1
 319 30 319 30 323 51.5 c 128,-1,2
 327 73 327 73 332 94 c 128,-1,3
 337 115 337 115 339 135 c 128,-1,4
 341 155 341 155 334 170 c 0,5,6
 327 183 327 183 314.5 182.5 c 128,-1,7
 302 182 302 182 288 181 c 0,8,9
 260 177 260 177 246.5 165.5 c 128,-1,10
 233 154 233 154 226.5 138 c 128,-1,11
 220 122 220 122 218 103.5 c 128,-1,12
 216 85 216 85 212.5 67.5 c 128,-1,13
 209 50 209 50 201 35 c 128,-1,14
 193 20 193 20 175 11 c 1,15,16
 157 23 157 23 154 39.5 c 128,-1,17
 151 56 151 56 154 74 c 128,-1,18
 157 92 157 92 161.5 111 c 128,-1,19
 166 130 166 130 164 146 c 0,20,21
 163 146 163 146 152.5 144.5 c 128,-1,22
 142 143 142 143 127.5 142 c 128,-1,23
 113 141 113 141 96 141.5 c 128,-1,24
 79 142 79 142 63.5 144.5 c 128,-1,25
 48 147 48 147 35.5 153 c 128,-1,26
 23 159 23 159 18 170 c 0,27,28
 13 179 13 179 29.5 185 c 128,-1,29
 46 191 46 191 73 198 c 128,-1,30
 100 205 100 205 132 214.5 c 128,-1,31
 164 224 164 224 189.5 241 c 128,-1,32
 215 258 215 258 228.5 284 c 128,-1,33
 242 310 242 310 232 350 c 1,34,35
 217 351 217 351 186.5 345 c 128,-1,36
 156 339 156 339 124.5 336.5 c 128,-1,37
 93 334 93 334 68.5 340 c 128,-1,38
 44 346 44 346 40 373 c 1,39,40
 65 384 65 384 92 391 c 128,-1,41
 119 398 119 398 146 404 c 128,-1,42
 173 410 173 410 200.5 415.5 c 128,-1,43
 228 421 228 421 254 430 c 1,44,45
 259 439 259 439 268.5 456.5 c 128,-1,46
 278 474 278 474 289 491.5 c 128,-1,47
 300 509 300 509 311 522 c 128,-1,48
 322 535 322 535 329 534.5 c 128,-1,49
 336 534 336 534 338 515.5 c 128,-1,50
 340 497 340 497 334 452 c 1,51,52
 365 447 365 447 384 459 c 128,-1,53
 403 471 403 471 414 490.5 c 128,-1,54
 425 510 425 510 431 532 c 128,-1,55
 437 554 437 554 442 569.5 c 128,-1,56
 447 585 447 585 452.5 589 c 128,-1,57
 458 593 458 593 470 576 c 0,58,59
 478 563 478 563 478.5 549.5 c 128,-1,60
 479 536 479 536 476.5 522 c 128,-1,61
 474 508 474 508 471 493.5 c 128,-1,62
 468 479 468 479 470 464 c 1,63,64
 495 461 495 461 533 461.5 c 128,-1,65
 571 462 571 462 605.5 462.5 c 128,-1,66
 640 463 640 463 663 461.5 c 128,-1,67
 686 460 686 460 681.5 454.5 c 128,-1,68
 677 449 677 449 636 438 c 128,-1,69
 595 427 595 427 503 407 c 0,70,71
 473 401 473 401 450 379.5 c 128,-1,72
 427 358 427 358 415 333.5 c 128,-1,73
 403 309 403 309 404.5 287.5 c 128,-1,74
 406 266 406 266 424 260 c 0,75,76
 427 259 427 259 446.5 262 c 128,-1,77
 466 265 466 265 492.5 269 c 128,-1,78
 519 273 519 273 548.5 276.5 c 128,-1,79
 578 280 578 280 600.5 279 c 128,-1,80
 623 278 623 278 635 271 c 128,-1,81
 647 264 647 264 639 248 c 256,82,83
 631 232 631 232 610.5 225 c 128,-1,84
 590 218 590 218 564.5 216 c 128,-1,85
 539 214 539 214 510 214 c 128,-1,86
 481 214 481 214 456.5 212 c 128,-1,87
 432 210 432 210 413.5 203.5 c 128,-1,88
 395 197 395 197 390 181 c 1,89,90
 388 170 388 170 384.5 144 c 128,-1,91
 381 118 381 118 375 89.5 c 128,-1,92
 369 61 369 61 359 35.5 c 128,-1,93
 349 10 349 10 334 0 c 1,94,95
 332 1 332 1 327 5 c 128,-1,96
 322 9 322 9 322 11 c 0,0,1
266 282 m 0,97,98
 265 277 265 277 265 260 c 128,-1,99
 265 243 265 243 266 238 c 1,100,101
 303 232 303 232 323 241.5 c 128,-1,102
 343 251 343 251 353 270.5 c 128,-1,103
 363 290 363 290 367.5 316.5 c 128,-1,104
 372 343 372 343 378 373 c 1,105,106
 371 395 371 395 360 398 c 128,-1,107
 349 401 349 401 336.5 391.5 c 128,-1,108
 324 382 324 382 312 365 c 128,-1,109
 300 348 300 348 289.5 330.5 c 128,-1,110
 279 313 279 313 272.5 299 c 128,-1,111
 266 285 266 285 266 282 c 0,97,98
EndSplineSet
EndChar

StartChar: dollar
Encoding: 36 36 7
Width: 474
GlyphClass: 2
Flags: W
LayerCount: 2
Fore
SplineSet
85 11 m 0,0,1
 81 33 81 33 85.5 54.5 c 128,-1,2
 90 76 90 76 95.5 95.5 c 128,-1,3
 101 115 101 115 105 131 c 128,-1,4
 109 147 109 147 104 157.5 c 128,-1,5
 99 168 99 168 82 171.5 c 128,-1,6
 65 175 65 175 29 170 c 1,7,8
 17 178 17 178 17 192 c 128,-1,9
 17 206 17 206 29 214 c 1,10,11
 33 214 33 214 44 216 c 128,-1,12
 55 218 55 218 68 220 c 128,-1,13
 81 222 81 222 92 223.5 c 128,-1,14
 103 225 103 225 107 226 c 0,15,16
 115 228 115 228 128 232 c 128,-1,17
 141 236 141 236 142 238 c 2,18,-1
 198 396 l 2,19,20
 202 408 202 408 191.5 418 c 128,-1,21
 181 428 181 428 164.5 438.5 c 128,-1,22
 148 449 148 449 129.5 460 c 128,-1,23
 111 471 111 471 98.5 484.5 c 128,-1,24
 86 498 86 498 83.5 515 c 128,-1,25
 81 532 81 532 97 554 c 0,26,27
 107 568 107 568 127.5 575 c 128,-1,28
 148 582 148 582 171 586.5 c 128,-1,29
 194 591 194 591 216.5 595.5 c 128,-1,30
 239 600 239 600 254 610 c 0,31,32
 260 614 260 614 266.5 629.5 c 128,-1,33
 273 645 273 645 281 665 c 128,-1,34
 289 685 289 685 297.5 704.5 c 128,-1,35
 306 724 306 724 315.5 735.5 c 128,-1,36
 325 747 325 747 335 746 c 128,-1,37
 345 745 345 745 356 723 c 0,38,39
 360 714 360 714 358.5 702.5 c 128,-1,40
 357 691 357 691 353 679 c 128,-1,41
 349 667 349 667 346 655 c 128,-1,42
 343 643 343 643 345 633 c 1,43,-1
 446 633 l 2,44,45
 449 633 449 633 453 628.5 c 128,-1,46
 457 624 457 624 458 622 c 1,47,-1
 458 587 l 1,48,49
 422 585 422 585 388.5 580.5 c 128,-1,50
 355 576 355 576 330.5 562.5 c 128,-1,51
 306 549 306 549 294 523 c 128,-1,52
 282 497 282 497 288 452 c 1,53,54
 363 425 363 425 398 400 c 128,-1,55
 433 375 433 375 440 351.5 c 128,-1,56
 447 328 447 328 431 307 c 128,-1,57
 415 286 415 286 386.5 267 c 128,-1,58
 358 248 358 248 322.5 231.5 c 128,-1,59
 287 215 287 215 255 201.5 c 128,-1,60
 223 188 223 188 200.5 177 c 128,-1,61
 178 166 178 166 175 158 c 2,62,-1
 130 23 l 2,63,64
 130 21 130 21 123.5 14.5 c 128,-1,65
 117 8 117 8 109.5 3 c 128,-1,66
 102 -2 102 -2 94.5 -1.5 c 128,-1,67
 87 -1 87 -1 85 11 c 0,0,1
220 248 m 1,68,69
 242 244 242 244 267.5 251.5 c 128,-1,70
 293 259 293 259 316.5 273 c 128,-1,71
 340 287 340 287 359.5 305 c 128,-1,72
 379 323 379 323 390 339 c 1,73,74
 389 356 389 356 378 369.5 c 128,-1,75
 367 383 367 383 350 390 c 128,-1,76
 333 397 333 397 312.5 396 c 128,-1,77
 292 395 292 395 273.5 383 c 128,-1,78
 255 371 255 371 240.5 346.5 c 128,-1,79
 226 322 226 322 220 282 c 1,80,-1
 220 248 l 1,68,69
164 486 m 0,81,82
 192 467 192 467 207.5 469.5 c 128,-1,83
 223 472 223 472 227.5 485 c 128,-1,84
 232 498 232 498 228 515 c 128,-1,85
 224 532 224 532 213.5 542 c 128,-1,86
 203 552 203 552 187 549 c 128,-1,87
 171 546 171 546 153 519 c 1,88,89
 145 509 145 509 150.5 500 c 128,-1,90
 156 491 156 491 164 486 c 0,81,82
EndSplineSet
EndChar

StartChar: percent
Encoding: 37 37 8
Width: 328
GlyphClass: 2
Flags: W
LayerCount: 2
Fore
SplineSet
23 52 m 0,0,1
 21 54 21 54 16.5 62.5 c 128,-1,2
 12 71 12 71 11 74 c 1,3,4
 40 137 40 137 73.5 197 c 128,-1,5
 107 257 107 257 141.5 316.5 c 128,-1,6
 176 376 176 376 209 436 c 128,-1,7
 242 496 242 496 271 559 c 1,8,9
 290 565 290 565 297 558.5 c 128,-1,10
 304 552 304 552 305 540 c 128,-1,11
 306 528 306 528 302 514 c 128,-1,12
 298 500 298 500 294 492 c 0,13,14
 241 379 241 379 177.5 270.5 c 128,-1,15
 114 162 114 162 57 52 c 1,16,17
 46 37 46 37 38 39 c 128,-1,18
 30 41 30 41 23 52 c 0,0,1
226 120 m 0,19,20
 220 139 220 139 230 147 c 128,-1,21
 240 155 240 155 252.5 153 c 128,-1,22
 265 151 265 151 273 139.5 c 128,-1,23
 281 128 281 128 271 108 c 1,24,25
 267 107 267 107 260.5 106 c 128,-1,26
 254 105 254 105 247 105.5 c 128,-1,27
 240 106 240 106 234.5 109.5 c 128,-1,28
 229 113 229 113 226 120 c 0,19,20
23 52 m 0,29,30
 21 54 21 54 16.5 62.5 c 128,-1,31
 12 71 12 71 11 74 c 1,32,33
 40 137 40 137 73.5 197 c 128,-1,34
 107 257 107 257 141.5 316.5 c 128,-1,35
 176 376 176 376 209 436 c 128,-1,36
 242 496 242 496 271 559 c 1,37,38
 290 565 290 565 297 558.5 c 128,-1,39
 304 552 304 552 305 540 c 128,-1,40
 306 528 306 528 302 514 c 128,-1,41
 298 500 298 500 294 492 c 0,42,43
 241 379 241 379 177.5 270.5 c 128,-1,44
 114 162 114 162 57 52 c 1,45,46
 46 37 46 37 38 39 c 128,-1,47
 30 41 30 41 23 52 c 0,29,30
226 120 m 0,48,49
 220 139 220 139 230 147 c 128,-1,50
 240 155 240 155 252.5 153 c 128,-1,51
 265 151 265 151 273 139.5 c 128,-1,52
 281 128 281 128 271 108 c 1,53,54
 267 107 267 107 260.5 106 c 128,-1,55
 254 105 254 105 247 105.5 c 128,-1,56
 240 106 240 106 234.5 109.5 c 128,-1,57
 229 113 229 113 226 120 c 0,48,49
66 486 m 0,58,59
 59 505 59 505 69 513 c 128,-1,60
 79 521 79 521 91.5 518.5 c 128,-1,61
 104 516 104 516 112 504.5 c 128,-1,62
 120 493 120 493 110 474 c 1,63,64
 106 473 106 473 99.5 472 c 128,-1,65
 93 471 93 471 86 471.5 c 128,-1,66
 79 472 79 472 73.5 475.5 c 128,-1,67
 68 479 68 479 66 486 c 0,68,69
 59 505 59 505 69 513 c 128,-1,70
 79 521 79 521 91.5 518.5 c 128,-1,71
 104 516 104 516 112 504.5 c 128,-1,72
 120 493 120 493 110 474 c 1,73,74
 106 473 106 473 99.5 472 c 128,-1,75
 93 471 93 471 86 471.5 c 128,-1,76
 79 472 79 472 73.5 475.5 c 128,-1,77
 68 479 68 479 66 486 c 0,58,59
EndSplineSet
EndChar

StartChar: ampersand
Encoding: 38 38 9
Width: 384
GlyphClass: 2
Flags: W
LayerCount: 2
Fore
SplineSet
108 -58 m 2,0,1
 99 -49 99 -49 100 -20 c 128,-1,2
 101 9 101 9 106 43.5 c 128,-1,3
 111 78 111 78 115.5 110 c 128,-1,4
 120 142 120 142 119 156 c 1,5,6
 69 168 69 168 46 181 c 128,-1,7
 23 194 23 194 18.5 208 c 128,-1,8
 14 222 14 222 24.5 237.5 c 128,-1,9
 35 253 35 253 52.5 269 c 128,-1,10
 70 285 70 285 91 302.5 c 128,-1,11
 112 320 112 320 128.5 338 c 128,-1,12
 145 356 145 356 153.5 375.5 c 128,-1,13
 162 395 162 395 154 416 c 1,14,15
 130 411 130 411 102.5 418 c 128,-1,16
 75 425 75 425 63 450 c 0,17,18
 55 465 55 465 72 483.5 c 128,-1,19
 89 502 89 502 113 522 c 128,-1,20
 137 542 137 542 159.5 564 c 128,-1,21
 182 586 182 586 187 607 c 0,22,23
 202 676 202 676 211.5 709 c 128,-1,24
 221 742 221 742 226.5 749 c 128,-1,25
 232 756 232 756 234.5 743 c 128,-1,26
 237 730 237 730 238 706 c 128,-1,27
 239 682 239 682 240 652 c 128,-1,28
 241 622 241 622 244 597 c 1,29,30
 259 590 259 590 274 598.5 c 128,-1,31
 289 607 289 607 304.5 619 c 128,-1,32
 320 631 320 631 336 640 c 128,-1,33
 352 649 352 649 369 642 c 1,34,35
 374 619 374 619 363.5 604.5 c 128,-1,36
 353 590 353 590 335 579.5 c 128,-1,37
 317 569 317 569 295.5 561.5 c 128,-1,38
 274 554 274 554 257.5 544 c 128,-1,39
 241 534 241 534 232.5 520 c 128,-1,40
 224 506 224 506 233 484 c 1,41,42
 289 489 289 489 317 486 c 128,-1,43
 345 483 345 483 352 473.5 c 128,-1,44
 359 464 359 464 349.5 448.5 c 128,-1,45
 340 433 340 433 322 414 c 128,-1,46
 304 395 304 395 281.5 372.5 c 128,-1,47
 259 350 259 350 239.5 326.5 c 128,-1,48
 220 303 220 303 208 279.5 c 128,-1,49
 196 256 196 256 199 234 c 1,50,51
 205 235 205 235 221 235 c 128,-1,52
 237 235 237 235 255 235 c 128,-1,53
 273 235 273 235 289.5 235 c 128,-1,54
 306 235 306 235 312 234 c 0,55,56
 341 232 341 232 343.5 226 c 128,-1,57
 346 220 346 220 332.5 211.5 c 128,-1,58
 319 203 319 203 295 194 c 128,-1,59
 271 185 271 185 247.5 177 c 128,-1,60
 224 169 224 169 206 163 c 128,-1,61
 188 157 188 157 187 156 c 0,62,63
 173 135 173 135 171.5 100 c 128,-1,64
 170 65 170 65 169 28.5 c 128,-1,65
 168 -8 168 -8 161.5 -39 c 128,-1,66
 155 -70 155 -70 131 -82 c 1,67,-1
 108 -58 l 2,0,1
98 246 m 0,68,69
 96 244 96 244 91.5 235 c 128,-1,70
 87 226 87 226 86 223 c 1,71,72
 116 218 116 218 133.5 226 c 128,-1,73
 151 234 151 234 142 269 c 1,74,75
 130 273 130 273 117 264 c 128,-1,76
 104 255 104 255 98 246 c 0,68,69
221 404 m 1,77,78
 230 401 230 401 240 406 c 128,-1,79
 250 411 250 411 255 416 c 1,80,-1
 221 416 l 1,81,-1
 221 404 l 1,77,78
EndSplineSet
EndChar

StartChar: quotesingle
Encoding: 39 39 10
Width: 211
GlyphClass: 2
Flags: W
LayerCount: 2
Fore
SplineSet
69 486 m 0,0,1
 69 487 69 487 71.5 496 c 128,-1,2
 74 505 74 505 77.5 515.5 c 128,-1,3
 81 526 81 526 85 537 c 128,-1,4
 89 548 89 548 91 554 c 0,5,6
 102 584 102 584 109.5 590.5 c 128,-1,7
 117 597 117 597 121.5 588.5 c 128,-1,8
 126 580 126 580 127.5 560 c 128,-1,9
 129 540 129 540 127 515.5 c 128,-1,10
 125 491 125 491 120.5 466.5 c 128,-1,11
 116 442 116 442 108.5 424.5 c 128,-1,12
 101 407 101 407 91 401 c 128,-1,13
 81 395 81 395 69 407 c 1,14,15
 68 411 68 411 67.5 422 c 128,-1,16
 67 433 67 433 67 446 c 128,-1,17
 67 459 67 459 67.5 470 c 128,-1,18
 68 481 68 481 69 486 c 0,0,1
EndSplineSet
EndChar

StartChar: parenleft
Encoding: 40 40 11
Width: 288
GlyphClass: 2
Flags: W
LayerCount: 2
Fore
SplineSet
88 26 m 0,0,1
 53 69 53 69 40 128.5 c 128,-1,2
 27 188 27 188 29.5 255 c 128,-1,3
 32 322 32 322 48 391.5 c 128,-1,4
 64 461 64 461 86.5 524 c 128,-1,5
 109 587 109 587 136 639 c 128,-1,6
 163 691 163 691 188.5 722 c 128,-1,7
 214 753 214 753 235 758.5 c 128,-1,8
 256 764 256 764 266 735 c 1,9,10
 233 705 233 705 199 654.5 c 128,-1,11
 165 604 165 604 136.5 541.5 c 128,-1,12
 108 479 108 479 88.5 409.5 c 128,-1,13
 69 340 69 340 64 274 c 128,-1,14
 59 208 59 208 72 149 c 128,-1,15
 85 90 85 90 122 49 c 0,16,17
 127 43 127 43 142.5 33 c 128,-1,18
 158 23 158 23 176 10.5 c 128,-1,19
 194 -2 194 -2 211 -15.5 c 128,-1,20
 228 -29 228 -29 236.5 -42.5 c 128,-1,21
 245 -56 245 -56 241 -67.5 c 128,-1,22
 237 -79 237 -79 213 -87 c 0,23,24
 211 -88 211 -88 207 -88 c 128,-1,25
 203 -88 203 -88 201 -87 c 0,26,27
 194 -81 194 -81 177.5 -65.5 c 128,-1,28
 161 -50 161 -50 143 -32 c 128,-1,29
 125 -14 125 -14 109.5 2.5 c 128,-1,30
 94 19 94 19 88 26 c 0,0,1
EndSplineSet
EndChar

StartChar: parenright
Encoding: 41 41 12
Width: 248
GlyphClass: 2
Flags: W
LayerCount: 2
Fore
SplineSet
20 -81 m 0,0,1
 18 -79 18 -79 18 -75.5 c 128,-1,2
 18 -72 18 -72 20 -70 c 0,3,4
 103 6 103 6 139.5 106 c 128,-1,5
 176 206 176 206 176 314.5 c 128,-1,6
 176 423 176 423 145 532 c 128,-1,7
 114 641 114 641 62 735 c 1,8,9
 59 743 59 743 61 753.5 c 128,-1,10
 63 764 63 764 74 769 c 1,11,12
 130 724 130 724 162 656.5 c 128,-1,13
 194 589 194 589 208 510.5 c 128,-1,14
 222 432 222 432 219.5 348 c 128,-1,15
 217 264 217 264 203.5 187 c 128,-1,16
 190 110 190 110 168 46 c 128,-1,17
 146 -18 146 -18 120.5 -57.5 c 128,-1,18
 95 -97 95 -97 68.5 -106 c 128,-1,19
 42 -115 42 -115 20 -81 c 0,0,1
EndSplineSet
EndChar

StartChar: asterisk
Encoding: 42 42 13
Width: 559
GlyphClass: 2
Flags: W
LayerCount: 2
Fore
SplineSet
186 79 m 1,0,1
 183 86 183 86 174.5 76.5 c 128,-1,2
 166 67 166 67 156 53.5 c 128,-1,3
 146 40 146 40 136 28 c 128,-1,4
 126 16 126 16 119.5 16.5 c 128,-1,5
 113 17 113 17 111.5 35.5 c 128,-1,6
 110 54 110 54 118 102 c 0,7,8
 121 120 121 120 113.5 128 c 128,-1,9
 106 136 106 136 92.5 139 c 128,-1,10
 79 142 79 142 63.5 142 c 128,-1,11
 48 142 48 142 36 145 c 128,-1,12
 24 148 24 148 18 155.5 c 128,-1,13
 12 163 12 163 18 181 c 1,14,15
 40 185 40 185 67.5 186.5 c 128,-1,16
 95 188 95 188 118 194.5 c 128,-1,17
 141 201 141 201 155 215.5 c 128,-1,18
 169 230 169 230 164 260 c 0,19,20
 162 275 162 275 149 288.5 c 128,-1,21
 136 302 136 302 122.5 315.5 c 128,-1,22
 109 329 109 329 100 343.5 c 128,-1,23
 91 358 91 358 97 373 c 1,24,25
 108 378 108 378 119.5 376 c 128,-1,26
 131 374 131 374 141.5 368 c 128,-1,27
 152 362 152 362 160.5 354 c 128,-1,28
 169 346 169 346 175 339 c 1,29,30
 179 348 179 348 185.5 363 c 128,-1,31
 192 378 192 378 199.5 392.5 c 128,-1,32
 207 407 207 407 215.5 418 c 128,-1,33
 224 429 224 429 231.5 430 c 128,-1,34
 239 431 239 431 245 418 c 128,-1,35
 251 405 251 405 254 373 c 1,36,37
 256 374 256 374 260.5 378 c 128,-1,38
 265 382 265 382 266 384 c 0,39,40
 268 387 268 387 273 395 c 128,-1,41
 278 403 278 403 283 412.5 c 128,-1,42
 288 422 288 422 293 430 c 128,-1,43
 298 438 298 438 300 441 c 1,44,45
 322 448 322 448 328 438.5 c 128,-1,46
 334 429 334 429 331 410 c 128,-1,47
 328 391 328 391 318.5 366 c 128,-1,48
 309 341 309 341 299 317 c 128,-1,49
 289 293 289 293 282 274 c 128,-1,50
 275 255 275 255 277 248 c 1,51,52
 310 246 310 246 342 248 c 128,-1,53
 374 250 374 250 406.5 253.5 c 128,-1,54
 439 257 439 257 471.5 259.5 c 128,-1,55
 504 262 504 262 537 260 c 1,56,57
 543 248 543 248 526 239.5 c 128,-1,58
 509 231 509 231 481 224 c 128,-1,59
 453 217 453 217 420 211.5 c 128,-1,60
 387 206 387 206 360 200 c 128,-1,61
 333 194 333 194 317.5 186.5 c 128,-1,62
 302 179 302 179 311 170 c 2,63,-1
 413 57 l 1,64,-1
 413 34 l 1,65,-1
 378 34 l 1,66,-1
 243 158 l 1,67,68
 241 139 241 139 243.5 121 c 128,-1,69
 246 103 246 103 249 84.5 c 128,-1,70
 252 66 252 66 254.5 48 c 128,-1,71
 257 30 257 30 254 11 c 1,72,-1
 220 11 l 1,73,-1
 186 79 l 1,74,-1
 186 79 l 1,0,1
EndSplineSet
EndChar

StartChar: plus
Encoding: 43 43 14
Width: 345
GlyphClass: 2
Flags: W
LayerCount: 2
Fore
SplineSet
181 11 m 0,0,1
 171 26 171 26 165 45.5 c 128,-1,2
 159 65 159 65 156 86 c 128,-1,3
 153 107 153 107 151 127 c 128,-1,4
 149 147 149 147 147 164 c 1,5,-1
 34 164 l 1,6,-1
 11 192 l 1,7,8
 13 194 13 194 22 198 c 128,-1,9
 31 202 31 202 34 203 c 0,10,11
 40 204 40 204 56 207.5 c 128,-1,12
 72 211 72 211 90 215 c 128,-1,13
 108 219 108 219 124.5 222 c 128,-1,14
 141 225 141 225 147 226 c 1,15,-1
 170 384 l 2,16,17
 171 390 171 390 176 393.5 c 128,-1,18
 181 397 181 397 187 397 c 128,-1,19
 193 397 193 397 198 394 c 128,-1,20
 203 391 203 391 203 384 c 2,21,-1
 203 238 l 1,22,23
 209 238 209 238 223.5 236.5 c 128,-1,24
 238 235 238 235 254.5 233 c 128,-1,25
 271 231 271 231 285.5 229 c 128,-1,26
 300 227 300 227 306 226 c 0,27,28
 308 226 308 226 317 221.5 c 128,-1,29
 326 217 326 217 328 214 c 1,30,31
 317 197 317 197 299.5 192 c 128,-1,32
 282 187 282 187 263 184.5 c 128,-1,33
 244 182 244 182 227.5 177.5 c 128,-1,34
 211 173 211 173 203 158 c 0,35,36
 193 138 193 138 195 117.5 c 128,-1,37
 197 97 197 97 200.5 77 c 128,-1,38
 204 57 204 57 204.5 37.5 c 128,-1,39
 205 18 205 18 193 0 c 1,40,41
 191 1 191 1 186.5 5 c 128,-1,42
 182 9 182 9 181 11 c 0,0,1
EndSplineSet
EndChar

StartChar: comma
Encoding: 44 44 15
Width: 181
GlyphClass: 2
Flags: W
LayerCount: 2
Fore
SplineSet
-12 -146 m 0,0,1
 -17 -132 -17 -132 -7.5 -113.5 c 128,-1,2
 2 -95 2 -95 16.5 -76.5 c 128,-1,3
 31 -58 31 -58 46 -40 c 128,-1,4
 61 -22 61 -22 67 -10 c 0,5,6
 76 8 76 8 80 26 c 128,-1,7
 84 44 84 44 85 62 c 128,-1,8
 86 80 86 80 86.5 98.5 c 128,-1,9
 87 117 87 117 90 137 c 0,10,11
 94 165 94 165 103.5 157.5 c 128,-1,12
 113 150 113 150 121 123.5 c 128,-1,13
 129 97 129 97 131.5 62 c 128,-1,14
 134 27 134 27 124 1 c 0,15,16
 122 -2 122 -2 116 -17 c 128,-1,17
 110 -32 110 -32 100.5 -51.5 c 128,-1,18
 91 -71 91 -71 78.5 -92.5 c 128,-1,19
 66 -114 66 -114 52.5 -130.5 c 128,-1,20
 39 -147 39 -147 25.5 -155.5 c 128,-1,21
 12 -164 12 -164 -1 -158 c 0,22,23
 -3 -157 -3 -157 -7 -152.5 c 128,-1,24
 -11 -148 -11 -148 -12 -146 c 0,0,1
EndSplineSet
EndChar

StartChar: hyphen
Encoding: 45 45 16
Width: 498
GlyphClass: 2
Flags: W
LayerCount: 2
Fore
SplineSet
29 282 m 0,0,1
 16 295 16 295 30.5 307 c 128,-1,2
 45 319 45 319 76.5 329 c 128,-1,3
 108 339 108 339 152 346 c 128,-1,4
 196 353 196 353 243 357 c 128,-1,5
 290 361 290 361 334.5 360.5 c 128,-1,6
 379 360 379 360 412.5 354 c 128,-1,7
 446 348 446 348 462.5 336 c 128,-1,8
 479 324 479 324 470 305 c 1,9,10
 459 305 459 305 433.5 303.5 c 128,-1,11
 408 302 408 302 379 300 c 128,-1,12
 350 298 350 298 324 296.5 c 128,-1,13
 298 295 298 295 288 294 c 0,14,15
 263 292 263 292 227 282.5 c 128,-1,16
 191 273 191 273 153.5 266.5 c 128,-1,17
 116 260 116 260 82 261 c 128,-1,18
 48 262 48 262 29 282 c 0,0,1
EndSplineSet
EndChar

StartChar: period
Encoding: 46 46 17
Width: 146
GlyphClass: 2
Flags: W
LayerCount: 2
Fore
SplineSet
34 11 m 0,0,1
 20 32 20 32 26.5 53.5 c 128,-1,2
 33 75 33 75 49 86.5 c 128,-1,3
 65 98 65 98 84 95.5 c 128,-1,4
 103 93 103 93 113 68 c 0,5,6
 119 53 119 53 111.5 36.5 c 128,-1,7
 104 20 104 20 90 9.5 c 128,-1,8
 76 -1 76 -1 60 -2.5 c 128,-1,9
 44 -4 44 -4 34 11 c 0,0,1
EndSplineSet
EndChar

StartChar: slash
Encoding: 47 47 18
Width: 310
GlyphClass: 2
Flags: W
LayerCount: 2
Fore
SplineSet
23 11 m 0,0,1
 17 49 17 49 26.5 102.5 c 128,-1,2
 36 156 36 156 56 216.5 c 128,-1,3
 76 277 76 277 103 341 c 128,-1,4
 130 405 130 405 158.5 465 c 128,-1,5
 187 525 187 525 213.5 577.5 c 128,-1,6
 240 630 240 630 260 667 c 1,7,8
 271 674 271 674 278 670 c 128,-1,9
 285 666 285 666 289 657.5 c 128,-1,10
 293 649 293 649 294 638.5 c 128,-1,11
 295 628 295 628 294 622 c 1,12,13
 288 609 288 609 273.5 577 c 128,-1,14
 259 545 259 545 243 509 c 128,-1,15
 227 473 227 473 212.5 441 c 128,-1,16
 198 409 198 409 193 396 c 1,17,18
 188 386 188 386 178.5 361.5 c 128,-1,19
 169 337 169 337 158 310 c 128,-1,20
 147 283 147 283 137.5 259 c 128,-1,21
 128 235 128 235 125 226 c 0,22,23
 120 212 120 212 113 183.5 c 128,-1,24
 106 155 106 155 97 122.5 c 128,-1,25
 88 90 88 90 78 59.5 c 128,-1,26
 68 29 68 29 57 11 c 0,27,28
 54 8 54 8 49 4.5 c 128,-1,29
 44 1 44 1 39 -0.5 c 128,-1,30
 34 -2 34 -2 29 0.5 c 128,-1,31
 24 3 24 3 23 11 c 0,0,1
EndSplineSet
EndChar

StartChar: zero
Encoding: 48 48 19
Width: 486
GlyphClass: 2
Flags: W
LayerCount: 2
Fore
SplineSet
68 11 m 0,0,1
 38 34 38 34 28.5 76.5 c 128,-1,2
 19 119 19 119 26.5 172 c 128,-1,3
 34 225 34 225 55.5 284 c 128,-1,4
 77 343 77 343 108.5 398 c 128,-1,5
 140 453 140 453 179 499.5 c 128,-1,6
 218 546 218 546 260.5 574.5 c 128,-1,7
 303 603 303 603 346.5 608.5 c 128,-1,8
 390 614 390 614 430 587 c 0,9,10
 460 567 460 567 467 527 c 128,-1,11
 474 487 474 487 464 435.5 c 128,-1,12
 454 384 454 384 429 326.5 c 128,-1,13
 404 269 404 269 370 214 c 128,-1,14
 336 159 336 159 296 112 c 128,-1,15
 256 65 256 65 215.5 35 c 128,-1,16
 175 5 175 5 137 -3.5 c 128,-1,17
 99 -12 99 -12 68 11 c 0,0,1
79 45 m 0,18,19
 94 22 94 22 116.5 25 c 128,-1,20
 139 28 139 28 165.5 48.5 c 128,-1,21
 192 69 192 69 220.5 103.5 c 128,-1,22
 249 138 249 138 276.5 179.5 c 128,-1,23
 304 221 304 221 329 266 c 128,-1,24
 354 311 354 311 373 351.5 c 128,-1,25
 392 392 392 392 404 424.5 c 128,-1,26
 416 457 416 457 418 474 c 0,27,28
 423 530 423 530 407 548.5 c 128,-1,29
 391 567 391 567 361.5 557.5 c 128,-1,30
 332 548 332 548 293.5 515 c 128,-1,31
 255 482 255 482 217 435.5 c 128,-1,32
 179 389 179 389 144.5 334 c 128,-1,33
 110 279 110 279 88.5 225.5 c 128,-1,34
 67 172 67 172 62.5 124 c 128,-1,35
 58 76 58 76 79 45 c 0,18,19
EndSplineSet
EndChar

StartChar: one
Encoding: 49 49 20
Width: 277
GlyphClass: 2
Flags: W
LayerCount: 2
Fore
SplineSet
23 11 m 0,0,1
 8 26 8 26 10 52 c 128,-1,2
 12 78 12 78 21 106 c 128,-1,3
 30 134 30 134 41 158 c 128,-1,4
 52 182 52 182 57 192 c 0,5,6
 60 200 60 200 69.5 223.5 c 128,-1,7
 79 247 79 247 92 278.5 c 128,-1,8
 105 310 105 310 119 345 c 128,-1,9
 133 380 133 380 146 411.5 c 128,-1,10
 159 443 159 443 168.5 466.5 c 128,-1,11
 178 490 178 490 181 498 c 0,12,13
 183 504 183 504 186.5 517.5 c 128,-1,14
 190 531 190 531 195 545.5 c 128,-1,15
 200 560 200 560 206 573.5 c 128,-1,16
 212 587 212 587 220 593.5 c 128,-1,17
 228 600 228 600 238 597 c 128,-1,18
 248 594 248 594 260 576 c 0,19,20
 261 575 261 575 252.5 550.5 c 128,-1,21
 244 526 244 526 229.5 485.5 c 128,-1,22
 215 445 215 445 196.5 393.5 c 128,-1,23
 178 342 178 342 158 288.5 c 128,-1,24
 138 235 138 235 118.5 183.5 c 128,-1,25
 99 132 99 132 83.5 91.5 c 128,-1,26
 68 51 68 51 57.5 26 c 128,-1,27
 47 1 47 1 45 0 c 256,28,29
 43 -1 43 -1 34.5 3 c 128,-1,30
 26 7 26 7 23 11 c 0,0,1
EndSplineSet
EndChar

StartChar: two
Encoding: 50 50 21
Width: 548
GlyphClass: 2
Flags: W
LayerCount: 2
Fore
SplineSet
34 11 m 0,0,1
 20 22 20 22 22.5 34 c 128,-1,2
 25 46 25 46 34 57 c 0,3,4
 72 102 72 102 110 143.5 c 128,-1,5
 148 185 148 185 183 228 c 128,-1,6
 218 271 218 271 249.5 317.5 c 128,-1,7
 281 364 281 364 306 418 c 0,8,9
 319 446 319 446 316.5 460 c 128,-1,10
 314 474 314 474 301.5 477.5 c 128,-1,11
 289 481 289 481 270 476.5 c 128,-1,12
 251 472 251 472 230.5 464.5 c 128,-1,13
 210 457 210 457 191 449 c 128,-1,14
 172 441 172 441 160.5 437 c 128,-1,15
 149 433 149 433 147 435.5 c 128,-1,16
 145 438 145 438 159 452 c 1,17,18
 177 473 177 473 203.5 489 c 128,-1,19
 230 505 230 505 257.5 512.5 c 128,-1,20
 285 520 285 520 309.5 518 c 128,-1,21
 334 516 334 516 349.5 502.5 c 128,-1,22
 365 489 365 489 366.5 463 c 128,-1,23
 368 437 368 437 350 396 c 0,24,25
 329 348 329 348 296.5 306.5 c 128,-1,26
 264 265 264 265 230 225 c 128,-1,27
 196 185 196 185 164 144.5 c 128,-1,28
 132 104 132 104 113 57 c 1,29,30
 129 52 129 52 162.5 61 c 128,-1,31
 196 70 196 70 238 85 c 128,-1,32
 280 100 280 100 325.5 116 c 128,-1,33
 371 132 371 132 412.5 141 c 128,-1,34
 454 150 454 150 486 148 c 128,-1,35
 518 146 518 146 532 125 c 0,36,37
 534 123 534 123 534 113.5 c 128,-1,38
 534 104 534 104 532 102 c 1,39,40
 502 107 502 107 460 97.5 c 128,-1,41
 418 88 418 88 370.5 72 c 128,-1,42
 323 56 323 56 273.5 37.5 c 128,-1,43
 224 19 224 19 179 7 c 128,-1,44
 134 -5 134 -5 96 -6 c 128,-1,45
 58 -7 58 -7 34 11 c 0,0,1
EndSplineSet
EndChar

StartChar: three
Encoding: 51 51 22
Width: 519
GlyphClass: 2
Flags: W
LayerCount: 2
Fore
SplineSet
29 23 m 0,0,1
 26 27 26 27 23 32 c 128,-1,2
 20 37 20 37 18.5 41.5 c 128,-1,3
 17 46 17 46 19 50 c 128,-1,4
 21 54 21 54 29 57 c 0,5,6
 40 60 40 60 52.5 58.5 c 128,-1,7
 65 57 65 57 78.5 53.5 c 128,-1,8
 92 50 92 50 105 47 c 128,-1,9
 118 44 118 44 130 45 c 0,10,11
 151 47 151 47 190.5 65 c 128,-1,12
 230 83 230 83 274.5 109.5 c 128,-1,13
 319 136 319 136 361.5 168 c 128,-1,14
 404 200 404 200 430 231 c 128,-1,15
 456 262 456 262 458 287.5 c 128,-1,16
 460 313 460 313 424 328 c 1,17,18
 406 331 406 331 377 324.5 c 128,-1,19
 348 318 348 318 316 308.5 c 128,-1,20
 284 299 284 299 252 289.5 c 128,-1,21
 220 280 220 280 196 277.5 c 128,-1,22
 172 275 172 275 159.5 283 c 128,-1,23
 147 291 147 291 153 316 c 1,24,25
 166 331 166 331 188.5 355 c 128,-1,26
 211 379 211 379 234.5 406.5 c 128,-1,27
 258 434 258 434 279 463 c 128,-1,28
 300 492 300 492 311 519 c 1,29,30
 311 519 311 519 295.5 515 c 128,-1,31
 280 511 280 511 257.5 505.5 c 128,-1,32
 235 500 235 500 210.5 496 c 128,-1,33
 186 492 186 492 167 492 c 128,-1,34
 148 492 148 492 139.5 498 c 128,-1,35
 131 504 131 504 142 519 c 0,36,37
 144 522 144 522 162.5 533.5 c 128,-1,38
 181 545 181 545 208.5 558 c 128,-1,39
 236 571 236 571 267.5 583.5 c 128,-1,40
 299 596 299 596 326.5 601 c 128,-1,41
 354 606 354 606 372 601 c 128,-1,42
 390 596 390 596 391 575 c 128,-1,43
 392 554 392 554 371.5 513.5 c 128,-1,44
 351 473 351 473 300 407 c 1,45,-1
 300 373 l 1,46,47
 380 379 380 379 425 365.5 c 128,-1,48
 470 352 470 352 486.5 325.5 c 128,-1,49
 503 299 503 299 494.5 264 c 128,-1,50
 486 229 486 229 457.5 192 c 128,-1,51
 429 155 429 155 384.5 119.5 c 128,-1,52
 340 84 340 84 284.5 58 c 128,-1,53
 229 32 229 32 166.5 18.5 c 128,-1,54
 104 5 104 5 40 11 c 0,55,56
 38 12 38 12 34 16.5 c 128,-1,57
 30 21 30 21 29 23 c 0,0,1
EndSplineSet
EndChar

StartChar: four
Encoding: 52 52 23
Width: 542
GlyphClass: 2
Flags: W
LayerCount: 2
Fore
SplineSet
266 23 m 0,0,1
 259 57 259 57 270 91.5 c 128,-1,2
 281 126 281 126 295 160 c 128,-1,3
 309 194 309 194 319.5 227.5 c 128,-1,4
 330 261 330 261 322 294 c 1,5,6
 302 297 302 297 276 290.5 c 128,-1,7
 250 284 250 284 222.5 274 c 128,-1,8
 195 264 195 264 167 254 c 128,-1,9
 139 244 139 244 113 240.5 c 128,-1,10
 87 237 87 237 65.5 243 c 128,-1,11
 44 249 44 249 29 271 c 0,12,13
 16 291 16 291 18.5 316.5 c 128,-1,14
 21 342 21 342 33.5 371.5 c 128,-1,15
 46 401 46 401 65 433 c 128,-1,16
 84 465 84 465 103.5 496 c 128,-1,17
 123 527 123 527 139.5 556 c 128,-1,18
 156 585 156 585 164 610 c 1,19,20
 187 616 187 616 197.5 610.5 c 128,-1,21
 208 605 208 605 209.5 592.5 c 128,-1,22
 211 580 211 580 205.5 563 c 128,-1,23
 200 546 200 546 192 529 c 128,-1,24
 184 512 184 512 176 497 c 128,-1,25
 168 482 168 482 164 474 c 0,26,27
 159 466 159 466 148 445 c 128,-1,28
 137 424 137 424 124.5 401 c 128,-1,29
 112 378 112 378 100.5 357 c 128,-1,30
 89 336 89 336 85 328 c 1,31,-1
 85 305 l 1,32,33
 109 302 109 302 136 306.5 c 128,-1,34
 163 311 163 311 189.5 318.5 c 128,-1,35
 216 326 216 326 241.5 335 c 128,-1,36
 267 344 267 344 288 350 c 0,37,38
 337 364 337 364 366.5 392 c 128,-1,39
 396 420 396 420 415.5 457.5 c 128,-1,40
 435 495 435 495 449 540 c 128,-1,41
 463 585 463 585 481 633 c 1,42,43
 504 640 504 640 510 626.5 c 128,-1,44
 516 613 516 613 512 588 c 128,-1,45
 508 563 508 563 496.5 530.5 c 128,-1,46
 485 498 485 498 473.5 468 c 128,-1,47
 462 438 462 438 453.5 414.5 c 128,-1,48
 445 391 445 391 446 384 c 1,49,50
 463 390 463 390 479.5 384.5 c 128,-1,51
 496 379 496 379 503 362 c 1,52,53
 497 348 497 348 483.5 343 c 128,-1,54
 470 338 470 338 455 334 c 128,-1,55
 440 330 440 330 425.5 324.5 c 128,-1,56
 411 319 411 319 402 305 c 0,57,58
 381 272 381 272 366 236 c 128,-1,59
 351 200 351 200 339 162 c 128,-1,60
 327 124 327 124 318 85.5 c 128,-1,61
 309 47 309 47 300 11 c 1,62,63
 293 9 293 9 280.5 10.5 c 128,-1,64
 268 12 268 12 266 23 c 0,0,1
EndSplineSet
EndChar

StartChar: five
Encoding: 53 53 24
Width: 542
GlyphClass: 2
Flags: W
LayerCount: 2
Fore
SplineSet
74 11 m 0,0,1
 66 13 66 13 56.5 16.5 c 128,-1,2
 47 20 47 20 38.5 25 c 128,-1,3
 30 30 30 30 24 38 c 128,-1,4
 18 46 18 46 18 57 c 0,5,6
 18 62 18 62 36.5 60.5 c 128,-1,7
 55 59 55 59 78.5 55 c 128,-1,8
 102 51 102 51 124 47.5 c 128,-1,9
 146 44 146 44 153 45 c 0,10,11
 210 51 210 51 261.5 78 c 128,-1,12
 313 105 313 105 351 146.5 c 128,-1,13
 389 188 389 188 409.5 240.5 c 128,-1,14
 430 293 430 293 424 350 c 1,15,16
 409 380 409 380 382 387.5 c 128,-1,17
 355 395 355 395 323 388.5 c 128,-1,18
 291 382 291 382 257 367 c 128,-1,19
 223 352 223 352 194 337 c 128,-1,20
 165 322 165 322 144.5 311.5 c 128,-1,21
 124 301 124 301 118 305 c 0,22,23
 102 316 102 316 98 327.5 c 128,-1,24
 94 339 94 339 96.5 352 c 128,-1,25
 99 365 99 365 105.5 378.5 c 128,-1,26
 112 392 112 392 118 407 c 0,27,28
 119 410 119 410 126.5 427.5 c 128,-1,29
 134 445 134 445 144 467.5 c 128,-1,30
 154 490 154 490 165.5 511 c 128,-1,31
 177 532 177 532 186 542 c 0,32,33
 204 560 204 560 242.5 568 c 128,-1,34
 281 576 281 576 325 580 c 128,-1,35
 369 584 369 584 411.5 587 c 128,-1,36
 454 590 454 590 481 599 c 0,37,38
 505 607 505 607 515 597 c 128,-1,39
 525 587 525 587 517 571 c 128,-1,40
 509 555 509 555 481 539 c 128,-1,41
 453 523 453 523 402 519 c 0,42,43
 393 519 393 519 370.5 517.5 c 128,-1,44
 348 516 348 516 322.5 514 c 128,-1,45
 297 512 297 512 274.5 510.5 c 128,-1,46
 252 509 252 509 243 509 c 1,47,48
 234 502 234 502 223 490 c 128,-1,49
 212 478 212 478 203 464 c 128,-1,50
 194 450 194 450 188.5 435 c 128,-1,51
 183 420 183 420 186 407 c 1,52,53
 209 402 209 402 232.5 407 c 128,-1,54
 256 412 256 412 279.5 419 c 128,-1,55
 303 426 303 426 327.5 431 c 128,-1,56
 352 436 352 436 378 430 c 0,57,58
 429 419 429 419 454.5 392 c 128,-1,59
 480 365 480 365 484 329.5 c 128,-1,60
 488 294 488 294 473 253 c 128,-1,61
 458 212 458 212 429 172.5 c 128,-1,62
 400 133 400 133 360 98 c 128,-1,63
 320 63 320 63 273 39.5 c 128,-1,64
 226 16 226 16 175 7 c 128,-1,65
 124 -2 124 -2 74 11 c 0,0,1
EndSplineSet
EndChar

StartChar: six
Encoding: 54 54 25
Width: 362
GlyphClass: 2
Flags: W
LayerCount: 2
Fore
SplineSet
107 11 m 0,0,1
 98 14 98 14 86.5 18 c 128,-1,2
 75 22 75 22 64 27 c 128,-1,3
 53 32 53 32 44 39 c 128,-1,4
 35 46 35 46 29 57 c 1,5,6
 22 100 22 100 17.5 142 c 128,-1,7
 13 184 13 184 29 226 c 0,8,9
 33 237 33 237 51 269 c 128,-1,10
 69 301 69 301 94.5 340 c 128,-1,11
 120 379 120 379 150 419.5 c 128,-1,12
 180 460 180 460 207.5 488.5 c 128,-1,13
 235 517 235 517 256.5 528 c 128,-1,14
 278 539 278 539 288 519 c 0,15,16
 290 515 290 515 290 502 c 128,-1,17
 290 489 290 489 288 486 c 0,18,19
 272 471 272 471 249 449.5 c 128,-1,20
 226 428 226 428 200.5 401.5 c 128,-1,21
 175 375 175 375 150 345.5 c 128,-1,22
 125 316 125 316 106.5 285.5 c 128,-1,23
 88 255 88 255 78.5 225.5 c 128,-1,24
 69 196 69 196 74 170 c 1,25,-1
 85 170 l 1,26,27
 167 213 167 213 219.5 226.5 c 128,-1,28
 272 240 272 240 301 233 c 128,-1,29
 330 226 330 226 338 203.5 c 128,-1,30
 346 181 346 181 337.5 152 c 128,-1,31
 329 123 329 123 306.5 92.5 c 128,-1,32
 284 62 284 62 252.5 39.5 c 128,-1,33
 221 17 221 17 183.5 7.5 c 128,-1,34
 146 -2 146 -2 107 11 c 0,0,1
107 57 m 0,35,36
 129 44 129 44 154 48 c 128,-1,37
 179 52 179 52 203 66 c 128,-1,38
 227 80 227 80 247.5 100 c 128,-1,39
 268 120 268 120 279.5 139.5 c 128,-1,40
 291 159 291 159 291.5 174 c 128,-1,41
 292 189 292 189 277 192 c 0,42,43
 267 194 267 194 245 188 c 128,-1,44
 223 182 223 182 197.5 171 c 128,-1,45
 172 160 172 160 147.5 145 c 128,-1,46
 123 130 123 130 107.5 114.5 c 128,-1,47
 92 99 92 99 90 83.5 c 128,-1,48
 88 68 88 68 107 57 c 0,35,36
EndSplineSet
EndChar

StartChar: seven
Encoding: 55 55 26
Width: 480
GlyphClass: 2
Flags: W
LayerCount: 2
Fore
SplineSet
125 23 m 0,0,1
 124 25 124 25 124 28.5 c 128,-1,2
 124 32 124 32 125 34 c 0,3,4
 131 46 131 46 147 74.5 c 128,-1,5
 163 103 163 103 181 135.5 c 128,-1,6
 199 168 199 168 215 197 c 128,-1,7
 231 226 231 226 238 238 c 256,8,9
 245 250 245 250 258.5 269.5 c 128,-1,10
 272 289 272 289 287.5 312 c 128,-1,11
 303 335 303 335 318.5 359.5 c 128,-1,12
 334 384 334 384 345.5 407.5 c 128,-1,13
 357 431 357 431 362 451.5 c 128,-1,14
 367 472 367 472 362 486 c 1,15,16
 316 474 316 474 277 464.5 c 128,-1,17
 238 455 238 455 200 449 c 128,-1,18
 162 443 162 443 122 440.5 c 128,-1,19
 82 438 82 438 34 441 c 1,20,21
 16 453 16 453 26.5 464.5 c 128,-1,22
 37 476 37 476 65.5 487.5 c 128,-1,23
 94 499 94 499 136.5 509 c 128,-1,24
 179 519 179 519 225.5 527 c 128,-1,25
 272 535 272 535 317 540.5 c 128,-1,26
 362 546 362 546 397 548.5 c 128,-1,27
 432 551 432 551 451 549.5 c 128,-1,28
 470 548 470 548 464 542 c 1,29,30
 458 528 458 528 442.5 495 c 128,-1,31
 427 462 427 462 405.5 417.5 c 128,-1,32
 384 373 384 373 358 321.5 c 128,-1,33
 332 270 332 270 304.5 220.5 c 128,-1,34
 277 171 277 171 250 127 c 128,-1,35
 223 83 223 83 199 54 c 128,-1,36
 175 25 175 25 155.5 15 c 128,-1,37
 136 5 136 5 125 23 c 0,0,1
EndSplineSet
EndChar

StartChar: eight
Encoding: 56 56 27
Width: 498
GlyphClass: 2
Flags: W
LayerCount: 2
Fore
SplineSet
50 11 m 1,0,1
 28 23 28 23 20.5 42 c 128,-1,2
 13 61 13 61 15.5 82 c 128,-1,3
 18 103 18 103 28 123.5 c 128,-1,4
 38 144 38 144 50 158 c 0,5,6
 58 167 58 167 77.5 188 c 128,-1,7
 97 209 97 209 118.5 232 c 128,-1,8
 140 255 140 255 159 276 c 128,-1,9
 178 297 178 297 186 305 c 1,10,11
 195 328 195 328 187 349 c 128,-1,12
 179 370 179 370 165 391.5 c 128,-1,13
 151 413 151 413 138 435 c 128,-1,14
 125 457 125 457 124.5 480.5 c 128,-1,15
 124 504 124 504 142 530.5 c 128,-1,16
 160 557 160 557 209 587 c 0,17,18
 265 622 265 622 298 627 c 128,-1,19
 331 632 331 632 353 617 c 128,-1,20
 375 602 375 602 392 572.5 c 128,-1,21
 409 543 409 543 435 509 c 0,22,23
 438 506 438 506 445 503 c 128,-1,24
 452 500 452 500 458.5 496.5 c 128,-1,25
 465 493 465 493 469 487.5 c 128,-1,26
 473 482 473 482 470 474 c 1,27,28
 445 458 445 458 417.5 438.5 c 128,-1,29
 390 419 390 419 363 397.5 c 128,-1,30
 336 376 336 376 311 352.5 c 128,-1,31
 286 329 286 329 266 305 c 1,32,33
 257 271 257 271 263.5 242.5 c 128,-1,34
 270 214 270 214 279.5 189.5 c 128,-1,35
 289 165 289 165 296 143.5 c 128,-1,36
 303 122 303 122 296 100.5 c 128,-1,37
 289 79 289 79 261.5 57.5 c 128,-1,38
 234 36 234 36 175 11 c 0,39,40
 147 0 147 0 113 -1 c 128,-1,41
 79 -2 79 -2 50 11 c 1,0,1
62 45 m 1,42,43
 122 34 122 34 159.5 47 c 128,-1,44
 197 60 197 60 217.5 84.5 c 128,-1,45
 238 109 238 109 244 140 c 128,-1,46
 250 171 250 171 246.5 197.5 c 128,-1,47
 243 224 243 224 232 239 c 128,-1,48
 221 254 221 254 209 248 c 1,49,50
 199 239 199 239 176 219 c 128,-1,51
 153 199 153 199 129 174.5 c 128,-1,52
 105 150 105 150 85.5 124.5 c 128,-1,53
 66 99 66 99 62 79 c 1,54,-1
 62 45 l 1,42,43
198 384 m 0,55,56
 199 382 199 382 202.5 377 c 128,-1,57
 206 372 206 372 209.5 366.5 c 128,-1,58
 213 361 213 361 216 356 c 128,-1,59
 219 351 219 351 220 350 c 0,60,61
 222 349 222 349 226 349 c 128,-1,62
 230 349 230 349 232 350 c 0,63,64
 238 355 238 355 254 368 c 128,-1,65
 270 381 270 381 288 395.5 c 128,-1,66
 306 410 306 410 322.5 423 c 128,-1,67
 339 436 339 436 345 441 c 0,68,69
 350 445 350 445 359 453.5 c 128,-1,70
 368 462 368 462 368 464 c 2,71,-1
 368 554 l 2,72,73
 368 565 368 565 349 569.5 c 128,-1,74
 330 574 330 574 303 571 c 128,-1,75
 276 568 276 568 247.5 556 c 128,-1,76
 219 544 219 544 200 521.5 c 128,-1,77
 181 499 181 499 177.5 465 c 128,-1,78
 174 431 174 431 198 384 c 0,55,56
EndSplineSet
EndChar

StartChar: nine
Encoding: 57 57 28
Width: 390
GlyphClass: 2
Flags: W
LayerCount: 2
Fore
SplineSet
118 11 m 1,0,1
 112 46 112 46 119.5 69.5 c 128,-1,2
 127 93 127 93 142 125 c 0,3,4
 148 136 148 136 162 165 c 128,-1,5
 176 194 176 194 192.5 226.5 c 128,-1,6
 209 259 209 259 223 288 c 128,-1,7
 237 317 237 317 243 328 c 1,8,-1
 243 339 l 1,9,10
 226 345 226 345 209.5 341 c 128,-1,11
 193 337 193 337 176.5 329 c 128,-1,12
 160 321 160 321 143.5 311.5 c 128,-1,13
 127 302 127 302 110.5 296.5 c 128,-1,14
 94 291 94 291 76.5 291.5 c 128,-1,15
 59 292 59 292 40 305 c 0,16,17
 13 323 13 323 16 354 c 128,-1,18
 19 385 19 385 42.5 418 c 128,-1,19
 66 451 66 451 105.5 479 c 128,-1,20
 145 507 145 507 190.5 518.5 c 128,-1,21
 236 530 236 530 282.5 519.5 c 128,-1,22
 329 509 329 509 368 464 c 1,23,24
 370 456 370 456 355 416 c 128,-1,25
 340 376 340 376 315.5 321 c 128,-1,26
 291 266 291 266 261 206 c 128,-1,27
 231 146 231 146 202.5 98 c 128,-1,28
 174 50 174 50 151 24 c 128,-1,29
 128 -2 128 -2 118 11 c 1,0,1
74 373 m 0,30,31
 72 371 72 371 68 362 c 128,-1,32
 64 353 64 353 62 350 c 1,33,34
 92 342 92 342 126.5 350.5 c 128,-1,35
 161 359 161 359 193.5 376.5 c 128,-1,36
 226 394 226 394 254 417.5 c 128,-1,37
 282 441 282 441 300 464 c 1,38,39
 290 484 290 484 271.5 487.5 c 128,-1,40
 253 491 253 491 230.5 484 c 128,-1,41
 208 477 208 477 183.5 462.5 c 128,-1,42
 159 448 159 448 137.5 431 c 128,-1,43
 116 414 116 414 99 398 c 128,-1,44
 82 382 82 382 74 373 c 0,30,31
EndSplineSet
EndChar

StartChar: colon
Encoding: 58 58 29
Width: 125
GlyphClass: 2
Flags: W
LayerCount: 2
Fore
SplineSet
28 23 m 0,0,1
 21 37 21 37 27 45.5 c 128,-1,2
 33 54 33 54 44.5 57 c 128,-1,3
 56 60 56 60 67.5 57 c 128,-1,4
 79 54 79 54 84 45 c 0,5,6
 93 28 93 28 88 16.5 c 128,-1,7
 83 5 83 5 72 1.5 c 128,-1,8
 61 -2 61 -2 48 3 c 128,-1,9
 35 8 35 8 28 23 c 0,0,1
39 294 m 0,10,11
 28 304 28 304 27.5 315.5 c 128,-1,12
 27 327 27 327 32.5 335.5 c 128,-1,13
 38 344 38 344 49 346 c 128,-1,14
 60 348 60 348 73 339 c 256,15,16
 86 330 86 330 87.5 317 c 128,-1,17
 89 304 89 304 83 294.5 c 128,-1,18
 77 285 77 285 65 282.5 c 128,-1,19
 53 280 53 280 39 294 c 0,10,11
EndSplineSet
EndChar

StartChar: semicolon
Encoding: 59 59 30
Width: 175
GlyphClass: 2
Flags: W
LayerCount: 2
Fore
SplineSet
-16 -165 m 0,0,1
 -18 -163 -18 -163 -18 -159 c 128,-1,2
 -18 -155 -18 -155 -16 -154 c 0,3,4
 12 -118 12 -118 31 -89.5 c 128,-1,5
 50 -61 50 -61 60.5 -31 c 128,-1,6
 71 -1 71 -1 74 34 c 128,-1,7
 77 69 77 69 74 117 c 1,8,9
 79 120 79 120 84.5 117.5 c 128,-1,10
 90 115 90 115 95.5 110 c 128,-1,11
 101 105 101 105 104.5 100 c 128,-1,12
 108 95 108 95 108 95 c 2,13,14
 126 71 126 71 127 35.5 c 128,-1,15
 128 0 128 0 118.5 -37 c 128,-1,16
 109 -74 109 -74 91 -107.5 c 128,-1,17
 73 -141 73 -141 53.5 -162 c 128,-1,18
 34 -183 34 -183 15 -186 c 128,-1,19
 -4 -189 -4 -189 -16 -165 c 0,0,1
40 343 m 0,20,21
 38 345 38 345 38 354.5 c 128,-1,22
 38 364 38 364 40 366 c 1,23,-1
 85 366 l 1,24,-1
 85 321 l 1,25,26
 78 317 78 317 71 318 c 128,-1,27
 64 319 64 319 58 323 c 128,-1,28
 52 327 52 327 47.5 332.5 c 128,-1,29
 43 338 43 338 40 343 c 0,20,21
EndSplineSet
EndChar

StartChar: less
Encoding: 60 60 31
Width: 464
GlyphClass: 2
Flags: W
LayerCount: 2
Fore
SplineSet
396 11 m 0,0,1
 315 65 315 65 233 118.5 c 128,-1,2
 151 172 151 172 79 238 c 0,3,4
 63 252 63 252 46.5 266.5 c 128,-1,5
 30 281 30 281 20.5 296 c 128,-1,6
 11 311 11 311 12.5 327.5 c 128,-1,7
 14 344 14 344 34 362 c 0,8,9
 43 370 43 370 61.5 386.5 c 128,-1,10
 80 403 80 403 103.5 424.5 c 128,-1,11
 127 446 127 446 153 469 c 128,-1,12
 179 492 179 492 202 513.5 c 128,-1,13
 225 535 225 535 243.5 551.5 c 128,-1,14
 262 568 262 568 271 576 c 1,15,16
 276 578 276 578 285 576 c 128,-1,17
 294 574 294 574 301.5 569.5 c 128,-1,18
 309 565 309 565 311.5 558 c 128,-1,19
 314 551 314 551 306 542 c 2,20,-1
 91 328 l 2,21,22
 80 317 80 317 93 299 c 128,-1,23
 106 281 106 281 127 263 c 128,-1,24
 148 245 148 245 168.5 231 c 128,-1,25
 189 217 189 217 193 214 c 0,26,27
 206 205 206 205 239.5 182.5 c 128,-1,28
 273 160 273 160 311 135 c 128,-1,29
 349 110 349 110 382.5 87.5 c 128,-1,30
 416 65 416 65 430 57 c 1,31,32
 440 44 440 44 442 31.5 c 128,-1,33
 444 19 444 19 438.5 11 c 128,-1,34
 433 3 433 3 422 2 c 128,-1,35
 411 1 411 1 396 11 c 0,0,1
EndSplineSet
EndChar

StartChar: equal
Encoding: 61 61 32
Width: 430
GlyphClass: 2
Flags: W
LayerCount: 2
Fore
SplineSet
23 23 m 0,0,1
 17 32 17 32 30.5 39.5 c 128,-1,2
 44 47 44 47 68.5 53 c 128,-1,3
 93 59 93 59 123 64 c 128,-1,4
 153 69 153 69 180 72 c 128,-1,5
 207 75 207 75 226.5 77 c 128,-1,6
 246 79 246 79 249 79 c 0,7,8
 257 79 257 79 278 79.5 c 128,-1,9
 299 80 299 80 322.5 80 c 128,-1,10
 346 80 346 80 367 79.5 c 128,-1,11
 388 79 388 79 396 79 c 1,12,13
 401 76 401 76 405.5 70 c 128,-1,14
 410 64 410 64 407 57 c 1,15,16
 370 52 370 52 321.5 44 c 128,-1,17
 273 36 273 36 225 27.5 c 128,-1,18
 177 19 177 19 135 11.5 c 128,-1,19
 93 4 93 4 68 0 c 0,20,21
 50 -3 50 -3 42 1.5 c 128,-1,22
 34 6 34 6 23 23 c 0,0,1
79 248 m 1,23,24
 85 260 85 260 108 270 c 128,-1,25
 131 280 131 280 162 286 c 128,-1,26
 193 292 193 292 228.5 294.5 c 128,-1,27
 264 297 264 297 295.5 294 c 128,-1,28
 327 291 327 291 351 282.5 c 128,-1,29
 375 274 375 274 384 260 c 1,30,31
 380 255 380 255 357 250 c 128,-1,32
 334 245 334 245 301.5 240.5 c 128,-1,33
 269 236 269 236 231.5 233 c 128,-1,34
 194 230 194 230 161.5 230.5 c 128,-1,35
 129 231 129 231 106 235 c 128,-1,36
 83 239 83 239 79 248 c 1,23,24
EndSplineSet
EndChar

StartChar: greater
Encoding: 62 62 33
Width: 345
GlyphClass: 2
Flags: W
LayerCount: 2
Fore
SplineSet
39 23 m 0,0,1
 29 42 29 42 43 66 c 128,-1,2
 57 90 57 90 83 117 c 128,-1,3
 109 144 109 144 141 173 c 128,-1,4
 173 202 173 202 200 230.5 c 128,-1,5
 227 259 227 259 243.5 286.5 c 128,-1,6
 260 314 260 314 254 339 c 0,7,8
 253 341 253 341 235 355.5 c 128,-1,9
 217 370 217 370 191.5 391 c 128,-1,10
 166 412 166 412 136 436.5 c 128,-1,11
 106 461 106 461 81.5 484 c 128,-1,12
 57 507 57 507 41.5 526 c 128,-1,13
 26 545 26 545 28 554 c 0,14,15
 29 558 29 558 37.5 566.5 c 128,-1,16
 46 575 46 575 50 576 c 1,17,18
 71 560 71 560 104.5 538.5 c 128,-1,19
 138 517 138 517 173 492.5 c 128,-1,20
 208 468 208 468 240 440.5 c 128,-1,21
 272 413 272 413 291 383.5 c 128,-1,22
 310 354 310 354 311.5 322.5 c 128,-1,23
 313 291 313 291 287 260 c 0,24,25
 279 250 279 250 264 231.5 c 128,-1,26
 249 213 249 213 230.5 191 c 128,-1,27
 212 169 212 169 192.5 146 c 128,-1,28
 173 123 173 123 155.5 102.5 c 128,-1,29
 138 82 138 82 125 66.5 c 128,-1,30
 112 51 112 51 107 45 c 0,31,32
 105 42 105 42 98.5 35.5 c 128,-1,33
 92 29 92 29 85 22 c 128,-1,34
 78 15 78 15 71.5 8.5 c 128,-1,35
 65 2 65 2 62 0 c 1,36,37
 59 2 59 2 50 10.5 c 128,-1,38
 41 19 41 19 39 23 c 0,0,1
EndSplineSet
EndChar

StartChar: question
Encoding: 63 63 34
Width: 548
GlyphClass: 2
Flags: W
LayerCount: 2
Fore
SplineSet
78 26 m 0,0,1
 70 37 70 37 65.5 48 c 128,-1,2
 61 59 61 59 66 72 c 0,3,4
 73 94 73 94 80.5 94 c 128,-1,5
 88 94 88 94 94 82.5 c 128,-1,6
 100 71 100 71 103 53 c 128,-1,7
 106 35 106 35 105 22.5 c 128,-1,8
 104 10 104 10 97.5 8 c 128,-1,9
 91 6 91 6 78 26 c 0,0,1
64 273 m 0,10,11
 57 299 57 299 83 333 c 128,-1,12
 109 367 109 367 152 404.5 c 128,-1,13
 195 442 195 442 248 481 c 128,-1,14
 301 520 301 520 350 557 c 128,-1,15
 399 594 399 594 436.5 626.5 c 128,-1,16
 474 659 474 659 485 683.5 c 128,-1,17
 496 708 496 708 473.5 722 c 128,-1,18
 451 736 451 736 380 736 c 2,19,-1
 109 736 l 1,20,21
 101 752 101 752 107 766.5 c 128,-1,22
 113 781 113 781 132 781 c 2,23,-1
 414 781 l 2,24,25
 439 781 439 781 469 767 c 128,-1,26
 499 753 499 753 520 730.5 c 128,-1,27
 541 708 541 708 546 679.5 c 128,-1,28
 551 651 551 651 527 623 c 0,29,30
 482 570 482 570 422.5 531 c 128,-1,31
 363 492 363 492 303 455 c 128,-1,32
 243 418 243 418 188.5 375.5 c 128,-1,33
 134 333 134 333 98 273 c 0,34,35
 95 269 95 269 90 265.5 c 128,-1,36
 85 262 85 262 80 261 c 128,-1,37
 75 260 75 260 70.5 262.5 c 128,-1,38
 66 265 66 265 64 273 c 0,10,11
EndSplineSet
EndChar

StartChar: at
Encoding: 64 64 35
Width: 667
GlyphClass: 2
Flags: W
LayerCount: 2
Fore
SplineSet
170 11 m 0,0,1
 107 29 107 29 72.5 69 c 128,-1,2
 38 109 38 109 26.5 162.5 c 128,-1,3
 15 216 15 216 23.5 279 c 128,-1,4
 32 342 32 342 55.5 405 c 128,-1,5
 79 468 79 468 114 527.5 c 128,-1,6
 149 587 149 587 190 634.5 c 128,-1,7
 231 682 231 682 276 712.5 c 128,-1,8
 321 743 321 743 363.5 748.5 c 128,-1,9
 406 754 406 754 444 730 c 128,-1,10
 482 706 482 706 509 644 c 0,11,12
 522 615 522 615 530 582.5 c 128,-1,13
 538 550 538 550 538 518 c 128,-1,14
 538 486 538 486 528.5 454.5 c 128,-1,15
 519 423 519 423 498 396 c 0,16,17
 483 376 483 376 463 354.5 c 128,-1,18
 443 333 443 333 420 315.5 c 128,-1,19
 397 298 397 298 371 288 c 128,-1,20
 345 278 345 278 317 282 c 0,21,22
 306 283 306 283 288 282 c 128,-1,23
 270 281 270 281 251.5 279.5 c 128,-1,24
 233 278 233 278 216.5 278 c 128,-1,25
 200 278 200 278 193 282 c 0,26,27
 153 302 153 302 147.5 333 c 128,-1,28
 142 364 142 364 158 395.5 c 128,-1,29
 174 427 174 427 204 455.5 c 128,-1,30
 234 484 234 484 264.5 500 c 128,-1,31
 295 516 295 516 320 514.5 c 128,-1,32
 345 513 345 513 350 486 c 0,33,34
 354 469 354 469 350.5 449.5 c 128,-1,35
 347 430 347 430 340.5 410.5 c 128,-1,36
 334 391 334 391 327 372.5 c 128,-1,37
 320 354 320 354 317 339 c 1,38,39
 321 331 321 331 326.5 329 c 128,-1,40
 332 327 332 327 338 328 c 128,-1,41
 344 329 344 329 350.5 332.5 c 128,-1,42
 357 336 357 336 362 339 c 0,43,44
 432 386 432 386 463.5 443.5 c 128,-1,45
 495 501 495 501 486 587 c 1,46,47
 481 648 481 648 455.5 673 c 128,-1,48
 430 698 430 698 393.5 695.5 c 128,-1,49
 357 693 357 693 314 666 c 128,-1,50
 271 639 271 639 229 596 c 128,-1,51
 187 553 187 553 151 497 c 128,-1,52
 115 441 115 441 93.5 379.5 c 128,-1,53
 72 318 72 318 69.5 255.5 c 128,-1,54
 67 193 67 193 91 136 c 0,55,56
 112 86 112 86 141.5 63.5 c 128,-1,57
 171 41 171 41 206 39 c 128,-1,58
 241 37 241 37 280 51 c 128,-1,59
 319 65 319 65 358.5 89 c 128,-1,60
 398 113 398 113 437.5 143 c 128,-1,61
 477 173 477 173 513 202.5 c 128,-1,62
 549 232 549 232 580 256.5 c 128,-1,63
 611 281 611 281 634 294 c 1,64,65
 640 257 640 257 617.5 219.5 c 128,-1,66
 595 182 595 182 555 147 c 128,-1,67
 515 112 515 112 462.5 83 c 128,-1,68
 410 54 410 54 356.5 34.5 c 128,-1,69
 303 15 303 15 253.5 8 c 128,-1,70
 204 1 204 1 170 11 c 0,0,1
204 373 m 0,71,72
 202 369 202 369 202 356 c 128,-1,73
 202 343 202 343 204 339 c 1,74,75
 223 328 223 328 237 341 c 128,-1,76
 251 354 251 354 260.5 375.5 c 128,-1,77
 270 397 270 397 275 420 c 128,-1,78
 280 443 280 443 282 452 c 1,79,80
 268 460 268 460 255 451.5 c 128,-1,81
 242 443 242 443 231.5 428 c 128,-1,82
 221 413 221 413 213.5 396.5 c 128,-1,83
 206 380 206 380 204 373 c 0,71,72
EndSplineSet
EndChar

StartChar: A
Encoding: 65 65 36
Width: 847
GlyphClass: 2
Flags: W
LayerCount: 2
Fore
SplineSet
-78 -185 m 0,0,1
 -81 -183 -81 -183 -87.5 -175.5 c 128,-1,2
 -94 -168 -94 -168 -98 -160 c 128,-1,3
 -102 -152 -102 -152 -101.5 -146 c 128,-1,4
 -101 -140 -101 -140 -90 -140 c 1,5,6
 -69 -169 -69 -169 -31 -162 c 128,-1,7
 7 -155 7 -155 51 -127.5 c 128,-1,8
 95 -100 95 -100 140.5 -58.5 c 128,-1,9
 186 -17 186 -17 222.5 24 c 128,-1,10
 259 65 259 65 282.5 98 c 128,-1,11
 306 131 306 131 306 142 c 0,12,13
 306 145 306 145 298 151.5 c 128,-1,14
 290 158 290 158 279.5 165 c 128,-1,15
 269 172 269 172 260 178 c 128,-1,16
 251 184 251 184 249 187 c 1,17,18
 252 197 252 197 268 202.5 c 128,-1,19
 284 208 284 208 304 212.5 c 128,-1,20
 324 217 324 217 343.5 221.5 c 128,-1,21
 363 226 363 226 373 233 c 1,22,23
 426 310 426 310 465.5 371.5 c 128,-1,24
 505 433 505 433 540.5 492.5 c 128,-1,25
 576 552 576 552 613 615 c 128,-1,26
 650 678 650 678 698 757 c 0,27,28
 711 779 711 779 719 772 c 128,-1,29
 727 765 727 765 731 738 c 128,-1,30
 735 711 735 711 736 669.5 c 128,-1,31
 737 628 737 628 736 580 c 128,-1,32
 735 532 735 532 732.5 482 c 128,-1,33
 730 432 730 432 727.5 390 c 128,-1,34
 725 348 725 348 723.5 317.5 c 128,-1,35
 722 287 722 287 723 278 c 0,36,37
 727 227 727 227 728.5 189.5 c 128,-1,38
 730 152 730 152 738 120.5 c 128,-1,39
 746 89 746 89 765.5 59.5 c 128,-1,40
 785 30 785 30 825 -5 c 1,41,42
 792 -16 792 -16 770.5 -3.5 c 128,-1,43
 749 9 749 9 735.5 34.5 c 128,-1,44
 722 60 722 60 713.5 93.5 c 128,-1,45
 705 127 705 127 697.5 158.5 c 128,-1,46
 690 190 690 190 680.5 213.5 c 128,-1,47
 671 237 671 237 655 244 c 0,48,49
 654 244 654 244 649.5 244.5 c 128,-1,50
 645 245 645 245 639.5 245 c 128,-1,51
 634 245 634 245 629 244.5 c 128,-1,52
 624 244 624 244 622 244 c 0,53,54
 613 242 613 242 588.5 236 c 128,-1,55
 564 230 564 230 535 223 c 128,-1,56
 506 216 506 216 479.5 209 c 128,-1,57
 453 202 453 202 441 199 c 0,58,59
 416 192 416 192 388.5 167 c 128,-1,60
 361 142 361 142 330.5 106.5 c 128,-1,61
 300 71 300 71 267.5 29 c 128,-1,62
 235 -13 235 -13 201 -53 c 128,-1,63
 167 -93 167 -93 132 -127 c 128,-1,64
 97 -161 97 -161 62 -182 c 128,-1,65
 27 -203 27 -203 -8.5 -205.5 c 128,-1,66
 -44 -208 -44 -208 -78 -185 c 0,0,1
464 255 m 1,67,68
 466 254 466 254 474.5 254 c 128,-1,69
 483 254 483 254 486 255 c 0,70,71
 504 258 504 258 531 262 c 128,-1,72
 558 266 558 266 585 271.5 c 128,-1,73
 612 277 612 277 635 284.5 c 128,-1,74
 658 292 658 292 667 301 c 1,75,76
 667 301 667 301 670 322 c 128,-1,77
 673 343 673 343 677 375.5 c 128,-1,78
 681 408 681 408 685.5 447.5 c 128,-1,79
 690 487 690 487 694 525 c 128,-1,80
 698 563 698 563 700.5 595.5 c 128,-1,81
 703 628 703 628 704 646 c 1,82,83
 693 651 693 651 675 620.5 c 128,-1,84
 657 590 657 590 628.5 537 c 128,-1,85
 600 484 600 484 559.5 413.5 c 128,-1,86
 519 343 519 343 464 267 c 1,87,-1
 464 255 l 1,67,68
EndSplineSet
EndChar

StartChar: B
Encoding: 66 66 37
Width: 718
GlyphClass: 2
Flags: W
LayerCount: 2
Fore
SplineSet
74 3 m 0,0,1
 44 20 44 20 32 36 c 128,-1,2
 20 52 20 52 20 70 c 128,-1,3
 20 88 20 88 29 110 c 128,-1,4
 38 132 38 132 50 161 c 0,5,6
 53 167 53 167 62 185.5 c 128,-1,7
 71 204 71 204 82.5 229 c 128,-1,8
 94 254 94 254 107.5 281.5 c 128,-1,9
 121 309 121 309 132.5 334 c 128,-1,10
 144 359 144 359 152.5 377.5 c 128,-1,11
 161 396 161 396 164 402 c 0,12,13
 177 430 177 430 175.5 451.5 c 128,-1,14
 174 473 174 473 170.5 492 c 128,-1,15
 167 511 167 511 167.5 529 c 128,-1,16
 168 547 168 547 186 570 c 0,17,18
 189 573 189 573 199 584 c 128,-1,19
 209 595 209 595 220.5 607.5 c 128,-1,20
 232 620 232 620 242 630.5 c 128,-1,21
 252 641 252 641 254 644 c 0,22,23
 259 650 259 650 282.5 664 c 128,-1,24
 306 678 306 678 340 694.5 c 128,-1,25
 374 711 374 711 415.5 728.5 c 128,-1,26
 457 746 457 746 498 759.5 c 128,-1,27
 539 773 539 773 577 780 c 128,-1,28
 615 787 615 787 642 784 c 128,-1,29
 669 781 669 781 681.5 765 c 128,-1,30
 694 749 694 749 685 716 c 0,31,32
 670 662 670 662 636.5 621 c 128,-1,33
 603 580 603 580 566 548 c 128,-1,34
 529 516 529 516 495.5 491 c 128,-1,35
 462 466 462 466 446 444 c 1,36,37
 566 440 566 440 621.5 415 c 128,-1,38
 677 390 677 390 684.5 352 c 128,-1,39
 692 314 692 314 660 267.5 c 128,-1,40
 628 221 628 221 572 175.5 c 128,-1,41
 516 130 516 130 445 89.5 c 128,-1,42
 374 49 374 49 303.5 23 c 128,-1,43
 233 -3 233 -3 171.5 -10 c 128,-1,44
 110 -17 110 -17 74 3 c 0,0,1
153 245 m 1,45,46
 134 222 134 222 118 194.5 c 128,-1,47
 102 167 102 167 93.5 140.5 c 128,-1,48
 85 114 85 114 86 90.5 c 128,-1,49
 87 67 87 67 101 52.5 c 128,-1,50
 115 38 115 38 143.5 35 c 128,-1,51
 172 32 172 32 220 46 c 1,52,53
 326 70 326 70 404.5 107 c 128,-1,54
 483 144 483 144 534.5 184.5 c 128,-1,55
 586 225 586 225 610.5 265 c 128,-1,56
 635 305 635 305 633.5 335.5 c 128,-1,57
 632 366 632 366 604.5 382 c 128,-1,58
 577 398 577 398 525 391.5 c 128,-1,59
 473 385 473 385 396.5 350.5 c 128,-1,60
 320 316 320 316 220 245 c 0,61,62
 209 236 209 236 200 236.5 c 128,-1,63
 191 237 191 237 183 240.5 c 128,-1,64
 175 244 175 244 168 247 c 128,-1,65
 161 250 161 250 153 245 c 1,45,46
175 329 m 1,66,67
 175 326 175 326 174.5 320 c 128,-1,68
 174 314 174 314 174 307.5 c 128,-1,69
 174 301 174 301 174.5 295 c 128,-1,70
 175 289 175 289 175 286 c 1,71,72
 183 288 183 288 208 305 c 128,-1,73
 233 322 233 322 268.5 349 c 128,-1,74
 304 376 304 376 346 410.5 c 128,-1,75
 388 445 388 445 430.5 482.5 c 128,-1,76
 473 520 473 520 511.5 557.5 c 128,-1,77
 550 595 550 595 578 628 c 128,-1,78
 606 661 606 661 620.5 686.5 c 128,-1,79
 635 712 635 712 629 726 c 1,80,81
 585 732 585 732 536.5 720.5 c 128,-1,82
 488 709 488 709 441.5 687 c 128,-1,83
 395 665 395 665 355 636.5 c 128,-1,84
 315 608 315 608 288 581 c 1,85,86
 282 568 282 568 268 535 c 128,-1,87
 254 502 254 502 237.5 465 c 128,-1,88
 221 428 221 428 206.5 395.5 c 128,-1,89
 192 363 192 363 186 350 c 0,90,91
 186 348 186 348 181 339.5 c 128,-1,92
 176 331 176 331 175 329 c 1,66,67
EndSplineSet
EndChar

StartChar: C
Encoding: 67 67 38
Width: 633
GlyphClass: 2
Flags: W
LayerCount: 2
Fore
SplineSet
107 11 m 0,0,1
 46 35 46 35 23 76 c 128,-1,2
 0 117 0 117 4.5 167.5 c 128,-1,3
 9 218 9 218 36.5 275.5 c 128,-1,4
 64 333 64 333 104.5 391 c 128,-1,5
 145 449 145 449 194 504 c 128,-1,6
 243 559 243 559 291 605 c 128,-1,7
 339 651 339 651 381 685 c 128,-1,8
 423 719 423 719 449 735 c 0,9,10
 485 757 485 757 509 756.5 c 128,-1,11
 533 756 533 756 547.5 741.5 c 128,-1,12
 562 727 562 727 567.5 701.5 c 128,-1,13
 573 676 573 676 572.5 647.5 c 128,-1,14
 572 619 572 619 566.5 590.5 c 128,-1,15
 561 562 561 562 552.5 541 c 128,-1,16
 544 520 544 520 534.5 510 c 128,-1,17
 525 500 525 500 516 509 c 1,18,19
 515 517 515 517 518 533.5 c 128,-1,20
 521 550 521 550 525.5 571 c 128,-1,21
 530 592 530 592 534 614 c 128,-1,22
 538 636 538 636 539.5 654.5 c 128,-1,23
 541 673 541 673 538.5 686 c 128,-1,24
 536 699 536 699 527 701 c 0,25,26
 492 710 492 710 443.5 684.5 c 128,-1,27
 395 659 395 659 342.5 611.5 c 128,-1,28
 290 564 290 564 238.5 501.5 c 128,-1,29
 187 439 187 439 145 373 c 128,-1,30
 103 307 103 307 76 244.5 c 128,-1,31
 49 182 49 182 45.5 134.5 c 128,-1,32
 42 87 42 87 66.5 61.5 c 128,-1,33
 91 36 91 36 153 45 c 0,34,35
 210 53 210 53 258.5 85.5 c 128,-1,36
 307 118 307 118 352.5 157.5 c 128,-1,37
 398 197 398 197 443 235.5 c 128,-1,38
 488 274 488 274 537 294 c 0,39,40
 555 301 555 301 565.5 289 c 128,-1,41
 576 277 576 277 571 260 c 0,42,43
 565 243 565 243 535.5 215 c 128,-1,44
 506 187 506 187 462.5 156.5 c 128,-1,45
 419 126 419 126 367 95.5 c 128,-1,46
 315 65 315 65 265.5 43 c 128,-1,47
 216 21 216 21 173.5 11 c 128,-1,48
 131 1 131 1 107 11 c 0,0,1
EndSplineSet
EndChar

StartChar: D
Encoding: 68 68 39
Width: 823
GlyphClass: 2
Flags: W
LayerCount: 2
Fore
SplineSet
23 11 m 0,0,1
 18 26 18 26 25 37.5 c 128,-1,2
 32 49 32 49 46 57 c 0,3,4
 108 88 108 88 167 109.5 c 128,-1,5
 226 131 226 131 283.5 152.5 c 128,-1,6
 341 174 341 174 398 200.5 c 128,-1,7
 455 227 455 227 514 269 c 1,8,9
 645 345 645 345 715 411 c 128,-1,10
 785 477 785 477 808 530.5 c 128,-1,11
 831 584 831 584 814 624.5 c 128,-1,12
 797 665 797 665 755 690 c 128,-1,13
 713 715 713 715 652.5 723.5 c 128,-1,14
 592 732 592 732 527 722 c 128,-1,15
 462 712 462 712 400 682.5 c 128,-1,16
 338 653 338 653 293 601 c 0,17,18
 292 599 292 599 290 594 c 128,-1,19
 288 589 288 589 286.5 583.5 c 128,-1,20
 285 578 285 578 283.5 572.5 c 128,-1,21
 282 567 282 567 282 566 c 0,22,23
 252 494 252 494 225.5 442.5 c 128,-1,24
 199 391 199 391 175.5 343.5 c 128,-1,25
 152 296 152 296 131 242.5 c 128,-1,26
 110 189 110 189 91 113 c 1,27,28
 73 107 73 107 65.5 114 c 128,-1,29
 58 121 58 121 57 135.5 c 128,-1,30
 56 150 56 150 60.5 169 c 128,-1,31
 65 188 65 188 71 206 c 128,-1,32
 77 224 77 224 83 239 c 128,-1,33
 89 254 89 254 91 260 c 0,34,35
 99 283 99 283 116 319.5 c 128,-1,36
 133 356 133 356 152 396 c 128,-1,37
 171 436 171 436 188 473 c 128,-1,38
 205 510 205 510 214 533 c 1,39,40
 205 562 205 562 210.5 584.5 c 128,-1,41
 216 607 216 607 230 625.5 c 128,-1,42
 244 644 244 644 264 659.5 c 128,-1,43
 284 675 284 675 304 690 c 0,44,45
 361 732 361 732 427 755 c 128,-1,46
 493 778 493 778 561.5 780.5 c 128,-1,47
 630 783 630 783 698 763 c 128,-1,48
 766 743 766 743 826 698 c 1,49,50
 874 658 874 658 882.5 611 c 128,-1,51
 891 564 891 564 869 514.5 c 128,-1,52
 847 465 847 465 800.5 414 c 128,-1,53
 754 363 754 363 692 314 c 128,-1,54
 630 265 630 265 557.5 219.5 c 128,-1,55
 485 174 485 174 412.5 135.5 c 128,-1,56
 340 97 340 97 271.5 67.5 c 128,-1,57
 203 38 203 38 149.5 21 c 128,-1,58
 96 4 96 4 62 0.5 c 128,-1,59
 28 -3 28 -3 23 11 c 0,0,1
EndSplineSet
EndChar

StartChar: E
Encoding: 69 69 40
Width: 746
GlyphClass: 2
Flags: W
LayerCount: 2
Fore
SplineSet
18 23 m 1,0,1
 12 28 12 28 21 34 c 1,2,3
 31 70 31 70 41.5 103 c 128,-1,4
 52 136 52 136 64 168.5 c 128,-1,5
 76 201 76 201 89.5 234.5 c 128,-1,6
 103 268 103 268 118 305 c 1,7,8
 123 314 123 314 116.5 323.5 c 128,-1,9
 110 333 110 333 101.5 342.5 c 128,-1,10
 93 352 93 352 89.5 362.5 c 128,-1,11
 86 373 86 373 97 384 c 0,12,13
 98 385 98 385 104.5 387 c 128,-1,14
 111 389 111 389 119 390.5 c 128,-1,15
 127 392 127 392 133.5 393.5 c 128,-1,16
 140 395 140 395 142 396 c 0,17,18
 145 398 145 398 153.5 406.5 c 128,-1,19
 162 415 162 415 164 418 c 0,20,21
 180 445 180 445 194.5 466 c 128,-1,22
 209 487 209 487 221.5 508 c 128,-1,23
 234 529 234 529 244 552 c 128,-1,24
 254 575 254 575 262 606 c 0,25,26
 265 618 265 618 256.5 621.5 c 128,-1,27
 248 625 248 625 237 628 c 128,-1,28
 226 631 226 631 219 637.5 c 128,-1,29
 212 644 212 644 218 662 c 0,30,31
 222 673 222 673 256.5 686 c 128,-1,32
 291 699 291 699 344 711 c 128,-1,33
 397 723 397 723 463 733 c 128,-1,34
 529 743 529 743 595 749 c 128,-1,35
 661 755 661 755 721 756.5 c 128,-1,36
 781 758 781 758 823 752.5 c 128,-1,37
 865 747 865 747 883 733.5 c 128,-1,38
 901 720 901 720 882 696 c 1,39,40
 873 694 873 694 863.5 695.5 c 128,-1,41
 854 697 854 697 844 700 c 128,-1,42
 834 703 834 703 823 705.5 c 128,-1,43
 812 708 812 708 802 707 c 0,44,45
 754 703 754 703 708 704 c 128,-1,46
 662 705 662 705 616 705 c 128,-1,47
 570 705 570 705 524 701.5 c 128,-1,48
 478 698 478 698 432 685 c 0,49,50
 400 676 400 676 375 653.5 c 128,-1,51
 350 631 350 631 327.5 596.5 c 128,-1,52
 305 562 305 562 282.5 517 c 128,-1,53
 260 472 260 472 232 418 c 1,54,55
 243 415 243 415 273.5 422 c 128,-1,56
 304 429 304 429 343.5 439.5 c 128,-1,57
 383 450 383 450 427 460.5 c 128,-1,58
 471 471 471 471 509.5 475.5 c 128,-1,59
 548 480 548 480 577 475.5 c 128,-1,60
 606 471 606 471 616 452 c 0,61,62
 617 450 617 450 617 446 c 128,-1,63
 617 442 617 442 616 441 c 0,64,65
 563 433 563 433 506.5 426.5 c 128,-1,66
 450 420 450 420 394.5 410 c 128,-1,67
 339 400 339 400 286 383.5 c 128,-1,68
 233 367 233 367 186 339 c 1,69,70
 148 272 148 272 118 201 c 128,-1,71
 88 130 88 130 65 57 c 1,72,73
 94 67 94 67 132.5 76.5 c 128,-1,74
 171 86 171 86 206.5 94 c 128,-1,75
 242 102 242 102 268.5 107 c 128,-1,76
 295 112 295 112 300 113 c 0,77,78
 385 126 385 126 463.5 133.5 c 128,-1,79
 542 141 542 141 627 136 c 1,80,81
 634 134 634 134 637 128 c 128,-1,82
 640 122 640 122 641 114.5 c 128,-1,83
 642 107 642 107 641 100 c 128,-1,84
 640 93 640 93 639 90 c 1,85,86
 530 96 530 96 422.5 82 c 128,-1,87
 315 68 315 68 209 45 c 0,88,89
 192 41 192 41 167.5 31 c 128,-1,90
 143 21 143 21 117.5 13 c 128,-1,91
 92 5 92 5 68.5 2 c 128,-1,92
 45 -1 45 -1 29 10 c 0,93,94
 25 12 25 12 22 15 c 128,-1,95
 19 18 19 18 18 23 c 1,0,1
EndSplineSet
EndChar

StartChar: F
Encoding: 70 70 41
Width: 744
GlyphClass: 2
Flags: W
LayerCount: 2
Fore
SplineSet
18 11 m 0,0,1
 13 25 13 25 15.5 39.5 c 128,-1,2
 18 54 18 54 24 69 c 128,-1,3
 30 84 30 84 37.5 98 c 128,-1,4
 45 112 45 112 50 125 c 1,5,6
 55 135 55 135 66.5 160.5 c 128,-1,7
 78 186 78 186 90.5 214.5 c 128,-1,8
 103 243 103 243 114 269 c 128,-1,9
 125 295 125 295 130 305 c 0,10,11
 136 317 136 317 128.5 326.5 c 128,-1,12
 121 336 121 336 112.5 345 c 128,-1,13
 104 354 104 354 99.5 363 c 128,-1,14
 95 372 95 372 107 384 c 0,15,16
 114 391 114 391 125 393 c 128,-1,17
 136 395 136 395 148 396.5 c 128,-1,18
 160 398 160 398 170 402 c 128,-1,19
 180 406 180 406 186 418 c 2,20,-1
 300 634 l 1,21,22
 293 661 293 661 295.5 679 c 128,-1,23
 298 697 298 697 307.5 710 c 128,-1,24
 317 723 317 723 332.5 734 c 128,-1,25
 348 745 348 745 368 759 c 1,26,27
 471 775 471 775 570.5 786 c 128,-1,28
 670 797 670 797 775 792 c 0,29,30
 781 791 781 791 790 783.5 c 128,-1,31
 799 776 799 776 805 766.5 c 128,-1,32
 811 757 811 757 810.5 748 c 128,-1,33
 810 739 810 739 797 736 c 0,34,35
 796 736 796 736 791 737.5 c 128,-1,36
 786 739 786 739 780 741 c 128,-1,37
 774 743 774 743 769 745 c 128,-1,38
 764 747 764 747 763 747 c 0,39,40
 683 747 683 747 624 745 c 128,-1,41
 565 743 565 743 521.5 736.5 c 128,-1,42
 478 730 478 730 446.5 717 c 128,-1,43
 415 704 415 704 390.5 681.5 c 128,-1,44
 366 659 366 659 344.5 625 c 128,-1,45
 323 591 323 591 300 542 c 1,46,47
 289 521 289 521 280 502 c 0,48,49
 272 485 272 485 267 468.5 c 128,-1,50
 262 452 262 452 266 441 c 1,51,52
 322 431 322 431 379.5 443 c 128,-1,53
 437 455 437 455 495 472 c 128,-1,54
 553 489 553 489 611.5 502.5 c 128,-1,55
 670 516 670 516 729 509 c 1,56,-1
 729 486 l 2,57,58
 729 484 729 484 692 477.5 c 128,-1,59
 655 471 655 471 597.5 459.5 c 128,-1,60
 540 448 540 448 471.5 431.5 c 128,-1,61
 403 415 403 415 340 393 c 128,-1,62
 277 371 277 371 229 343 c 128,-1,63
 181 315 181 315 164 282 c 0,64,65
 132 217 132 217 103 148.5 c 128,-1,66
 74 80 74 80 50 11 c 1,67,68
 44 2 44 2 33.5 0 c 128,-1,69
 23 -2 23 -2 18 11 c 0,0,1
EndSplineSet
EndChar

StartChar: G
Encoding: 71 71 42
Width: 608
GlyphClass: 2
Flags: W
LayerCount: 2
Fore
SplineSet
74 11 m 0,0,1
 30 44 30 44 14 92 c 128,-1,2
 -2 140 -2 140 4 196.5 c 128,-1,3
 10 253 10 253 34 314.5 c 128,-1,4
 58 376 58 376 93.5 435 c 128,-1,5
 129 494 129 494 173.5 547.5 c 128,-1,6
 218 601 218 601 264.5 641.5 c 128,-1,7
 311 682 311 682 356.5 706.5 c 128,-1,8
 402 731 402 731 440 733 c 1,9,10
 458 738 458 738 476.5 732 c 128,-1,11
 495 726 495 726 510 713.5 c 128,-1,12
 525 701 525 701 535 684 c 128,-1,13
 545 667 545 667 548 650.5 c 128,-1,14
 551 634 551 634 544 619.5 c 128,-1,15
 537 605 537 605 518 598 c 0,16,17
 515 596 515 596 508.5 596 c 128,-1,18
 502 596 502 596 502 598 c 2,19,-1
 502 677 l 2,20,21
 502 679 502 679 497 681.5 c 128,-1,22
 492 684 492 684 485.5 685.5 c 128,-1,23
 479 687 479 687 472.5 688 c 128,-1,24
 466 689 466 689 462 688 c 0,25,26
 363 663 363 663 292.5 604 c 128,-1,27
 222 545 222 545 175 464 c 0,28,29
 108 347 108 347 77.5 269 c 128,-1,30
 47 191 47 191 43.5 145 c 128,-1,31
 40 99 40 99 60 80.5 c 128,-1,32
 80 62 80 62 114 64 c 128,-1,33
 148 66 148 66 193 84.5 c 128,-1,34
 238 103 238 103 284.5 130.5 c 128,-1,35
 331 158 331 158 375 191.5 c 128,-1,36
 419 225 419 225 452 256 c 128,-1,37
 485 287 485 287 502.5 312.5 c 128,-1,38
 520 338 520 338 514 350 c 1,39,40
 498 353 498 353 479 348.5 c 128,-1,41
 460 344 460 344 446 339 c 0,42,43
 437 336 437 336 412.5 328 c 128,-1,44
 388 320 388 320 361 311 c 128,-1,45
 334 302 334 302 310 294 c 128,-1,46
 286 286 286 286 277 282 c 0,47,48
 263 277 263 277 253.5 284.5 c 128,-1,49
 244 292 244 292 240.5 303.5 c 128,-1,50
 237 315 237 315 240 325.5 c 128,-1,51
 243 336 243 336 254 339 c 0,52,53
 270 342 270 342 310.5 356.5 c 128,-1,54
 351 371 351 371 402 388.5 c 128,-1,55
 453 406 453 406 507 423 c 128,-1,56
 561 440 561 440 602 448 c 128,-1,57
 643 456 643 456 664.5 450.5 c 128,-1,58
 686 445 686 445 673 418 c 1,59,60
 664 408 664 408 640 383.5 c 128,-1,61
 616 359 616 359 589 332 c 128,-1,62
 562 305 562 305 537.5 281 c 128,-1,63
 513 257 513 257 503 248 c 0,64,65
 499 245 499 245 480.5 229 c 128,-1,66
 462 213 462 213 438.5 193.5 c 128,-1,67
 415 174 415 174 392 154.5 c 128,-1,68
 369 135 369 135 356 125 c 0,69,70
 343 114 343 114 323 97 c 128,-1,71
 303 80 303 80 278.5 62.5 c 128,-1,72
 254 45 254 45 227 29.5 c 128,-1,73
 200 14 200 14 173 5 c 128,-1,74
 146 -4 146 -4 120.5 -4 c 128,-1,75
 95 -4 95 -4 74 11 c 0,0,1
EndSplineSet
EndChar

StartChar: H
Encoding: 72 72 43
Width: 709
GlyphClass: 2
Flags: W
LayerCount: 2
Fore
SplineSet
34 11 m 0,0,1
 24 26 24 26 26.5 59 c 128,-1,2
 29 92 29 92 39.5 133.5 c 128,-1,3
 50 175 50 175 66 220.5 c 128,-1,4
 82 266 82 266 98 307.5 c 128,-1,5
 114 349 114 349 127.5 382 c 128,-1,6
 141 415 141 415 147 430 c 0,7,8
 154 445 154 445 165.5 472.5 c 128,-1,9
 177 500 177 500 190.5 532.5 c 128,-1,10
 204 565 204 565 219 601 c 128,-1,11
 234 637 234 637 247.5 670 c 128,-1,12
 261 703 261 703 272.5 730 c 128,-1,13
 284 757 284 757 291 773 c 1,14,15
 313 780 313 780 320 771.5 c 128,-1,16
 327 763 327 763 324 743 c 128,-1,17
 321 723 321 723 310 694.5 c 128,-1,18
 299 666 299 666 284.5 633.5 c 128,-1,19
 270 601 270 601 254.5 567 c 128,-1,20
 239 533 239 533 226.5 502.5 c 128,-1,21
 214 472 214 472 207.5 447 c 128,-1,22
 201 422 201 422 204 407 c 1,23,24
 222 405 222 405 245.5 407 c 128,-1,25
 269 409 269 409 293.5 413 c 128,-1,26
 318 417 318 417 342 422 c 128,-1,27
 366 427 366 427 384 430 c 0,28,29
 475 445 475 445 529.5 473 c 128,-1,30
 584 501 584 501 620.5 544.5 c 128,-1,31
 657 588 657 588 684 649 c 128,-1,32
 711 710 711 710 746 791 c 1,33,34
 755 808 755 808 762 805.5 c 128,-1,35
 769 803 769 803 773.5 791.5 c 128,-1,36
 778 780 778 780 780 766 c 128,-1,37
 782 752 782 752 780 746 c 0,38,39
 779 743 779 743 774 733 c 128,-1,40
 769 723 769 723 763 711.5 c 128,-1,41
 757 700 757 700 752 690.5 c 128,-1,42
 747 681 747 681 746 678 c 0,43,44
 744 674 744 674 741 664.5 c 128,-1,45
 738 655 738 655 734 644 c 128,-1,46
 730 633 730 633 727 623.5 c 128,-1,47
 724 614 724 614 723 610 c 1,48,49
 728 609 728 609 736.5 600.5 c 128,-1,50
 745 592 745 592 746 587 c 0,51,52
 749 570 749 570 735 548.5 c 128,-1,53
 721 527 721 527 700.5 504 c 128,-1,54
 680 481 680 481 660.5 459 c 128,-1,55
 641 437 641 437 634 418 c 0,56,57
 593 318 593 318 563.5 218 c 128,-1,58
 534 118 534 118 520 11 c 1,59,60
 517 6 517 6 511 1 c 128,-1,61
 505 -4 505 -4 498 0 c 1,62,63
 496 22 496 22 501.5 60.5 c 128,-1,64
 507 99 507 99 516 144.5 c 128,-1,65
 525 190 525 190 536 237 c 128,-1,66
 547 284 547 284 556.5 323.5 c 128,-1,67
 566 363 566 363 572 389 c 128,-1,68
 578 415 578 415 577 418 c 1,69,70
 556 422 556 422 523 419.5 c 128,-1,71
 490 417 490 417 451 410.5 c 128,-1,72
 412 404 412 404 370 395 c 128,-1,73
 328 386 328 386 288.5 375.5 c 128,-1,74
 249 365 249 365 215 355.5 c 128,-1,75
 181 346 181 346 159 339 c 1,76,77
 142 301 142 301 131 255.5 c 128,-1,78
 120 210 120 210 108.5 164 c 128,-1,79
 97 118 97 118 83 75.5 c 128,-1,80
 69 33 69 33 46 0 c 1,81,82
 44 1 44 1 39.5 5 c 128,-1,83
 35 9 35 9 34 11 c 0,0,1
EndSplineSet
EndChar

StartChar: I
Encoding: 73 73 44
Width: 220
GlyphClass: 2
Flags: W
LayerCount: 2
Fore
SplineSet
11 34 m 0,0,1
 9 41 9 41 10.5 53.5 c 128,-1,2
 12 66 12 66 14.5 79 c 128,-1,3
 17 92 17 92 20 102 c 128,-1,4
 23 112 23 112 23 113 c 2,5,-1
 249 701 l 2,6,7
 256 719 256 719 262 714.5 c 128,-1,8
 268 710 268 710 271.5 695.5 c 128,-1,9
 275 681 275 681 275 662.5 c 128,-1,10
 275 644 275 644 271 633 c 0,11,12
 239 557 239 557 206.5 480.5 c 128,-1,13
 174 404 174 404 144.5 326.5 c 128,-1,14
 115 249 115 249 89 170.5 c 128,-1,15
 63 92 63 92 45 11 c 1,16,17
 37 6 37 6 31.5 7 c 128,-1,18
 26 8 26 8 21.5 12.5 c 128,-1,19
 17 17 17 17 14.5 23 c 128,-1,20
 12 29 12 29 11 34 c 0,0,1
EndSplineSet
EndChar

StartChar: J
Encoding: 74 74 45
Width: 622
GlyphClass: 2
Flags: W
LayerCount: 2
Fore
SplineSet
85 11 m 0,0,1
 75 16 75 16 61.5 31 c 128,-1,2
 48 46 48 46 36 65 c 128,-1,3
 24 84 24 84 14.5 105.5 c 128,-1,4
 5 127 5 127 2.5 145.5 c 128,-1,5
 0 164 0 164 5.5 176.5 c 128,-1,6
 11 189 11 189 29 192 c 1,7,8
 30 178 30 178 32 156 c 128,-1,9
 34 134 34 134 41 113 c 128,-1,10
 48 92 48 92 61 75.5 c 128,-1,11
 74 59 74 59 97 57 c 0,12,13
 162 52 162 52 209.5 78.5 c 128,-1,14
 257 105 257 105 292 151 c 128,-1,15
 327 197 327 197 351 256.5 c 128,-1,16
 375 316 375 316 393.5 378 c 128,-1,17
 412 440 412 440 427 498 c 128,-1,18
 442 556 442 556 458 599 c 1,19,20
 468 636 468 636 457 648.5 c 128,-1,21
 446 661 446 661 422 659 c 128,-1,22
 398 657 398 657 365.5 645.5 c 128,-1,23
 333 634 333 634 301 622.5 c 128,-1,24
 269 611 269 611 241 605.5 c 128,-1,25
 213 600 213 600 198 610 c 0,26,27
 177 624 177 624 184 637.5 c 128,-1,28
 191 651 191 651 217 663.5 c 128,-1,29
 243 676 243 676 284.5 687 c 128,-1,30
 326 698 326 698 373.5 708 c 128,-1,31
 421 718 421 718 470.5 726.5 c 128,-1,32
 520 735 520 735 563 741 c 128,-1,33
 606 747 606 747 638.5 751 c 128,-1,34
 671 755 671 755 684 757 c 0,35,36
 701 759 701 759 731 762.5 c 128,-1,37
 761 766 761 766 792 770 c 128,-1,38
 823 774 823 774 847 776.5 c 128,-1,39
 871 779 871 779 876 779 c 0,40,41
 895 780 895 780 923.5 781 c 128,-1,42
 952 782 952 782 979 782 c 128,-1,43
 1006 782 1006 782 1026 781 c 128,-1,44
 1046 780 1046 780 1046 779 c 2,45,-1
 1057 746 l 1,46,47
 1030 744 1030 744 984 742.5 c 128,-1,48
 938 741 938 741 883 738 c 128,-1,49
 828 735 828 735 769 729.5 c 128,-1,50
 710 724 710 724 659 714.5 c 128,-1,51
 608 705 608 705 569 690.5 c 128,-1,52
 530 676 530 676 514 655 c 1,53,54
 506 632 506 632 495 587 c 128,-1,55
 484 542 484 542 468 484.5 c 128,-1,56
 452 427 452 427 431.5 362.5 c 128,-1,57
 411 298 411 298 385.5 237 c 128,-1,58
 360 176 360 176 329 123.5 c 128,-1,59
 298 71 298 71 260.5 37.5 c 128,-1,60
 223 4 223 4 179.5 -5.5 c 128,-1,61
 136 -15 136 -15 85 11 c 0,0,1
EndSplineSet
EndChar

StartChar: K
Encoding: 75 75 46
Width: 795
GlyphClass: 2
Flags: W
LayerCount: 2
Fore
SplineSet
712 -92 m 0,0,1
 680 -41 680 -41 648.5 1 c 128,-1,2
 617 43 617 43 583 82.5 c 128,-1,3
 549 122 549 122 511.5 162 c 128,-1,4
 474 202 474 202 430 247 c 0,5,6
 367 313 367 313 325.5 345 c 128,-1,7
 284 377 284 377 256.5 382 c 128,-1,8
 229 387 229 387 211 366.5 c 128,-1,9
 193 346 193 346 176 306.5 c 128,-1,10
 159 267 159 267 140 211 c 128,-1,11
 121 155 121 155 91 89 c 0,12,13
 81 68 81 68 68.5 40.5 c 128,-1,14
 56 13 56 13 34 -2 c 0,15,16
 17 -13 17 -13 19 8.5 c 128,-1,17
 21 30 21 30 35 70 c 128,-1,18
 49 110 49 110 70.5 160.5 c 128,-1,19
 92 211 92 211 113 258 c 128,-1,20
 134 305 134 305 150 339.5 c 128,-1,21
 166 374 166 374 170 382 c 0,22,23
 194 439 194 439 219 486.5 c 128,-1,24
 244 534 244 534 268.5 580 c 128,-1,25
 293 626 293 626 316.5 674 c 128,-1,26
 340 722 340 722 360 780 c 1,27,28
 369 786 369 786 376 783.5 c 128,-1,29
 383 781 383 781 388 775 c 128,-1,30
 393 769 393 769 394.5 760.5 c 128,-1,31
 396 752 396 752 394 746 c 0,32,33
 388 734 388 734 375.5 708.5 c 128,-1,34
 363 683 363 683 349.5 655.5 c 128,-1,35
 336 628 336 628 324 602.5 c 128,-1,36
 312 577 312 577 306 564 c 0,37,38
 304 559 304 559 298 543.5 c 128,-1,39
 292 528 292 528 294 518 c 1,40,41
 323 512 323 512 366.5 523 c 128,-1,42
 410 534 410 534 460.5 555 c 128,-1,43
 511 576 511 576 565.5 603.5 c 128,-1,44
 620 631 620 631 669.5 658 c 128,-1,45
 719 685 719 685 759.5 708.5 c 128,-1,46
 800 732 800 732 825 744 c 0,47,48
 849 756 849 756 850 748 c 128,-1,49
 851 740 851 740 839.5 724 c 128,-1,50
 828 708 828 708 810.5 690.5 c 128,-1,51
 793 673 793 673 780 666 c 0,52,53
 770 660 770 660 750 649.5 c 128,-1,54
 730 639 730 639 708 628.5 c 128,-1,55
 686 618 686 618 668 609 c 128,-1,56
 650 600 650 600 644 598 c 0,57,58
 617 586 617 586 576 571 c 128,-1,59
 535 556 535 556 490.5 539 c 128,-1,60
 446 522 446 522 402.5 502.5 c 128,-1,61
 359 483 359 483 328 462 c 0,62,63
 320 456 320 456 314 450 c 0,64,65
 309 445 309 445 305.5 439 c 128,-1,66
 302 433 302 433 306 428 c 1,67,68
 321 419 321 419 352 392 c 128,-1,69
 383 365 383 365 422 328 c 128,-1,70
 461 291 461 291 504.5 246 c 128,-1,71
 548 201 548 201 589 155 c 128,-1,72
 630 109 630 109 664 65 c 128,-1,73
 698 21 698 21 718.5 -14.5 c 128,-1,74
 739 -50 739 -50 742 -74 c 128,-1,75
 745 -98 745 -98 723 -103 c 1,76,77
 721 -102 721 -102 717.5 -98 c 128,-1,78
 714 -94 714 -94 712 -92 c 0,0,1
EndSplineSet
EndChar

StartChar: L
Encoding: 76 76 47
Width: 701
GlyphClass: 2
Flags: W
LayerCount: 2
Fore
SplineSet
29 11 m 0,0,1
 13 22 13 22 16 44 c 128,-1,2
 19 66 19 66 30 89 c 1,3,4
 41 115 41 115 62 146 c 1,5,6
 94 207 94 207 119.5 255.5 c 128,-1,7
 145 304 145 304 167 347 c 128,-1,8
 189 390 189 390 209 430 c 128,-1,9
 229 470 229 470 249.5 514 c 128,-1,10
 270 558 270 558 292 608 c 128,-1,11
 314 658 314 658 341 722 c 0,12,13
 343 726 343 726 347.5 733.5 c 128,-1,14
 352 741 352 741 358.5 745.5 c 128,-1,15
 365 750 365 750 372 748.5 c 128,-1,16
 379 747 379 747 386 734 c 0,17,18
 396 714 396 714 387.5 679 c 128,-1,19
 379 644 379 644 358 598.5 c 128,-1,20
 337 553 337 553 308 500.5 c 128,-1,21
 279 448 279 448 247 394 c 128,-1,22
 215 340 215 340 184 287 c 128,-1,23
 153 234 153 234 129.5 188 c 128,-1,24
 106 142 106 142 93.5 104.5 c 128,-1,25
 81 67 81 67 85 45 c 1,26,27
 156 38 156 38 228 46 c 128,-1,28
 300 54 300 54 372 65.5 c 128,-1,29
 444 77 444 77 516.5 86 c 128,-1,30
 589 95 589 95 661 90 c 1,31,32
 674 92 674 92 683 81 c 128,-1,33
 692 70 692 70 684 57 c 1,34,35
 682 57 682 57 675.5 57.5 c 128,-1,36
 669 58 669 58 662 58 c 128,-1,37
 655 58 655 58 648.5 57.5 c 128,-1,38
 642 57 642 57 639 57 c 0,39,40
 583 52 583 52 508 39.5 c 128,-1,41
 433 27 433 27 353 16 c 128,-1,42
 273 5 273 5 193.5 -1 c 128,-1,43
 114 -7 114 -7 50 0 c 0,44,45
 49 0 49 0 40.5 4.5 c 128,-1,46
 32 9 32 9 29 11 c 0,0,1
EndSplineSet
EndChar

StartChar: M
Encoding: 77 77 48
Width: 1014
GlyphClass: 2
Flags: W
LayerCount: 2
Fore
SplineSet
756 -67 m 0,0,1
 755 -66 755 -66 755 -61.5 c 128,-1,2
 755 -57 755 -57 756 -55 c 256,3,4
 757 -53 757 -53 760 -43 c 128,-1,5
 763 -33 763 -33 767 -22 c 128,-1,6
 771 -11 771 -11 774 -1 c 128,-1,7
 777 9 777 9 778 12 c 0,8,9
 807 105 807 105 829 178.5 c 128,-1,10
 851 252 851 252 871 322 c 128,-1,11
 891 392 891 392 910.5 466.5 c 128,-1,12
 930 541 930 541 954 636 c 1,13,-1
 954 658 l 1,14,15
 925 668 925 668 891.5 656 c 128,-1,16
 858 644 858 644 823 617 c 128,-1,17
 788 590 788 590 752 552.5 c 128,-1,18
 716 515 716 515 682 473.5 c 128,-1,19
 648 432 648 432 616 391.5 c 128,-1,20
 584 351 584 351 557 317.5 c 128,-1,21
 530 284 530 284 508.5 262.5 c 128,-1,22
 487 241 487 241 474 238 c 0,23,24
 465 236 465 236 452 240.5 c 128,-1,25
 439 245 439 245 439 250 c 2,26,-1
 439 318 l 1,27,28
 442 329 442 329 447.5 353 c 128,-1,29
 453 377 453 377 459.5 407 c 128,-1,30
 466 437 466 437 473.5 470 c 128,-1,31
 481 503 481 503 487.5 533 c 128,-1,32
 494 563 494 563 499 586.5 c 128,-1,33
 504 610 504 610 507 622 c 0,34,35
 512 645 512 645 516.5 667 c 128,-1,36
 521 689 521 689 518 713 c 1,37,38
 488 723 488 723 454 697.5 c 128,-1,39
 420 672 420 672 384.5 623 c 128,-1,40
 349 574 349 574 313 509 c 128,-1,41
 277 444 277 444 243 375 c 128,-1,42
 209 306 209 306 177.5 239 c 128,-1,43
 146 172 146 172 120 120.5 c 128,-1,44
 94 69 94 69 74.5 38.5 c 128,-1,45
 55 8 55 8 44 12 c 0,46,47
 30 16 30 16 33.5 45 c 128,-1,48
 37 74 37 74 53 118.5 c 128,-1,49
 69 163 69 163 94 219.5 c 128,-1,50
 119 276 119 276 148.5 336 c 128,-1,51
 178 396 178 396 209 456 c 128,-1,52
 240 516 240 516 268 567 c 128,-1,53
 296 618 296 618 317.5 656.5 c 128,-1,54
 339 695 339 695 349 713 c 1,55,56
 370 705 370 705 386 707.5 c 128,-1,57
 402 710 402 710 416 718 c 128,-1,58
 430 726 430 726 443.5 737 c 128,-1,59
 457 748 457 748 474 758 c 0,60,61
 510 780 510 780 531 777 c 128,-1,62
 552 774 552 774 561.5 755 c 128,-1,63
 571 736 571 736 571 703.5 c 128,-1,64
 571 671 571 671 566 633 c 128,-1,65
 561 595 561 595 552.5 555.5 c 128,-1,66
 544 516 544 516 536 482.5 c 128,-1,67
 528 449 528 449 522.5 425.5 c 128,-1,68
 517 402 517 402 518 396 c 1,69,70
 526 392 526 392 531.5 397 c 128,-1,71
 537 402 537 402 541 407 c 0,72,73
 544 412 544 412 555.5 426 c 128,-1,74
 567 440 567 440 582 458.5 c 128,-1,75
 597 477 597 477 614 498 c 128,-1,76
 631 519 631 519 646.5 537.5 c 128,-1,77
 662 556 662 556 673 570 c 128,-1,78
 684 584 684 584 688 589 c 1,79,80
 775 658 775 658 835.5 691.5 c 128,-1,81
 896 725 896 725 933.5 729 c 128,-1,82
 971 733 971 733 988 711 c 128,-1,83
 1005 689 1005 689 1006 648.5 c 128,-1,84
 1007 608 1007 608 994 551.5 c 128,-1,85
 981 495 981 495 959 430 c 0,86,87
 956 421 956 421 947.5 392.5 c 128,-1,88
 939 364 939 364 927 325.5 c 128,-1,89
 915 287 915 287 902.5 244 c 128,-1,90
 890 201 890 201 878 162.5 c 128,-1,91
 866 124 866 124 857.5 95.5 c 128,-1,92
 849 67 849 67 846 58 c 0,93,94
 846 57 846 57 844 45 c 128,-1,95
 842 33 842 33 837.5 16.5 c 128,-1,96
 833 0 833 0 827 -18.5 c 128,-1,97
 821 -37 821 -37 812 -52 c 128,-1,98
 803 -67 803 -67 791.5 -75 c 128,-1,99
 780 -83 780 -83 766 -78 c 0,100,101
 765 -78 765 -78 761 -73.5 c 128,-1,102
 757 -69 757 -69 756 -67 c 0,0,1
EndSplineSet
EndChar

StartChar: N
Encoding: 78 78 49
Width: 830
GlyphClass: 2
Flags: W
LayerCount: 2
Fore
SplineSet
11 23 m 0,0,1
 18 54 18 54 35.5 92 c 128,-1,2
 53 130 53 130 74 167 c 128,-1,3
 95 204 95 204 115 237.5 c 128,-1,4
 135 271 135 271 147 294 c 0,5,6
 153 306 153 306 165.5 330.5 c 128,-1,7
 178 355 178 355 193.5 386.5 c 128,-1,8
 209 418 209 418 226.5 452 c 128,-1,9
 244 486 244 486 259.5 517.5 c 128,-1,10
 275 549 275 549 287.5 573.5 c 128,-1,11
 300 598 300 598 306 610 c 1,12,13
 337 642 337 642 357.5 628 c 128,-1,14
 378 614 378 614 394 571 c 128,-1,15
 410 528 410 528 423 465 c 128,-1,16
 436 402 436 402 451 336 c 128,-1,17
 466 270 466 270 485 210 c 128,-1,18
 504 150 504 150 531 113 c 1,19,20
 544 107 544 107 562.5 126 c 128,-1,21
 581 145 581 145 603 181.5 c 128,-1,22
 625 218 625 218 649 267 c 128,-1,23
 673 316 673 316 697.5 370 c 128,-1,24
 722 424 722 424 745 479 c 128,-1,25
 768 534 768 534 788 580.5 c 128,-1,26
 808 627 808 627 822.5 662 c 128,-1,27
 837 697 837 697 845 711 c 0,28,29
 852 724 852 724 859.5 723.5 c 128,-1,30
 867 723 867 723 872 715.5 c 128,-1,31
 877 708 877 708 879.5 696.5 c 128,-1,32
 882 685 882 685 879 676 c 0,33,34
 847 589 847 589 819 519 c 128,-1,35
 791 449 791 449 761.5 384 c 128,-1,36
 732 319 732 319 698.5 251.5 c 128,-1,37
 665 184 665 184 622 102 c 1,38,39
 590 63 590 63 560 58.5 c 128,-1,40
 530 54 530 54 498 102 c 1,41,42
 465 160 465 160 446 212 c 128,-1,43
 427 264 427 264 413.5 314.5 c 128,-1,44
 400 365 400 365 389 417.5 c 128,-1,45
 378 470 378 470 362 531 c 1,46,47
 353 537 353 537 332 510 c 128,-1,48
 311 483 311 483 283.5 438 c 128,-1,49
 256 393 256 393 226 337 c 128,-1,50
 196 281 196 281 169 229 c 128,-1,51
 142 177 142 177 121 136 c 128,-1,52
 100 95 100 95 91 79 c 0,53,54
 86 70 86 70 78.5 57 c 128,-1,55
 71 44 71 44 63.5 31 c 128,-1,56
 56 18 56 18 50.5 9 c 128,-1,57
 45 0 45 0 45 0 c 1,58,-1
 11 0 l 1,59,60
 10 2 10 2 10 11 c 128,-1,61
 10 20 10 20 11 23 c 0,0,1
EndSplineSet
EndChar

StartChar: O
Encoding: 79 79 50
Width: 527
GlyphClass: 2
Flags: W
LayerCount: 2
Fore
SplineSet
97 11 m 0,0,1
 47 32 47 32 31 69.5 c 128,-1,2
 15 107 15 107 20 150.5 c 128,-1,3
 25 194 25 194 44.5 238 c 128,-1,4
 64 282 64 282 85 316 c 0,5,6
 92 328 92 328 111 357 c 128,-1,7
 130 386 130 386 151.5 418.5 c 128,-1,8
 173 451 173 451 192.5 479.5 c 128,-1,9
 212 508 212 508 220 519 c 1,10,11
 232 596 232 596 268 641.5 c 128,-1,12
 304 687 304 687 349.5 704 c 128,-1,13
 395 721 395 721 443 711.5 c 128,-1,14
 491 702 491 702 527 668.5 c 128,-1,15
 563 635 563 635 579 579 c 128,-1,16
 595 523 595 523 576.5 448 c 128,-1,17
 558 373 558 373 498 280 c 128,-1,18
 438 187 438 187 322 79 c 0,19,20
 302 60 302 60 274.5 42.5 c 128,-1,21
 247 25 247 25 216.5 14 c 128,-1,22
 186 3 186 3 155 1 c 128,-1,23
 124 -1 124 -1 97 11 c 0,0,1
62 90 m 0,24,25
 72 45 72 45 100 34 c 128,-1,26
 128 23 128 23 166 38 c 128,-1,27
 204 53 204 53 249 89 c 128,-1,28
 294 125 294 125 339 173.5 c 128,-1,29
 384 222 384 222 425 279 c 128,-1,30
 466 336 466 336 496.5 392 c 128,-1,31
 527 448 527 448 543 499 c 128,-1,32
 559 550 559 550 553.5 587.5 c 128,-1,33
 548 625 548 625 517.5 644 c 128,-1,34
 487 663 487 663 424 655 c 1,35,36
 401 635 401 635 363 596.5 c 128,-1,37
 325 558 325 558 282 509 c 128,-1,38
 239 460 239 460 196 403.5 c 128,-1,39
 153 347 153 347 120 291 c 128,-1,40
 87 235 87 235 70 183 c 128,-1,41
 53 131 53 131 62 90 c 0,24,25
EndSplineSet
EndChar

StartChar: P
Encoding: 80 80 51
Width: 608
GlyphClass: 2
Flags: W
LayerCount: 2
Fore
SplineSet
23 23 m 0,0,1
 15 39 15 39 22 67 c 128,-1,2
 29 95 29 95 42.5 125 c 128,-1,3
 56 155 56 155 71 183 c 128,-1,4
 86 211 86 211 94 229 c 0,5,6
 97 235 97 235 98.5 239 c 128,-1,7
 100 243 100 243 101.5 248 c 128,-1,8
 103 253 103 253 105 259 c 128,-1,9
 107 265 107 265 112 276 c 0,10,11
 118 289 118 289 131.5 316.5 c 128,-1,12
 145 344 145 344 162 378.5 c 128,-1,13
 179 413 179 413 197.5 451 c 128,-1,14
 216 489 216 489 232.5 523.5 c 128,-1,15
 249 558 249 558 262.5 585.5 c 128,-1,16
 276 613 276 613 282 626 c 1,17,-1
 282 649 l 1,18,19
 264 652 264 652 247 647 c 128,-1,20
 230 642 230 642 214.5 633 c 128,-1,21
 199 624 199 624 184.5 612.5 c 128,-1,22
 170 601 170 601 158 592 c 1,23,24
 144 595 144 595 142 605 c 128,-1,25
 140 615 140 615 144 626 c 128,-1,26
 148 637 148 637 155.5 646.5 c 128,-1,27
 163 656 163 656 169 660 c 0,28,29
 273 725 273 725 392 746.5 c 128,-1,30
 511 768 511 768 633 750 c 1,31,32
 707 713 707 713 734 671.5 c 128,-1,33
 761 630 761 630 753.5 587 c 128,-1,34
 746 544 746 544 709.5 502 c 128,-1,35
 673 460 673 460 619.5 421.5 c 128,-1,36
 566 383 566 383 501.5 350 c 128,-1,37
 437 317 437 317 373.5 293 c 128,-1,38
 310 269 310 269 253 255.5 c 128,-1,39
 196 242 196 242 158 242 c 1,40,41
 139 212 139 212 127 192.5 c 128,-1,42
 115 173 115 173 108 158.5 c 128,-1,43
 101 144 101 144 96.5 131.5 c 128,-1,44
 92 119 92 119 87.5 103.5 c 128,-1,45
 83 88 83 88 76 66 c 128,-1,46
 69 44 69 44 57 11 c 1,47,-1
 46 0 l 1,48,49
 42 2 42 2 33.5 10.5 c 128,-1,50
 25 19 25 19 23 23 c 0,0,1
192 299 m 1,51,52
 234 292 234 292 281 301.5 c 128,-1,53
 328 311 328 311 374.5 329 c 128,-1,54
 421 347 421 347 464 369.5 c 128,-1,55
 507 392 507 392 542 411 c 0,56,57
 626 458 626 458 667.5 502.5 c 128,-1,58
 709 547 709 547 718 585.5 c 128,-1,59
 727 624 727 624 709.5 654 c 128,-1,60
 692 684 692 684 657.5 702.5 c 128,-1,61
 623 721 623 721 577.5 726 c 128,-1,62
 532 731 532 731 485.5 719 c 128,-1,63
 439 707 439 707 397 676 c 128,-1,64
 355 645 355 645 327 592 c 0,65,66
 317 573 317 573 303 545.5 c 128,-1,67
 289 518 289 518 274 488 c 128,-1,68
 259 458 259 458 244 428.5 c 128,-1,69
 229 399 229 399 217.5 375.5 c 128,-1,70
 206 352 206 352 199 337 c 128,-1,71
 192 322 192 322 192 321 c 2,72,-1
 192 299 l 1,51,52
EndSplineSet
EndChar

StartChar: Q
Encoding: 81 81 52
Width: 593
GlyphClass: 2
Flags: W
LayerCount: 2
Fore
SplineSet
448 -164 m 0,0,1
 435 -148 435 -148 426 -120.5 c 128,-1,2
 417 -93 417 -93 407.5 -65.5 c 128,-1,3
 398 -38 398 -38 386.5 -15 c 128,-1,4
 375 8 375 8 358 16 c 1,5,6
 352 20 352 20 336.5 14.5 c 128,-1,7
 321 9 321 9 300 1.5 c 128,-1,8
 279 -6 279 -6 253.5 -12.5 c 128,-1,9
 228 -19 228 -19 201 -17.5 c 128,-1,10
 174 -16 174 -16 147.5 -3.5 c 128,-1,11
 121 9 121 9 98 39 c 0,12,13
 68 79 68 79 67 131 c 128,-1,14
 66 183 66 183 85 239 c 128,-1,15
 104 295 104 295 136.5 352.5 c 128,-1,16
 169 410 169 410 205.5 462 c 128,-1,17
 242 514 242 514 277 556.5 c 128,-1,18
 312 599 312 599 335 626 c 0,19,20
 351 645 351 645 369.5 669 c 128,-1,21
 388 693 388 693 409.5 716 c 128,-1,22
 431 739 431 739 455 757.5 c 128,-1,23
 479 776 479 776 505 785 c 0,24,25
 513 788 513 788 520 782 c 128,-1,26
 527 776 527 776 533 767.5 c 128,-1,27
 539 759 539 759 543.5 751 c 128,-1,28
 548 743 548 743 550 740 c 0,29,30
 595 685 595 685 613.5 620.5 c 128,-1,31
 632 556 632 556 628 489 c 128,-1,32
 624 422 624 422 600.5 356 c 128,-1,33
 577 290 577 290 539 232 c 0,34,35
 536 226 536 226 520.5 206 c 128,-1,36
 505 186 505 186 488 163.5 c 128,-1,37
 471 141 471 141 455.5 121 c 128,-1,38
 440 101 440 101 437 96 c 0,39,40
 420 72 420 72 418 48 c 128,-1,41
 416 24 416 24 422 0.5 c 128,-1,42
 428 -23 428 -23 439 -46 c 128,-1,43
 450 -69 450 -69 459.5 -91 c 128,-1,44
 469 -113 469 -113 473.5 -134 c 128,-1,45
 478 -155 478 -155 471 -175 c 1,46,47
 463 -179 463 -179 457.5 -174 c 128,-1,48
 452 -169 452 -169 448 -164 c 0,0,1
155 28 m 0,49,50
 197 0 197 0 230 3 c 128,-1,51
 263 6 263 6 288 29 c 128,-1,52
 313 52 313 52 330 89.5 c 128,-1,53
 347 127 347 127 358 166.5 c 128,-1,54
 369 206 369 206 374 242 c 128,-1,55
 379 278 379 278 380 299 c 0,56,57
 381 300 381 300 387.5 300 c 128,-1,58
 394 300 394 300 401.5 299.5 c 128,-1,59
 409 299 409 299 414.5 296 c 128,-1,60
 420 293 420 293 420 288 c 2,61,-1
 420 175 l 1,62,63
 454 200 454 200 483 237 c 128,-1,64
 512 274 512 274 533.5 317 c 128,-1,65
 555 360 555 360 568 405 c 128,-1,66
 581 450 581 450 584 491 c 0,67,68
 590 597 590 597 572.5 645 c 128,-1,69
 555 693 555 693 522 696.5 c 128,-1,70
 489 700 489 700 445 667 c 128,-1,71
 401 634 401 634 354.5 578 c 128,-1,72
 308 522 308 522 264 451 c 128,-1,73
 220 380 220 380 186.5 308.5 c 128,-1,74
 153 237 153 237 134.5 171.5 c 128,-1,75
 116 106 116 106 121 62 c 0,76,77
 122 60 122 60 127 55 c 128,-1,78
 132 50 132 50 137 44.5 c 128,-1,79
 142 39 142 39 147 34 c 128,-1,80
 152 29 152 29 155 28 c 0,49,50
EndSplineSet
EndChar

StartChar: R
Encoding: 82 82 53
Width: 687
GlyphClass: 2
Flags: W
LayerCount: 2
Fore
SplineSet
18 11 m 0,0,1
 10 34 10 34 27 82.5 c 128,-1,2
 44 131 44 131 73.5 192.5 c 128,-1,3
 103 254 103 254 139.5 320 c 128,-1,4
 176 386 176 386 206.5 443.5 c 128,-1,5
 237 501 237 501 256.5 541.5 c 128,-1,6
 276 582 276 582 272 593 c 1,7,8
 260 597 260 597 246.5 590 c 128,-1,9
 233 583 233 583 219.5 576 c 128,-1,10
 206 569 206 569 193 568 c 128,-1,11
 180 567 180 567 170 582 c 0,12,13
 165 589 165 589 166.5 595.5 c 128,-1,14
 168 602 168 602 172.5 608 c 128,-1,15
 177 614 177 614 182.5 618.5 c 128,-1,16
 188 623 188 623 192 626 c 0,17,18
 306 701 306 701 408.5 743 c 128,-1,19
 511 785 511 785 592.5 800 c 128,-1,20
 674 815 674 815 729.5 806 c 128,-1,21
 785 797 785 797 806 769.5 c 128,-1,22
 827 742 827 742 808.5 698.5 c 128,-1,23
 790 655 790 655 723.5 601 c 128,-1,24
 657 547 657 547 536.5 485.5 c 128,-1,25
 416 424 416 424 234 360 c 1,26,27
 224 344 224 344 239.5 324 c 128,-1,28
 255 304 255 304 285.5 280.5 c 128,-1,29
 316 257 316 257 357.5 232 c 128,-1,30
 399 207 399 207 441.5 181.5 c 128,-1,31
 484 156 484 156 522.5 131.5 c 128,-1,32
 561 107 561 107 586 85 c 128,-1,33
 611 63 611 63 618.5 44 c 128,-1,34
 626 25 626 25 605 11 c 0,35,36
 604 10 604 10 592.5 18.5 c 128,-1,37
 581 27 581 27 564 40.5 c 128,-1,38
 547 54 547 54 527.5 70 c 128,-1,39
 508 86 508 86 490.5 100 c 128,-1,40
 473 114 473 114 460.5 124 c 128,-1,41
 448 134 448 134 446 136 c 0,42,43
 386 174 386 174 326 211 c 128,-1,44
 266 248 266 248 209 294 c 1,45,46
 190 300 190 300 171 274 c 128,-1,47
 152 248 152 248 134 207.5 c 128,-1,48
 116 167 116 167 98.5 121.5 c 128,-1,49
 81 76 81 76 66 42.5 c 128,-1,50
 51 9 51 9 39 -3.5 c 128,-1,51
 27 -16 27 -16 18 11 c 0,0,1
256 428 m 1,52,53
 278 421 278 421 315.5 429 c 128,-1,54
 353 437 353 437 398.5 456 c 128,-1,55
 444 475 444 475 493.5 502 c 128,-1,56
 543 529 543 529 588 558.5 c 128,-1,57
 633 588 633 588 670.5 618 c 128,-1,58
 708 648 708 648 729 673.5 c 128,-1,59
 750 699 750 699 751.5 717 c 128,-1,60
 753 735 753 735 727 740 c 1,61,62
 619 742 619 742 543 729.5 c 128,-1,63
 467 717 467 717 413 683 c 128,-1,64
 359 649 359 649 322 590 c 128,-1,65
 285 531 285 531 256 440 c 1,66,-1
 256 428 l 1,52,53
EndSplineSet
EndChar

StartChar: S
Encoding: 83 83 54
Width: 614
GlyphClass: 2
Flags: W
LayerCount: 2
Fore
SplineSet
91 11 m 0,0,1
 86 13 86 13 67.5 22 c 128,-1,2
 49 31 49 31 33 43 c 128,-1,3
 17 55 17 55 10.5 68 c 128,-1,4
 4 81 4 81 23 90 c 1,5,6
 34 80 34 80 53.5 66 c 128,-1,7
 73 52 73 52 91 45 c 1,8,9
 146 42 146 42 198 44.5 c 128,-1,10
 250 47 250 47 299.5 57.5 c 128,-1,11
 349 68 349 68 395.5 89.5 c 128,-1,12
 442 111 442 111 486 146 c 1,13,14
 535 187 535 187 550.5 221.5 c 128,-1,15
 566 256 566 256 556.5 285.5 c 128,-1,16
 547 315 547 315 517.5 340.5 c 128,-1,17
 488 366 488 366 447.5 388.5 c 128,-1,18
 407 411 407 411 361 430.5 c 128,-1,19
 315 450 315 450 273 468.5 c 128,-1,20
 231 487 231 487 197 505 c 128,-1,21
 163 523 163 523 147 542 c 1,22,23
 143 559 143 559 164 582 c 128,-1,24
 185 605 185 605 222 629.5 c 128,-1,25
 259 654 259 654 307 678.5 c 128,-1,26
 355 703 355 703 405.5 723 c 128,-1,27
 456 743 456 743 503.5 757 c 128,-1,28
 551 771 551 771 587 774.5 c 128,-1,29
 623 778 623 778 642 769 c 128,-1,30
 661 760 661 760 655 735 c 1,31,32
 648 734 648 734 619 726 c 128,-1,33
 590 718 590 718 548.5 706 c 128,-1,34
 507 694 507 694 458.5 678 c 128,-1,35
 410 662 410 662 363 644.5 c 128,-1,36
 316 627 316 627 276 609 c 128,-1,37
 236 591 236 591 213 574 c 128,-1,38
 190 557 190 557 187.5 543 c 128,-1,39
 185 529 185 529 214 519 c 1,40,41
 360 475 360 475 443.5 425.5 c 128,-1,42
 527 376 527 376 561 325.5 c 128,-1,43
 595 275 595 275 587 226 c 128,-1,44
 579 177 579 177 543.5 135 c 128,-1,45
 508 93 508 93 451 60.5 c 128,-1,46
 394 28 394 28 330.5 10 c 128,-1,47
 267 -8 267 -8 203.5 -9 c 128,-1,48
 140 -10 140 -10 91 11 c 0,0,1
EndSplineSet
EndChar

StartChar: T
Encoding: 84 84 55
Width: 558
GlyphClass: 2
Flags: W
LayerCount: 2
Fore
SplineSet
175 11 m 0,0,1
 169 36 169 36 175.5 68.5 c 128,-1,2
 182 101 182 101 194 134 c 128,-1,3
 206 167 206 167 220 197.5 c 128,-1,4
 234 228 234 228 243 248 c 0,5,6
 248 260 248 260 258.5 283 c 128,-1,7
 269 306 269 306 282.5 335 c 128,-1,8
 296 364 296 364 310.5 396 c 128,-1,9
 325 428 325 428 338.5 457 c 128,-1,10
 352 486 352 486 362.5 508.5 c 128,-1,11
 373 531 373 531 378 542 c 1,12,13
 361 545 361 545 329.5 539 c 128,-1,14
 298 533 298 533 260 523.5 c 128,-1,15
 222 514 222 514 182 504 c 128,-1,16
 142 494 142 494 107.5 489.5 c 128,-1,17
 73 485 73 485 48.5 488.5 c 128,-1,18
 24 492 24 492 18 509 c 1,19,20
 25 522 25 522 69 539 c 128,-1,21
 113 556 113 556 181.5 574.5 c 128,-1,22
 250 593 250 593 334.5 612 c 128,-1,23
 419 631 419 631 507 648 c 128,-1,24
 595 665 595 665 679 679 c 128,-1,25
 763 693 763 693 829 702 c 128,-1,26
 895 711 895 711 935.5 714 c 128,-1,27
 976 717 976 717 978 712 c 0,28,29
 981 704 981 704 979 692.5 c 128,-1,30
 977 681 977 681 966 678 c 1,31,32
 917 670 917 670 860 660.5 c 128,-1,33
 803 651 803 651 744.5 640.5 c 128,-1,34
 686 630 686 630 630 619.5 c 128,-1,35
 574 609 574 609 526 599 c 0,36,37
 495 593 495 593 466 563 c 128,-1,38
 437 533 437 533 410 488.5 c 128,-1,39
 383 444 383 444 358 389.5 c 128,-1,40
 333 335 333 335 310.5 279 c 128,-1,41
 288 223 288 223 269 171 c 128,-1,42
 250 119 250 119 234 79.5 c 128,-1,43
 218 40 218 40 206 18 c 128,-1,44
 194 -4 194 -4 186 0 c 0,45,46
 184 2 184 2 180 6 c 128,-1,47
 176 10 176 10 175 11 c 0,0,1
EndSplineSet
EndChar

StartChar: U
Encoding: 85 85 56
Width: 608
GlyphClass: 2
Flags: W
LayerCount: 2
Fore
SplineSet
91 11 m 0,0,1
 55 40 55 40 42 86 c 128,-1,2
 29 132 29 132 33 188 c 128,-1,3
 37 244 37 244 54 305.5 c 128,-1,4
 71 367 71 367 94.5 426.5 c 128,-1,5
 118 486 118 486 144.5 540 c 128,-1,6
 171 594 171 594 193.5 635 c 128,-1,7
 216 676 216 676 231.5 700 c 128,-1,8
 247 724 247 724 249 723 c 0,9,10
 257 719 257 719 260 712.5 c 128,-1,11
 263 706 263 706 263.5 698 c 128,-1,12
 264 690 264 690 263 682 c 128,-1,13
 262 674 262 674 261 667 c 0,14,15
 260 665 260 665 255 655.5 c 128,-1,16
 250 646 250 646 249 644 c 0,17,18
 171 473 171 473 132 357.5 c 128,-1,19
 93 242 93 242 84 173 c 128,-1,20
 75 104 75 104 92.5 76.5 c 128,-1,21
 110 49 110 49 145.5 54.5 c 128,-1,22
 181 60 181 60 230.5 93.5 c 128,-1,23
 280 127 280 127 335.5 180 c 128,-1,24
 391 233 391 233 448 301 c 128,-1,25
 505 369 505 369 556.5 443 c 128,-1,26
 608 517 608 517 648.5 592 c 128,-1,27
 689 667 689 667 712 735 c 1,28,29
 714 737 714 737 717.5 741.5 c 128,-1,30
 721 746 721 746 723 746 c 1,31,32
 751 727 751 727 744 681.5 c 128,-1,33
 737 636 737 636 705.5 575 c 128,-1,34
 674 514 674 514 622.5 443 c 128,-1,35
 571 372 571 372 510.5 303 c 128,-1,36
 450 234 450 234 386 172.5 c 128,-1,37
 322 111 322 111 264 69 c 128,-1,38
 206 27 206 27 160.5 9.5 c 128,-1,39
 115 -8 115 -8 91 11 c 0,0,1
EndSplineSet
EndChar

StartChar: V
Encoding: 86 86 57
Width: 560
GlyphClass: 2
Flags: W
LayerCount: 2
Fore
SplineSet
79 34 m 0,0,1
 61 62 61 62 48.5 113 c 128,-1,2
 36 164 36 164 30.5 226 c 128,-1,3
 25 288 25 288 26.5 354.5 c 128,-1,4
 28 421 28 421 38 480 c 128,-1,5
 48 539 48 539 66.5 583 c 128,-1,6
 85 627 85 627 113 644 c 1,7,8
 119 640 119 640 116.5 607.5 c 128,-1,9
 114 575 114 575 107 525.5 c 128,-1,10
 100 476 100 476 91.5 416 c 128,-1,11
 83 356 83 356 76.5 297 c 128,-1,12
 70 238 70 238 68.5 186.5 c 128,-1,13
 67 135 67 135 75.5 101.5 c 128,-1,14
 84 68 84 68 103.5 59.5 c 128,-1,15
 123 51 123 51 159 79 c 0,16,17
 241 144 241 144 318.5 222.5 c 128,-1,18
 396 301 396 301 464 373 c 0,19,20
 547 461 547 461 622 550 c 128,-1,21
 697 639 697 639 769 735 c 0,22,23
 778 748 778 748 787.5 749 c 128,-1,24
 797 750 797 750 804 743 c 128,-1,25
 811 736 811 736 814 724.5 c 128,-1,26
 817 713 817 713 814 701 c 1,27,28
 807 693 807 693 792 676.5 c 128,-1,29
 777 660 777 660 758 638.5 c 128,-1,30
 739 617 739 617 718 593.5 c 128,-1,31
 697 570 697 570 678 549 c 128,-1,32
 659 528 659 528 644 511 c 128,-1,33
 629 494 629 494 622 486 c 0,34,35
 604 466 604 466 575 430.5 c 128,-1,36
 546 395 546 395 510 351.5 c 128,-1,37
 474 308 474 308 433 260.5 c 128,-1,38
 392 213 392 213 349.5 169.5 c 128,-1,39
 307 126 307 126 266 89.5 c 128,-1,40
 225 53 225 53 189 32.5 c 128,-1,41
 153 12 153 12 124.5 10.5 c 128,-1,42
 96 9 96 9 79 34 c 0,0,1
EndSplineSet
EndChar

StartChar: W
Encoding: 87 87 58
Width: 702
GlyphClass: 2
Flags: W
LayerCount: 2
Fore
SplineSet
46 11 m 0,0,1
 33 30 33 30 26.5 74 c 128,-1,2
 20 118 20 118 18.5 176 c 128,-1,3
 17 234 17 234 20 302 c 128,-1,4
 23 370 23 370 29 437 c 128,-1,5
 35 504 35 504 44.5 566 c 128,-1,6
 54 628 54 628 65 674.5 c 128,-1,7
 76 721 76 721 88 747 c 128,-1,8
 100 773 100 773 113 769 c 1,9,10
 115 767 115 767 119.5 763 c 128,-1,11
 124 759 124 759 125 757 c 0,12,13
 126 746 126 746 123 715.5 c 128,-1,14
 120 685 120 685 114.5 642.5 c 128,-1,15
 109 600 109 600 102.5 549 c 128,-1,16
 96 498 96 498 89 445.5 c 128,-1,17
 82 393 82 393 76 343.5 c 128,-1,18
 70 294 70 294 66.5 254.5 c 128,-1,19
 63 215 63 215 63 189 c 128,-1,20
 63 163 63 163 68 158 c 2,21,-1
 79 146 l 1,22,23
 94 153 94 153 110 182.5 c 128,-1,24
 126 212 126 212 142.5 254.5 c 128,-1,25
 159 297 159 297 176.5 348 c 128,-1,26
 194 399 194 399 211.5 448.5 c 128,-1,27
 229 498 229 498 246 542 c 128,-1,28
 263 586 263 586 280 614 c 128,-1,29
 297 642 297 642 313 649.5 c 128,-1,30
 329 657 329 657 343.5 634.5 c 128,-1,31
 358 612 358 612 371.5 555 c 128,-1,32
 385 498 385 498 396 396 c 0,33,34
 396 391 396 391 401 364.5 c 128,-1,35
 406 338 406 338 413.5 303.5 c 128,-1,36
 421 269 421 269 431 233.5 c 128,-1,37
 441 198 441 198 452 174.5 c 128,-1,38
 463 151 463 151 475 146.5 c 128,-1,39
 487 142 487 142 498 170 c 0,40,41
 501 178 501 178 511.5 204 c 128,-1,42
 522 230 522 230 536 265 c 128,-1,43
 550 300 550 300 565.5 339 c 128,-1,44
 581 378 581 378 595 413 c 128,-1,45
 609 448 609 448 619.5 474 c 128,-1,46
 630 500 630 500 634 509 c 0,47,48
 638 519 638 519 647 545 c 128,-1,49
 656 571 656 571 669.5 603.5 c 128,-1,50
 683 636 683 636 700 671 c 128,-1,51
 717 706 717 706 736 733.5 c 128,-1,52
 755 761 755 761 775.5 776 c 128,-1,53
 796 791 796 791 817 784 c 0,54,55
 819 784 819 784 823 779.5 c 128,-1,56
 827 775 827 775 827 773 c 1,57,58
 765 693 765 693 724.5 613 c 128,-1,59
 684 533 684 533 653.5 449.5 c 128,-1,60
 623 366 623 366 595.5 279.5 c 128,-1,61
 568 193 568 193 532 102 c 0,62,63
 517 63 517 63 500.5 57 c 128,-1,64
 484 51 484 51 468 68.5 c 128,-1,65
 452 86 452 86 436.5 121 c 128,-1,66
 421 156 421 156 407 199.5 c 128,-1,67
 393 243 393 243 381 289 c 128,-1,68
 369 335 369 335 360 374.5 c 128,-1,69
 351 414 351 414 345.5 441.5 c 128,-1,70
 340 469 340 469 339 474 c 0,71,72
 337 482 337 482 335.5 493 c 128,-1,73
 334 504 334 504 332 515 c 0,74,75
 330 527 330 527 328 542 c 1,76,-1
 317 542 l 2,77,78
 316 542 316 542 305 521.5 c 128,-1,79
 294 501 294 501 279.5 472.5 c 128,-1,80
 265 444 265 444 250 413 c 128,-1,81
 235 382 235 382 226 362 c 0,82,83
 221 352 221 352 210.5 315.5 c 128,-1,84
 200 279 200 279 185 232 c 128,-1,85
 170 185 170 185 152.5 136 c 128,-1,86
 135 87 135 87 116.5 51.5 c 128,-1,87
 98 16 98 16 79.5 2 c 128,-1,88
 61 -12 61 -12 46 11 c 0,0,1
EndSplineSet
EndChar

StartChar: X
Encoding: 88 88 59
Width: 537
GlyphClass: 2
Flags: W
LayerCount: 2
Fore
SplineSet
464 34 m 0,0,1
 458 42 458 42 443.5 64 c 128,-1,2
 429 86 429 86 410.5 115 c 128,-1,3
 392 144 392 144 371.5 175 c 128,-1,4
 351 206 351 206 333 231 c 128,-1,5
 315 256 315 256 301 270.5 c 128,-1,6
 287 285 287 285 282 282 c 1,7,8
 220 224 220 224 170 162 c 128,-1,9
 120 100 120 100 68 34 c 0,10,11
 54 16 54 16 43.5 14 c 128,-1,12
 33 12 33 12 28.5 19.5 c 128,-1,13
 24 27 24 27 25 40.5 c 128,-1,14
 26 54 26 54 34 68 c 0,15,16
 46 88 46 88 68.5 113.5 c 128,-1,17
 91 139 91 139 117 167.5 c 128,-1,18
 143 196 143 196 169 225.5 c 128,-1,19
 195 255 195 255 215 283.5 c 128,-1,20
 235 312 235 312 245 337.5 c 128,-1,21
 255 363 255 363 249 384 c 1,22,23
 245 392 245 392 235.5 411.5 c 128,-1,24
 226 431 226 431 215.5 452.5 c 128,-1,25
 205 474 205 474 195 493 c 128,-1,26
 185 512 185 512 181 519 c 0,27,28
 179 522 179 522 172.5 533.5 c 128,-1,29
 166 545 166 545 158 558.5 c 128,-1,30
 150 572 150 572 143.5 584 c 128,-1,31
 137 596 137 596 136 599 c 1,32,33
 134 601 134 601 134 610 c 128,-1,34
 134 619 134 619 136 622 c 1,35,36
 146 630 146 630 160 615.5 c 128,-1,37
 174 601 174 601 189.5 575.5 c 128,-1,38
 205 550 205 550 221.5 518.5 c 128,-1,39
 238 487 238 487 253.5 460.5 c 128,-1,40
 269 434 269 434 282.5 418 c 128,-1,41
 296 402 296 402 306 407 c 1,42,43
 307 410 307 410 312 416 c 128,-1,44
 317 422 317 422 322 429.5 c 128,-1,45
 327 437 327 437 332 443 c 128,-1,46
 337 449 337 449 339 452 c 0,47,48
 346 461 346 461 359 486 c 128,-1,49
 372 511 372 511 389.5 535.5 c 128,-1,50
 407 560 407 560 429 576.5 c 128,-1,51
 451 593 451 593 475 587 c 0,52,53
 493 583 493 583 487.5 565.5 c 128,-1,54
 482 548 482 548 464.5 524 c 128,-1,55
 447 500 447 500 421.5 471 c 128,-1,56
 396 442 396 442 374 415 c 128,-1,57
 352 388 352 388 337.5 364.5 c 128,-1,58
 323 341 323 341 328 328 c 0,59,60
 334 312 334 312 351.5 284.5 c 128,-1,61
 369 257 369 257 390.5 224 c 128,-1,62
 412 191 412 191 434.5 156 c 128,-1,63
 457 121 457 121 475 90 c 128,-1,64
 493 59 493 59 503 34.5 c 128,-1,65
 513 10 513 10 509 0 c 1,66,67
 507 -1 507 -1 503 -1 c 128,-1,68
 499 -1 499 -1 498 0 c 0,69,70
 496 1 496 1 491.5 5 c 128,-1,71
 487 9 487 9 481.5 14.5 c 128,-1,72
 476 20 476 20 471 25.5 c 128,-1,73
 466 31 466 31 464 34 c 0,0,1
EndSplineSet
EndChar

StartChar: Y
Encoding: 89 89 60
Width: 402
GlyphClass: 2
Flags: W
LayerCount: 2
Fore
SplineSet
56 -128 m 0,0,1
 44 -98 44 -98 53 -65 c 128,-1,2
 62 -32 62 -32 82 4.5 c 128,-1,3
 102 41 102 41 129 80 c 128,-1,4
 156 119 156 119 180 160.5 c 128,-1,5
 204 202 204 202 220 246 c 128,-1,6
 236 290 236 290 236 335 c 1,7,8
 232 344 232 344 218 365.5 c 128,-1,9
 204 387 204 387 185 415.5 c 128,-1,10
 166 444 166 444 144 477 c 128,-1,11
 122 510 122 510 101.5 541.5 c 128,-1,12
 81 573 81 573 64.5 601.5 c 128,-1,13
 48 630 48 630 40 649 c 128,-1,14
 32 668 32 668 35 675.5 c 128,-1,15
 38 683 38 683 56 674 c 1,16,17
 70 661 70 661 91 632.5 c 128,-1,18
 112 604 112 604 134.5 568.5 c 128,-1,19
 157 533 157 533 180.5 495.5 c 128,-1,20
 204 458 204 458 224 428.5 c 128,-1,21
 244 399 244 399 259 381.5 c 128,-1,22
 274 364 274 364 281 369 c 1,23,24
 291 389 291 389 310.5 432.5 c 128,-1,25
 330 476 330 476 353 527.5 c 128,-1,26
 376 579 376 579 400.5 630.5 c 128,-1,27
 425 682 425 682 446.5 718 c 128,-1,28
 468 754 468 754 484.5 766.5 c 128,-1,29
 501 779 501 779 507 753 c 0,30,31
 511 738 511 738 498 700.5 c 128,-1,32
 485 663 485 663 461 610.5 c 128,-1,33
 437 558 437 558 404.5 493.5 c 128,-1,34
 372 429 372 429 336.5 360 c 128,-1,35
 301 291 301 291 265.5 221.5 c 128,-1,36
 230 152 230 152 199 88.5 c 128,-1,37
 168 25 168 25 145 -28 c 128,-1,38
 122 -81 122 -81 112 -117 c 0,39,40
 109 -127 109 -127 102.5 -136.5 c 128,-1,41
 96 -146 96 -146 88 -150 c 128,-1,42
 80 -154 80 -154 71.5 -149.5 c 128,-1,43
 63 -145 63 -145 56 -128 c 0,0,1
EndSplineSet
EndChar

StartChar: Z
Encoding: 90 90 61
Width: 842
GlyphClass: 2
Flags: W
LayerCount: 2
Fore
SplineSet
29 11 m 0,0,1
 10 25 10 25 29 57 c 128,-1,2
 48 89 48 89 90.5 133.5 c 128,-1,3
 133 178 133 178 193 231 c 128,-1,4
 253 284 253 284 317.5 340 c 128,-1,5
 382 396 382 396 444.5 451.5 c 128,-1,6
 507 507 507 507 554 556 c 128,-1,7
 601 605 601 605 626.5 644 c 128,-1,8
 652 683 652 683 642 706 c 1,9,10
 640 706 640 706 619 702 c 128,-1,11
 598 698 598 698 565 692 c 128,-1,12
 532 686 532 686 491.5 680 c 128,-1,13
 451 674 451 674 410.5 669.5 c 128,-1,14
 370 665 370 665 334.5 663 c 128,-1,15
 299 661 299 661 276 664.5 c 128,-1,16
 253 668 253 668 246.5 678 c 128,-1,17
 240 688 240 688 258 706 c 1,18,19
 280 703 280 703 316.5 709.5 c 128,-1,20
 353 716 353 716 396.5 725.5 c 128,-1,21
 440 735 440 735 486.5 746 c 128,-1,22
 533 757 533 757 575 764 c 128,-1,23
 617 771 617 771 651 771 c 128,-1,24
 685 771 685 771 702.5 759 c 128,-1,25
 720 747 720 747 718 721 c 128,-1,26
 716 695 716 695 687 649 c 0,27,28
 635 567 635 567 573 503.5 c 128,-1,29
 511 440 511 440 443 383 c 128,-1,30
 375 326 375 326 304 270 c 128,-1,31
 233 214 233 214 164 146 c 0,32,33
 163 146 163 146 153 135.5 c 128,-1,34
 143 125 143 125 131.5 110.5 c 128,-1,35
 120 96 120 96 112 81 c 128,-1,36
 104 66 104 66 107 57 c 1,37,38
 118 54 118 54 158 62 c 128,-1,39
 198 70 198 70 255 84 c 128,-1,40
 312 98 312 98 380 114.5 c 128,-1,41
 448 131 448 131 516 146 c 128,-1,42
 584 161 584 161 645.5 171 c 128,-1,43
 707 181 707 181 750.5 181 c 128,-1,44
 794 181 794 181 814 168 c 128,-1,45
 834 155 834 155 819 125 c 1,46,47
 794 123 794 123 748 116.5 c 128,-1,48
 702 110 702 110 643.5 100.5 c 128,-1,49
 585 91 585 91 518.5 79.5 c 128,-1,50
 452 68 452 68 385.5 56.5 c 128,-1,51
 319 45 319 45 257 35 c 128,-1,52
 195 25 195 25 146.5 18.5 c 128,-1,53
 98 12 98 12 66.5 9.5 c 128,-1,54
 35 7 35 7 29 11 c 0,0,1
EndSplineSet
EndChar

StartChar: bracketleft
Encoding: 91 91 62
Width: 474
GlyphClass: 2
Flags: W
LayerCount: 2
Fore
SplineSet
45 -68 m 0,0,1
 43 -67 43 -67 38.5 -62.5 c 128,-1,2
 34 -58 34 -58 34 -56 c 0,3,4
 33 -44 33 -44 34.5 -5.5 c 128,-1,5
 36 33 36 33 40 87 c 128,-1,6
 44 141 44 141 50.5 206.5 c 128,-1,7
 57 272 57 272 65.5 339 c 128,-1,8
 74 406 74 406 85 469.5 c 128,-1,9
 96 533 96 533 108.5 584 c 128,-1,10
 121 635 121 635 135 667.5 c 128,-1,11
 149 700 149 700 165 705 c 0,12,13
 167 706 167 706 178.5 707.5 c 128,-1,14
 190 709 190 709 203.5 710.5 c 128,-1,15
 217 712 217 712 228.5 713.5 c 128,-1,16
 240 715 240 715 243 716 c 0,17,18
 253 719 253 719 277.5 726.5 c 128,-1,19
 302 734 302 734 329 743 c 128,-1,20
 356 752 356 752 380 760.5 c 128,-1,21
 404 769 404 769 413 773 c 1,22,23
 420 775 420 775 432 772.5 c 128,-1,24
 444 770 444 770 452 765 c 128,-1,25
 460 760 460 760 460.5 752.5 c 128,-1,26
 461 745 461 745 446 738 c 1,27,28
 370 716 370 716 320 697 c 128,-1,29
 270 678 270 678 238 654.5 c 128,-1,30
 206 631 206 631 188 600 c 128,-1,31
 170 569 170 569 158.5 523 c 128,-1,32
 147 477 147 477 137.5 413 c 128,-1,33
 128 349 128 349 113 260 c 1,34,35
 106 236 106 236 100.5 195.5 c 128,-1,36
 95 155 95 155 92 111.5 c 128,-1,37
 89 68 89 68 88.5 27 c 128,-1,38
 88 -14 88 -14 90 -39 c 1,39,-1
 430 -22 l 1,40,41
 439 -37 439 -37 428 -46 c 128,-1,42
 417 -55 417 -55 400 -60 c 128,-1,43
 383 -65 383 -65 367 -66.5 c 128,-1,44
 351 -68 351 -68 350 -68 c 0,45,46
 311 -73 311 -73 279.5 -76 c 128,-1,47
 248 -79 248 -79 217.5 -80.5 c 128,-1,48
 187 -82 187 -82 153.5 -81.5 c 128,-1,49
 120 -81 120 -81 78 -79 c 0,50,51
 75 -78 75 -78 62 -74 c 128,-1,52
 49 -70 49 -70 45 -68 c 0,0,1
EndSplineSet
EndChar

StartChar: backslash
Encoding: 92 92 63
Width: 328
GlyphClass: 2
Flags: W
LayerCount: 2
Fore
SplineSet
271 11 m 1,0,1
 244 38 244 38 217 77 c 128,-1,2
 190 116 190 116 165 162 c 128,-1,3
 140 208 140 208 117.5 257.5 c 128,-1,4
 95 307 95 307 76.5 354 c 128,-1,5
 58 401 58 401 43.5 443 c 128,-1,6
 29 485 29 485 20 516 c 1,7,8
 30 551 30 551 45 540 c 128,-1,9
 60 529 60 529 79.5 488 c 128,-1,10
 99 447 99 447 123 385 c 128,-1,11
 147 323 147 323 176.5 256.5 c 128,-1,12
 206 190 206 190 240.5 127.5 c 128,-1,13
 275 65 275 65 316 23 c 1,14,15
 305 6 305 6 294 0.5 c 128,-1,16
 283 -5 283 -5 271 11 c 1,0,1
EndSplineSet
EndChar

StartChar: bracketright
Encoding: 93 93 64
Width: 446
GlyphClass: 2
Flags: W
LayerCount: 2
Fore
SplineSet
67 -85 m 0,0,1
 61 -76 61 -76 77.5 -66.5 c 128,-1,2
 94 -57 94 -57 123 -48.5 c 128,-1,3
 152 -40 152 -40 187 -32.5 c 128,-1,4
 222 -25 222 -25 253 -19 c 128,-1,5
 284 -13 284 -13 305 -9.5 c 128,-1,6
 326 -6 326 -6 327 -6 c 1,7,8
 326 29 326 29 328 84.5 c 128,-1,9
 330 140 330 140 333 205.5 c 128,-1,10
 336 271 336 271 340.5 342 c 128,-1,11
 345 413 345 413 348 478.5 c 128,-1,12
 351 544 351 544 352 599 c 128,-1,13
 353 654 353 654 351 689 c 1,14,15
 336 690 336 690 308.5 687 c 128,-1,16
 281 684 281 684 247 680 c 128,-1,17
 213 676 213 676 176 673 c 128,-1,18
 139 670 139 670 106 671 c 128,-1,19
 73 672 73 672 48 678.5 c 128,-1,20
 23 685 23 685 13 701 c 0,21,22
 7 709 7 709 33.5 719 c 128,-1,23
 60 729 60 729 103 737.5 c 128,-1,24
 146 746 146 746 198 750.5 c 128,-1,25
 250 755 250 755 296 752 c 128,-1,26
 342 749 342 749 373.5 737 c 128,-1,27
 405 725 405 725 408 701 c 0,28,29
 412 662 412 662 411 604 c 128,-1,30
 410 546 410 546 406.5 477.5 c 128,-1,31
 403 409 403 409 398.5 336 c 128,-1,32
 394 263 394 263 391 194.5 c 128,-1,33
 388 126 388 126 388.5 67.5 c 128,-1,34
 389 9 389 9 395 -29 c 0,35,36
 395 -32 395 -32 396 -39 c 128,-1,37
 397 -46 397 -46 396.5 -53.5 c 128,-1,38
 396 -61 396 -61 393.5 -67 c 128,-1,39
 391 -73 391 -73 384 -74 c 1,40,41
 348 -70 348 -70 300.5 -80.5 c 128,-1,42
 253 -91 253 -91 207 -100.5 c 128,-1,43
 161 -110 161 -110 122.5 -110 c 128,-1,44
 84 -110 84 -110 67 -85 c 0,0,1
EndSplineSet
EndChar

StartChar: asciicircum
Encoding: 94 94 65
Width: 260
GlyphClass: 2
Flags: W
LayerCount: 2
Fore
SplineSet
213 374 m 0,0,1
 212 376 212 376 208.5 389.5 c 128,-1,2
 205 403 205 403 200 422 c 128,-1,3
 195 441 195 441 189.5 462.5 c 128,-1,4
 184 484 184 484 178 501 c 128,-1,5
 172 518 172 518 166.5 527 c 128,-1,6
 161 536 161 536 157 532 c 1,7,8
 154 527 154 527 148 512 c 128,-1,9
 142 497 142 497 133.5 478 c 128,-1,10
 125 459 125 459 115 439 c 128,-1,11
 105 419 105 419 93 404 c 128,-1,12
 81 389 81 389 68.5 382.5 c 128,-1,13
 56 376 56 376 43 385 c 0,14,15
 38 388 38 388 33 394 c 128,-1,16
 28 400 28 400 32 407 c 0,17,18
 36 416 36 416 47.5 438.5 c 128,-1,19
 59 461 59 461 72 486.5 c 128,-1,20
 85 512 85 512 96 534.5 c 128,-1,21
 107 557 107 557 111 566 c 0,22,23
 133 613 133 613 152 625.5 c 128,-1,24
 171 638 171 638 186 627.5 c 128,-1,25
 201 617 201 617 212 588.5 c 128,-1,26
 223 560 223 560 229.5 525.5 c 128,-1,27
 236 491 236 491 238.5 455.5 c 128,-1,28
 241 420 241 420 239.5 395.5 c 128,-1,29
 238 371 238 371 231 362.5 c 128,-1,30
 224 354 224 354 213 374 c 0,0,1
EndSplineSet
EndChar

StartChar: underscore
Encoding: 95 95 66
Width: 627
GlyphClass: 2
Flags: W
LayerCount: 2
Fore
SplineSet
29 11 m 0,0,1
 27 12 27 12 22.5 16.5 c 128,-1,2
 18 21 18 21 18 23 c 0,3,4
 19 26 19 26 44 31 c 128,-1,5
 69 36 69 36 109 42 c 128,-1,6
 149 48 149 48 201 54 c 128,-1,7
 253 60 253 60 307 65 c 128,-1,8
 361 70 361 70 413 72.5 c 128,-1,9
 465 75 465 75 506.5 75 c 128,-1,10
 548 75 548 75 575 70.5 c 128,-1,11
 602 66 602 66 605 57 c 0,12,13
 606 55 606 55 606 46 c 128,-1,14
 606 37 606 37 605 34 c 1,15,16
 586 33 586 33 547 30 c 128,-1,17
 508 27 508 27 459 23.5 c 128,-1,18
 410 20 410 20 356 16.5 c 128,-1,19
 302 13 302 13 253 9.5 c 128,-1,20
 204 6 204 6 165 3.5 c 128,-1,21
 126 1 126 1 107 0 c 0,22,23
 95 -1 95 -1 85 -1 c 128,-1,24
 75 -1 75 -1 66.5 -0.5 c 128,-1,25
 58 0 58 0 49 3 c 128,-1,26
 40 6 40 6 29 11 c 0,0,1
EndSplineSet
EndChar

StartChar: grave
Encoding: 96 96 67
Width: 170
GlyphClass: 2
Flags: W
LayerCount: 2
Fore
SplineSet
118 428 m 1,0,1
 104 452 104 452 89 462 c 128,-1,2
 74 472 74 472 62.5 480 c 128,-1,3
 51 488 51 488 45.5 501 c 128,-1,4
 40 514 40 514 46 544 c 1,5,6
 68 546 68 546 90 531 c 128,-1,7
 112 516 112 516 130.5 495 c 128,-1,8
 149 474 149 474 160.5 451.5 c 128,-1,9
 172 429 172 429 173 415.5 c 128,-1,10
 174 402 174 402 161 402.5 c 128,-1,11
 148 403 148 403 118 428 c 1,0,1
EndSplineSet
EndChar

StartChar: a
Encoding: 97 97 68
Width: 702
GlyphClass: 2
Flags: W
LayerCount: 2
Fore
SplineSet
57 23 m 0,0,1
 33 43 33 43 30.5 82 c 128,-1,2
 28 121 28 121 41.5 170 c 128,-1,3
 55 219 55 219 81.5 272.5 c 128,-1,4
 108 326 108 326 143 374.5 c 128,-1,5
 178 423 178 423 219 461.5 c 128,-1,6
 260 500 260 500 301 518.5 c 128,-1,7
 342 537 342 537 381 531.5 c 128,-1,8
 420 526 420 526 452 486 c 0,9,10
 472 461 472 461 476 435.5 c 128,-1,11
 480 410 480 410 475 383.5 c 128,-1,12
 470 357 470 357 459 329.5 c 128,-1,13
 448 302 448 302 437.5 274 c 128,-1,14
 427 246 427 246 420.5 217 c 128,-1,15
 414 188 414 188 418 158 c 0,16,17
 423 120 423 120 452 113 c 128,-1,18
 481 106 481 106 521.5 117 c 128,-1,19
 562 128 562 128 607 152 c 128,-1,20
 652 176 652 176 690.5 200 c 128,-1,21
 729 224 729 224 754.5 242 c 128,-1,22
 780 260 780 260 780 260 c 1,23,24
 808 266 808 266 811.5 256.5 c 128,-1,25
 815 247 815 247 800.5 228.5 c 128,-1,26
 786 210 786 210 757 186.5 c 128,-1,27
 728 163 728 163 691 141 c 128,-1,28
 654 119 654 119 612 101 c 128,-1,29
 570 83 570 83 530 76.5 c 128,-1,30
 490 70 490 70 454.5 77.5 c 128,-1,31
 419 85 419 85 396 113 c 0,32,33
 385 125 385 125 379.5 137 c 128,-1,34
 374 149 374 149 362 158 c 1,35,36
 347 144 347 144 326 121.5 c 128,-1,37
 305 99 305 99 280.5 76.5 c 128,-1,38
 256 54 256 54 228.5 34 c 128,-1,39
 201 14 201 14 172 4 c 128,-1,40
 143 -6 143 -6 113.5 -3 c 128,-1,41
 84 0 84 0 57 23 c 0,0,1
68 57 m 0,42,43
 77 25 77 25 108 27.5 c 128,-1,44
 139 30 139 30 180 58 c 128,-1,45
 221 86 221 86 265 134.5 c 128,-1,46
 309 183 309 183 344 242.5 c 128,-1,47
 379 302 379 302 397.5 368 c 128,-1,48
 416 434 416 434 407 498 c 1,49,50
 383 517 383 517 347 499.5 c 128,-1,51
 311 482 311 482 270.5 442.5 c 128,-1,52
 230 403 230 403 190.5 348.5 c 128,-1,53
 151 294 151 294 121 238.5 c 128,-1,54
 91 183 91 183 75.5 134 c 128,-1,55
 60 85 60 85 68 57 c 0,42,43
EndSplineSet
EndChar

StartChar: b
Encoding: 98 98 69
Width: 548
GlyphClass: 2
Flags: W
LayerCount: 2
Fore
SplineSet
18 34 m 1,0,1
 16 35 16 35 16 39 c 128,-1,2
 16 43 16 43 18 45 c 0,3,4
 31 71 31 71 47 113.5 c 128,-1,5
 63 156 63 156 81 206.5 c 128,-1,6
 99 257 99 257 117.5 311.5 c 128,-1,7
 136 366 136 366 154.5 416.5 c 128,-1,8
 173 467 173 467 191 509 c 128,-1,9
 209 551 209 551 225 576.5 c 128,-1,10
 241 602 241 602 254 606.5 c 128,-1,11
 267 611 267 611 277 587 c 0,12,13
 286 564 286 564 282 539.5 c 128,-1,14
 278 515 278 515 266.5 489.5 c 128,-1,15
 255 464 255 464 239.5 437.5 c 128,-1,16
 224 411 224 411 211 385 c 128,-1,17
 198 359 198 359 190 333 c 128,-1,18
 182 307 182 307 186 282 c 1,19,20
 214 289 214 289 236.5 309 c 128,-1,21
 259 329 259 329 280.5 351.5 c 128,-1,22
 302 374 302 374 325 393 c 128,-1,23
 348 412 348 412 378 418 c 0,24,25
 425 427 425 427 457 413.5 c 128,-1,26
 489 400 489 400 504.5 372 c 128,-1,27
 520 344 520 344 519 305 c 128,-1,28
 518 266 518 266 499 224 c 128,-1,29
 480 182 480 182 442 142 c 128,-1,30
 404 102 404 102 346 71 c 128,-1,31
 288 40 288 40 209 23 c 128,-1,32
 130 6 130 6 29 11 c 1,33,34
 27 13 27 13 22.5 22 c 128,-1,35
 18 31 18 31 18 34 c 1,0,1
107 90 m 0,36,37
 106 86 106 86 106 73.5 c 128,-1,38
 106 61 106 61 107 57 c 1,39,40
 174 48 174 48 241.5 67.5 c 128,-1,41
 309 87 309 87 362 128.5 c 128,-1,42
 415 170 415 170 446 230 c 128,-1,43
 477 290 477 290 470 362 c 0,44,45
 469 364 469 364 464.5 368 c 128,-1,46
 460 372 460 372 458 373 c 0,47,48
 425 378 425 378 389 367 c 128,-1,49
 353 356 353 356 317 334.5 c 128,-1,50
 281 313 281 313 247.5 283 c 128,-1,51
 214 253 214 253 186 220 c 128,-1,52
 158 187 158 187 137.5 153 c 128,-1,53
 117 119 117 119 107 90 c 0,36,37
EndSplineSet
EndChar

StartChar: c
Encoding: 99 99 70
Width: 559
GlyphClass: 2
Flags: W
LayerCount: 2
Fore
SplineSet
102 11 m 0,0,1
 51 28 51 28 34.5 64 c 128,-1,2
 18 100 18 100 25.5 145.5 c 128,-1,3
 33 191 33 191 60 241.5 c 128,-1,4
 87 292 87 292 124 338 c 128,-1,5
 161 384 161 384 202 421 c 128,-1,6
 243 458 243 458 279.5 477 c 128,-1,7
 316 496 316 496 342 492 c 128,-1,8
 368 488 368 488 374 452 c 0,9,10
 377 436 377 436 370.5 417 c 128,-1,11
 364 398 364 398 352.5 380.5 c 128,-1,12
 341 363 341 363 326.5 348.5 c 128,-1,13
 312 334 312 334 298.5 327 c 128,-1,14
 285 320 285 320 274.5 322 c 128,-1,15
 264 324 264 324 261 339 c 1,16,17
 273 359 273 359 288 379.5 c 128,-1,18
 303 400 303 400 317 418 c 1,19,20
 311 429 311 429 294 423 c 128,-1,21
 277 417 277 417 253 399 c 128,-1,22
 229 381 229 381 202.5 353.5 c 128,-1,23
 176 326 176 326 151 294 c 128,-1,24
 126 262 126 262 106.5 227.5 c 128,-1,25
 87 193 87 193 78 161 c 128,-1,26
 69 129 69 129 73.5 101.5 c 128,-1,27
 78 74 78 74 102 57 c 1,28,29
 135 54 135 54 178 63.5 c 128,-1,30
 221 73 221 73 266 88 c 128,-1,31
 311 103 311 103 355.5 120.5 c 128,-1,32
 400 138 400 138 436.5 153 c 128,-1,33
 473 168 473 168 498.5 176.5 c 128,-1,34
 524 185 524 185 532 181 c 0,35,36
 551 171 551 171 534.5 152 c 128,-1,37
 518 133 518 133 479 111 c 128,-1,38
 440 89 440 89 386.5 67.5 c 128,-1,39
 333 46 333 46 279 30.5 c 128,-1,40
 225 15 225 15 177 8.5 c 128,-1,41
 129 2 129 2 102 11 c 0,0,1
EndSplineSet
EndChar

StartChar: d
Encoding: 100 100 71
Width: 544
GlyphClass: 2
Flags: W
LayerCount: 2
Fore
SplineSet
430 23 m 0,0,1
 392 49 392 49 375 87.5 c 128,-1,2
 358 126 358 126 350 170 c 1,3,-1
 339 170 l 1,4,5
 258 104 258 104 198.5 71 c 128,-1,6
 139 38 139 38 98 30.5 c 128,-1,7
 57 23 57 23 34 37 c 128,-1,8
 11 51 11 51 4.5 77.5 c 128,-1,9
 -2 104 -2 104 7 140 c 128,-1,10
 16 176 16 176 38 212.5 c 128,-1,11
 60 249 60 249 95 282 c 128,-1,12
 130 315 130 315 175.5 336 c 128,-1,13
 221 357 221 357 276.5 362.5 c 128,-1,14
 332 368 332 368 396 350 c 1,15,-1
 407 362 l 1,16,-1
 542 633 l 1,17,18
 569 629 569 629 574 609 c 128,-1,19
 579 589 579 589 573.5 565 c 128,-1,20
 568 541 568 541 557.5 518.5 c 128,-1,21
 547 496 547 496 542 486 c 0,22,23
 539 480 539 480 530.5 463 c 128,-1,24
 522 446 522 446 510.5 422.5 c 128,-1,25
 499 399 499 399 486 373 c 128,-1,26
 473 347 473 347 461.5 323.5 c 128,-1,27
 450 300 450 300 441 282.5 c 128,-1,28
 432 265 432 265 430 260 c 0,29,30
 412 223 412 223 413.5 181.5 c 128,-1,31
 415 140 415 140 418 102 c 1,32,33
 422 84 422 84 434 72.5 c 128,-1,34
 446 61 446 61 459.5 51.5 c 128,-1,35
 473 42 473 42 486.5 33 c 128,-1,36
 500 24 500 24 509 11 c 1,37,38
 505 -2 505 -2 493 -2.5 c 128,-1,39
 481 -3 481 -3 468 2 c 128,-1,40
 455 7 455 7 444 14 c 128,-1,41
 433 21 433 21 430 23 c 0,0,1
57 68 m 1,42,43
 61 51 61 51 87.5 58 c 128,-1,44
 114 65 114 65 150 87.5 c 128,-1,45
 186 110 186 110 226.5 142 c 128,-1,46
 267 174 267 174 299.5 206 c 128,-1,47
 332 238 332 238 350.5 265 c 128,-1,48
 369 292 369 292 362 305 c 1,49,50
 331 322 331 322 293 322 c 128,-1,51
 255 322 255 322 217.5 308.5 c 128,-1,52
 180 295 180 295 145.5 270.5 c 128,-1,53
 111 246 111 246 87.5 214 c 128,-1,54
 64 182 64 182 54.5 144.5 c 128,-1,55
 45 107 45 107 57 68 c 1,42,43
EndSplineSet
EndChar

StartChar: e
Encoding: 101 101 72
Width: 435
GlyphClass: 2
Flags: W
LayerCount: 2
Fore
SplineSet
85 11 m 0,0,1
 55 21 55 21 39.5 41.5 c 128,-1,2
 24 62 24 62 19 87 c 128,-1,3
 14 112 14 112 17.5 139.5 c 128,-1,4
 21 167 21 167 29 192 c 1,5,6
 59 224 59 224 96.5 265.5 c 128,-1,7
 134 307 134 307 176 347 c 128,-1,8
 218 387 218 387 263.5 421.5 c 128,-1,9
 309 456 309 456 356 474 c 0,10,11
 372 481 372 481 381.5 473.5 c 128,-1,12
 391 466 391 466 395 450 c 128,-1,13
 399 434 399 434 398.5 413 c 128,-1,14
 398 392 398 392 395 372 c 128,-1,15
 392 352 392 352 387 336 c 128,-1,16
 382 320 382 320 377 314 c 0,17,18
 365 300 365 300 330.5 281 c 128,-1,19
 296 262 296 262 254 239.5 c 128,-1,20
 212 217 212 217 170 193 c 128,-1,21
 128 169 128 169 101 145.5 c 128,-1,22
 74 122 74 122 69 99 c 128,-1,23
 64 76 64 76 97 57 c 1,24,25
 131 53 131 53 179.5 60.5 c 128,-1,26
 228 68 228 68 278.5 80.5 c 128,-1,27
 329 93 329 93 376 106.5 c 128,-1,28
 423 120 423 120 453 128 c 1,29,-1
 465 117 l 1,30,31
 443 88 443 88 393 64 c 128,-1,32
 343 40 343 40 285 24.5 c 128,-1,33
 227 9 227 9 172 4.5 c 128,-1,34
 117 0 117 0 85 11 c 0,0,1
324 393 m 0,35,36
 323 394 323 394 309 384.5 c 128,-1,37
 295 375 295 375 274.5 359.5 c 128,-1,38
 254 344 254 344 230.5 325.5 c 128,-1,39
 207 307 207 307 187.5 291 c 128,-1,40
 168 275 168 275 155 263.5 c 128,-1,41
 142 252 142 252 144 252 c 0,42,43
 160 249 160 249 185.5 256.5 c 128,-1,44
 211 264 211 264 238.5 278 c 128,-1,45
 266 292 266 292 291 309.5 c 128,-1,46
 316 327 316 327 330.5 344 c 128,-1,47
 345 361 345 361 345.5 374 c 128,-1,48
 346 387 346 387 324 393 c 0,35,36
EndSplineSet
EndChar

StartChar: f
Encoding: 102 102 73
Width: 470
GlyphClass: 2
Flags: W
LayerCount: 2
Fore
SplineSet
40 23 m 0,0,1
 38 25 38 25 38 34 c 128,-1,2
 38 43 38 43 40 45 c 1,3,-1
 124 238 l 1,4,-1
 29 238 l 2,5,6
 26 238 26 238 23.5 242 c 128,-1,7
 21 246 21 246 19.5 251.5 c 128,-1,8
 18 257 18 257 17 262.5 c 128,-1,9
 16 268 16 268 18 271 c 1,10,11
 21 272 21 272 29 275 c 128,-1,12
 37 278 37 278 46 282 c 128,-1,13
 55 286 55 286 63 289 c 128,-1,14
 71 292 71 292 74 294 c 0,15,16
 77 295 77 295 90.5 300 c 128,-1,17
 104 305 104 305 119.5 310.5 c 128,-1,18
 135 316 135 316 148 321 c 128,-1,19
 161 326 161 326 164 328 c 0,20,21
 176 336 176 336 192.5 367.5 c 128,-1,22
 209 399 209 399 230 443 c 128,-1,23
 251 487 251 487 276 537.5 c 128,-1,24
 301 588 301 588 330 634.5 c 128,-1,25
 359 681 359 681 391 717.5 c 128,-1,26
 423 754 423 754 457.5 769.5 c 128,-1,27
 492 785 492 785 529 774 c 128,-1,28
 566 763 566 763 605 715 c 0,29,30
 612 705 612 705 615 693.5 c 128,-1,31
 618 682 618 682 616 670 c 1,32,33
 607 665 607 665 598 668 c 128,-1,34
 589 671 589 671 581.5 678 c 128,-1,35
 574 685 574 685 568 692.5 c 128,-1,36
 562 700 562 700 560 704 c 1,37,38
 493 715 493 715 453.5 698.5 c 128,-1,39
 414 682 414 682 388.5 648.5 c 128,-1,40
 363 615 363 615 344 569 c 128,-1,41
 325 523 325 523 300 474 c 0,42,43
 293 462 293 462 283.5 443 c 128,-1,44
 274 424 274 424 265 406 c 128,-1,45
 256 388 256 388 249.5 375 c 128,-1,46
 243 362 243 362 243 362 c 1,47,-1
 243 350 l 2,48,49
 243 346 243 346 268 344 c 128,-1,50
 293 342 293 342 324.5 338 c 128,-1,51
 356 334 356 334 385.5 326.5 c 128,-1,52
 415 319 415 319 424 305 c 1,53,-1
 413 294 l 1,54,55
 356 297 356 297 317 296 c 128,-1,56
 278 295 278 295 249 283 c 128,-1,57
 220 271 220 271 198 244.5 c 128,-1,58
 176 218 176 218 153 170 c 0,59,60
 145 153 145 153 132 126.5 c 128,-1,61
 119 100 119 100 106 74.5 c 128,-1,62
 93 49 93 49 84 30.5 c 128,-1,63
 75 12 75 12 74 11 c 2,64,-1
 62 0 l 1,65,66
 59 2 59 2 50.5 10.5 c 128,-1,67
 42 19 42 19 40 23 c 0,0,1
EndSplineSet
EndChar

StartChar: g
Encoding: 103 103 74
Width: 362
GlyphClass: 2
Flags: W
LayerCount: 2
Fore
SplineSet
-136 -282 m 0,0,1
 -167 -271 -167 -271 -186.5 -249 c 128,-1,2
 -206 -227 -206 -227 -216.5 -201.5 c 128,-1,3
 -227 -176 -227 -176 -229.5 -150 c 128,-1,4
 -232 -124 -232 -124 -228.5 -104 c 128,-1,5
 -225 -84 -225 -84 -216.5 -73.5 c 128,-1,6
 -208 -63 -208 -63 -197 -68 c 1,7,8
 -198 -155 -198 -155 -176.5 -199.5 c 128,-1,9
 -155 -244 -155 -244 -120.5 -255.5 c 128,-1,10
 -86 -267 -86 -267 -42.5 -250 c 128,-1,11
 1 -233 1 -233 45.5 -197.5 c 128,-1,12
 90 -162 90 -162 130.5 -112.5 c 128,-1,13
 171 -63 171 -63 199 -9.5 c 128,-1,14
 227 44 227 44 239 96.5 c 128,-1,15
 251 149 251 149 238 192 c 1,16,17
 148 127 148 127 98 110 c 128,-1,18
 48 93 48 93 28.5 108.5 c 128,-1,19
 9 124 9 124 16 164 c 128,-1,20
 23 204 23 204 46 252 c 128,-1,21
 69 300 69 300 104 348.5 c 128,-1,22
 139 397 139 397 176 430 c 128,-1,23
 213 463 213 463 247.5 472 c 128,-1,24
 282 481 282 481 305 451 c 0,25,26
 328 420 328 420 334 367.5 c 128,-1,27
 340 315 340 315 331 251 c 128,-1,28
 322 187 322 187 299.5 117 c 128,-1,29
 277 47 277 47 244 -19.5 c 128,-1,30
 211 -86 211 -86 168.5 -143 c 128,-1,31
 126 -200 126 -200 77 -238 c 128,-1,32
 28 -276 28 -276 -26 -289.5 c 128,-1,33
 -80 -303 -80 -303 -136 -282 c 0,0,1
68 214 m 0,34,35
 67 211 67 211 66.5 203 c 128,-1,36
 66 195 66 195 66 186 c 128,-1,37
 66 177 66 177 66.5 169 c 128,-1,38
 67 161 67 161 68 158 c 1,39,40
 100 150 100 150 134 173 c 128,-1,41
 168 196 168 196 196.5 232 c 128,-1,42
 225 268 225 268 244.5 308 c 128,-1,43
 264 348 264 348 268.5 375 c 128,-1,44
 273 402 273 402 258 405.5 c 128,-1,45
 243 409 243 409 203 373 c 0,46,47
 191 362 191 362 171 343 c 128,-1,48
 151 324 151 324 130.5 302 c 128,-1,49
 110 280 110 280 92.5 256.5 c 128,-1,50
 75 233 75 233 68 214 c 0,34,35
EndSplineSet
EndChar

StartChar: h
Encoding: 104 104 75
Width: 554
GlyphClass: 2
Flags: W
LayerCount: 2
Fore
SplineSet
11 23 m 0,0,1
 10 25 10 25 10 28.5 c 128,-1,2
 10 32 10 32 11 34 c 0,3,4
 15 42 15 42 24.5 61.5 c 128,-1,5
 34 81 34 81 44.5 102.5 c 128,-1,6
 55 124 55 124 65 143 c 128,-1,7
 75 162 75 162 79 170 c 0,8,9
 81 173 81 173 89.5 187 c 128,-1,10
 98 201 98 201 110.5 221.5 c 128,-1,11
 123 242 123 242 137.5 267 c 128,-1,12
 152 292 152 292 166.5 316 c 128,-1,13
 181 340 181 340 193.5 361 c 128,-1,14
 206 382 206 382 214 396 c 0,15,16
 234 429 234 429 260.5 474 c 128,-1,17
 287 519 287 519 315 565 c 128,-1,18
 343 611 343 611 370.5 654 c 128,-1,19
 398 697 398 697 421 725 c 128,-1,20
 444 753 444 753 460 762 c 128,-1,21
 476 771 476 771 482 750 c 1,22,-1
 482 718 l 1,23,24
 475 707 475 707 463 689.5 c 128,-1,25
 451 672 451 672 438.5 652.5 c 128,-1,26
 426 633 426 633 414 615 c 128,-1,27
 402 597 402 597 396 587 c 0,28,29
 387 573 387 573 367 542 c 128,-1,30
 347 511 347 511 322 472 c 128,-1,31
 297 433 297 433 271 390.5 c 128,-1,32
 245 348 245 348 224 311 c 128,-1,33
 203 274 203 274 190.5 247.5 c 128,-1,34
 178 221 178 221 181 214 c 1,35,36
 205 221 205 221 232.5 239.5 c 128,-1,37
 260 258 260 258 288 279 c 128,-1,38
 316 300 316 300 344 319.5 c 128,-1,39
 372 339 372 339 396 350 c 1,40,41
 420 347 420 347 438 332 c 128,-1,42
 456 317 456 317 464 294 c 1,43,44
 463 285 463 285 462.5 260.5 c 128,-1,45
 462 236 462 236 462 209 c 128,-1,46
 462 182 462 182 462.5 158 c 128,-1,47
 463 134 463 134 464 125 c 0,48,49
 465 114 465 114 474 97.5 c 128,-1,50
 483 81 483 81 493.5 64.5 c 128,-1,51
 504 48 504 48 512.5 36 c 128,-1,52
 521 24 521 24 520 23 c 0,53,54
 500 16 500 16 482 22.5 c 128,-1,55
 464 29 464 29 450.5 43.5 c 128,-1,56
 437 58 437 58 428.5 76.5 c 128,-1,57
 420 95 420 95 418 113 c 0,58,59
 417 122 417 122 415 146.5 c 128,-1,60
 413 171 413 171 411.5 198 c 128,-1,61
 410 225 410 225 408.5 249 c 128,-1,62
 407 273 407 273 407 282 c 1,63,-1
 384 294 l 2,64,65
 378 297 378 297 363.5 289 c 128,-1,66
 349 281 349 281 330 267 c 128,-1,67
 311 253 311 253 290 235 c 128,-1,68
 269 217 269 217 250.5 201 c 128,-1,69
 232 185 232 185 219 173 c 128,-1,70
 206 161 206 161 203 158 c 0,71,72
 195 150 195 150 174 129.5 c 128,-1,73
 153 109 153 109 129.5 85.5 c 128,-1,74
 106 62 106 62 85.5 41 c 128,-1,75
 65 20 65 20 57 11 c 1,76,77
 43 8 43 8 30.5 8.5 c 128,-1,78
 18 9 18 9 11 23 c 0,0,1
EndSplineSet
EndChar

StartChar: i
Encoding: 105 105 76
Width: 254
GlyphClass: 2
Flags: W
LayerCount: 2
Fore
SplineSet
11 11 m 1,0,1
 52 143 52 143 85.5 220.5 c 128,-1,2
 119 298 119 298 141.5 329 c 128,-1,3
 164 360 164 360 172 349 c 128,-1,4
 180 338 180 338 170.5 293 c 128,-1,5
 161 248 161 248 130.5 172.5 c 128,-1,6
 100 97 100 97 45 0 c 1,7,8
 37 -3 37 -3 26 -1 c 128,-1,9
 15 1 15 1 11 11 c 1,0,1
186 492 m 0,10,11
 184 497 184 497 184 510 c 128,-1,12
 184 523 184 523 186 526 c 1,13,14
 209 534 209 534 221 528 c 128,-1,15
 233 522 233 522 236 510.5 c 128,-1,16
 239 499 239 499 235.5 486 c 128,-1,17
 232 473 232 473 224 466.5 c 128,-1,18
 216 460 216 460 205.5 464.5 c 128,-1,19
 195 469 195 469 186 492 c 0,10,11
EndSplineSet
EndChar

StartChar: j
Encoding: 106 106 77
Width: 186
GlyphClass: 2
Flags: W
LayerCount: 2
Fore
SplineSet
-243 -350 m 0,0,1
 -268 -339 -268 -339 -293.5 -320 c 128,-1,2
 -319 -301 -319 -301 -333.5 -278 c 128,-1,3
 -348 -255 -348 -255 -345.5 -229.5 c 128,-1,4
 -343 -204 -343 -204 -311 -180 c 1,5,6
 -304 -181 -304 -181 -301 -190 c 128,-1,7
 -298 -199 -298 -199 -296.5 -212 c 128,-1,8
 -295 -225 -295 -225 -293.5 -240 c 128,-1,9
 -292 -255 -292 -255 -286.5 -269 c 128,-1,10
 -281 -283 -281 -283 -271 -293 c 128,-1,11
 -261 -303 -261 -303 -243 -305 c 0,12,13
 -197 -312 -197 -312 -160 -290.5 c 128,-1,14
 -123 -269 -123 -269 -93.5 -229 c 128,-1,15
 -64 -189 -64 -189 -40 -135.5 c 128,-1,16
 -16 -82 -16 -82 4 -25 c 128,-1,17
 24 32 24 32 40 89 c 128,-1,18
 56 146 56 146 71 192 c 128,-1,19
 86 238 86 238 100 269 c 128,-1,20
 114 300 114 300 130 306 c 1,21,22
 143 301 143 301 142.5 267 c 128,-1,23
 142 233 142 233 130.5 180.5 c 128,-1,24
 119 128 119 128 98 63.5 c 128,-1,25
 77 -1 77 -1 49 -65.5 c 128,-1,26
 21 -130 21 -130 -13.5 -189 c 128,-1,27
 -48 -248 -48 -248 -85.5 -289.5 c 128,-1,28
 -123 -331 -123 -331 -163 -349 c 128,-1,29
 -203 -367 -203 -367 -243 -350 c 0,0,1
130 475 m 1,30,31
 116 493 116 493 122 503.5 c 128,-1,32
 128 514 128 514 139 513 c 128,-1,33
 150 512 150 512 160 497.5 c 128,-1,34
 170 483 170 483 164 452 c 1,35,36
 159 449 159 449 153 452 c 128,-1,37
 147 455 147 455 142 460 c 128,-1,38
 137 465 137 465 133.5 470 c 128,-1,39
 130 475 130 475 130 475 c 1,30,31
EndSplineSet
EndChar

StartChar: k
Encoding: 107 107 78
Width: 729
GlyphClass: 2
Flags: W
LayerCount: 2
Fore
SplineSet
424 34 m 0,0,1
 360 122 360 122 321 179.5 c 128,-1,2
 282 237 282 237 257 265 c 128,-1,3
 232 293 232 293 216 292 c 128,-1,4
 200 291 200 291 181.5 261.5 c 128,-1,5
 163 232 163 232 136 175 c 128,-1,6
 109 118 109 118 62 34 c 0,7,8
 56 23 56 23 49.5 20.5 c 128,-1,9
 43 18 43 18 37 20.5 c 128,-1,10
 31 23 31 23 26 30 c 128,-1,11
 21 37 21 37 18 45 c 0,12,13
 15 55 15 55 25 83.5 c 128,-1,14
 35 112 35 112 54.5 152.5 c 128,-1,15
 74 193 74 193 100.5 242.5 c 128,-1,16
 127 292 127 292 156.5 344 c 128,-1,17
 186 396 186 396 215.5 447 c 128,-1,18
 245 498 245 498 270.5 541.5 c 128,-1,19
 296 585 296 585 316 618 c 128,-1,20
 336 651 336 651 345 667 c 1,21,22
 352 672 352 672 359.5 668 c 128,-1,23
 367 664 367 664 372.5 655.5 c 128,-1,24
 378 647 378 647 380 637.5 c 128,-1,25
 382 628 382 628 378 622 c 2,26,-1
 288 464 l 1,27,-1
 288 441 l 1,28,29
 309 436 309 436 340.5 444.5 c 128,-1,30
 372 453 372 453 408.5 469 c 128,-1,31
 445 485 445 485 483 506.5 c 128,-1,32
 521 528 521 528 555.5 549.5 c 128,-1,33
 590 571 590 571 617.5 590.5 c 128,-1,34
 645 610 645 610 661 622 c 1,35,36
 674 629 674 629 684.5 626 c 128,-1,37
 695 623 695 623 700.5 615 c 128,-1,38
 706 607 706 607 705 596 c 128,-1,39
 704 585 704 585 695 576 c 0,40,41
 667 547 667 547 628.5 526.5 c 128,-1,42
 590 506 590 506 547 489.5 c 128,-1,43
 504 473 504 473 459.5 458.5 c 128,-1,44
 415 444 415 444 374 427 c 128,-1,45
 333 410 333 410 299 389 c 128,-1,46
 265 368 265 368 243 339 c 1,47,48
 256 328 256 328 277.5 304.5 c 128,-1,49
 299 281 299 281 324.5 252 c 128,-1,50
 350 223 350 223 376 190.5 c 128,-1,51
 402 158 402 158 422.5 127.5 c 128,-1,52
 443 97 443 97 456.5 72.5 c 128,-1,53
 470 48 470 48 470 34 c 2,54,-1
 470 11 l 1,55,56
 462 7 462 7 455.5 8.5 c 128,-1,57
 449 10 449 10 443 14 c 128,-1,58
 437 18 437 18 432.5 23.5 c 128,-1,59
 428 29 428 29 424 34 c 0,0,1
EndSplineSet
EndChar

StartChar: l
Encoding: 108 108 79
Width: 328
GlyphClass: 2
Flags: W
LayerCount: 2
Fore
SplineSet
57 11 m 0,0,1
 28 32 28 32 19.5 64 c 128,-1,2
 11 96 11 96 17 133.5 c 128,-1,3
 23 171 23 171 38.5 211 c 128,-1,4
 54 251 54 251 72.5 288 c 128,-1,5
 91 325 91 325 108.5 356 c 128,-1,6
 126 387 126 387 136 407 c 0,7,8
 139 413 139 413 150.5 436 c 128,-1,9
 162 459 162 459 175 486 c 128,-1,10
 188 513 188 513 199.5 536.5 c 128,-1,11
 211 560 211 560 214 566 c 0,12,13
 217 571 217 571 222.5 585.5 c 128,-1,14
 228 600 228 600 235 617 c 128,-1,15
 242 634 242 634 250.5 649.5 c 128,-1,16
 259 665 259 665 268.5 672 c 128,-1,17
 278 679 278 679 287.5 674 c 128,-1,18
 297 669 297 669 306 644 c 1,19,20
 302 634 302 634 286.5 604 c 128,-1,21
 271 574 271 574 250 532 c 128,-1,22
 229 490 229 490 203.5 439 c 128,-1,23
 178 388 178 388 154 336 c 128,-1,24
 130 284 130 284 109 234.5 c 128,-1,25
 88 185 88 185 74.5 144.5 c 128,-1,26
 61 104 61 104 58.5 77.5 c 128,-1,27
 56 51 56 51 68 45 c 0,28,29
 82 38 82 38 104.5 39.5 c 128,-1,30
 127 41 127 41 151 45 c 128,-1,31
 175 49 175 49 198 53.5 c 128,-1,32
 221 58 221 58 238 57 c 1,33,34
 242 48 242 48 232 39.5 c 128,-1,35
 222 31 222 31 204 24.5 c 128,-1,36
 186 18 186 18 162.5 13.5 c 128,-1,37
 139 9 139 9 117.5 7 c 128,-1,38
 96 5 96 5 79.5 6 c 128,-1,39
 63 7 63 7 57 11 c 0,0,1
EndSplineSet
EndChar

StartChar: m
Encoding: 109 109 80
Width: 825
GlyphClass: 2
Flags: W
LayerCount: 2
Fore
SplineSet
622 23 m 1,0,1
 611 36 611 36 609.5 52.5 c 128,-1,2
 608 69 608 69 611.5 85.5 c 128,-1,3
 615 102 615 102 621.5 117.5 c 128,-1,4
 628 133 628 133 634 146 c 0,5,6
 638 156 638 156 650.5 182.5 c 128,-1,7
 663 209 663 209 677.5 238 c 128,-1,8
 692 267 692 267 705 292.5 c 128,-1,9
 718 318 718 318 723 328 c 1,10,-1
 723 350 l 1,11,12
 713 355 713 355 682 336.5 c 128,-1,13
 651 318 651 318 610 285.5 c 128,-1,14
 569 253 569 253 523 213 c 128,-1,15
 477 173 477 173 436.5 136.5 c 128,-1,16
 396 100 396 100 366 71.5 c 128,-1,17
 336 43 336 43 328 34 c 1,18,19
 306 27 306 27 299.5 43.5 c 128,-1,20
 293 60 293 60 296 89.5 c 128,-1,21
 299 119 299 119 308 155.5 c 128,-1,22
 317 192 317 192 326.5 224.5 c 128,-1,23
 336 257 336 257 343.5 280 c 128,-1,24
 351 303 351 303 350 305 c 1,25,26
 330 312 330 312 308 300 c 128,-1,27
 286 288 286 288 263 264.5 c 128,-1,28
 240 241 240 241 217 209.5 c 128,-1,29
 194 178 194 178 171 146.5 c 128,-1,30
 148 115 148 115 127 86.5 c 128,-1,31
 106 58 106 58 87 40 c 128,-1,32
 68 22 68 22 51.5 19 c 128,-1,33
 35 16 35 16 23 34 c 0,34,35
 22 35 22 35 22 39 c 128,-1,36
 22 43 22 43 23 45 c 0,37,38
 28 55 28 55 38.5 76.5 c 128,-1,39
 49 98 49 98 62 125 c 128,-1,40
 75 152 75 152 90 181.5 c 128,-1,41
 105 211 105 211 118.5 237.5 c 128,-1,42
 132 264 132 264 142.5 285 c 128,-1,43
 153 306 153 306 159 316 c 0,44,45
 164 326 164 326 173 341.5 c 128,-1,46
 182 357 182 357 191 371.5 c 128,-1,47
 200 386 200 386 207 396.5 c 128,-1,48
 214 407 214 407 214 407 c 1,49,-1
 238 407 l 1,50,51
 245 384 245 384 236 364 c 128,-1,52
 227 344 227 344 214.5 325 c 128,-1,53
 202 306 202 306 193.5 287.5 c 128,-1,54
 185 269 185 269 193 248 c 1,55,56
 279 324 279 324 325.5 360 c 128,-1,57
 372 396 372 396 391 401 c 128,-1,58
 410 406 410 406 409 386 c 128,-1,59
 408 366 408 366 400.5 332 c 128,-1,60
 393 298 393 298 385.5 254.5 c 128,-1,61
 378 211 378 211 384 170 c 1,62,-1
 396 170 l 1,63,64
 402 174 402 174 416 185 c 128,-1,65
 430 196 430 196 446.5 209 c 128,-1,66
 463 222 463 222 477.5 233 c 128,-1,67
 492 244 492 244 498 248 c 0,68,69
 509 257 509 257 530 273 c 128,-1,70
 551 289 551 289 572.5 305.5 c 128,-1,71
 594 322 594 322 611.5 334.5 c 128,-1,72
 629 347 629 347 634 350 c 0,73,74
 638 353 638 353 651.5 362.5 c 128,-1,75
 665 372 665 372 681.5 383 c 128,-1,76
 698 394 698 394 713 403.5 c 128,-1,77
 728 413 728 413 735 418 c 0,78,79
 750 428 750 428 763 427 c 128,-1,80
 776 426 776 426 784.5 417.5 c 128,-1,81
 793 409 793 409 795 394.5 c 128,-1,82
 797 380 797 380 791 362 c 1,83,84
 767 317 767 317 743.5 274 c 128,-1,85
 720 231 720 231 700.5 187.5 c 128,-1,86
 681 144 681 144 668.5 98 c 128,-1,87
 656 52 656 52 655 0 c 1,88,89
 650 -3 650 -3 644.5 0 c 128,-1,90
 639 3 639 3 634 8 c 128,-1,91
 629 13 629 13 625.5 18 c 128,-1,92
 622 23 622 23 622 23 c 1,0,1
EndSplineSet
EndChar

StartChar: n
Encoding: 110 110 81
Width: 576
GlyphClass: 2
Flags: W
LayerCount: 2
Fore
SplineSet
390 11 m 0,0,1
 387 44 387 44 395.5 76.5 c 128,-1,2
 404 109 404 109 418.5 140.5 c 128,-1,3
 433 172 433 172 449.5 203.5 c 128,-1,4
 466 235 466 235 478 265.5 c 128,-1,5
 490 296 490 296 495 325.5 c 128,-1,6
 500 355 500 355 491 384 c 1,7,8
 466 393 466 393 433.5 380 c 128,-1,9
 401 367 401 367 365 340.5 c 128,-1,10
 329 314 329 314 290.5 278.5 c 128,-1,11
 252 243 252 243 215.5 206.5 c 128,-1,12
 179 170 179 170 146 137 c 128,-1,13
 113 104 113 104 86.5 82.5 c 128,-1,14
 60 61 60 61 42 55.5 c 128,-1,15
 24 50 24 50 18 68 c 0,16,17
 17 69 17 69 29.5 93.5 c 128,-1,18
 42 118 42 118 60.5 155 c 128,-1,19
 79 192 79 192 101.5 235 c 128,-1,20
 124 278 124 278 144 315.5 c 128,-1,21
 164 353 164 353 179 379 c 128,-1,22
 194 405 194 405 198 407 c 1,23,24
 219 393 219 393 219.5 376.5 c 128,-1,25
 220 360 220 360 214 342.5 c 128,-1,26
 208 325 208 325 200.5 307 c 128,-1,27
 193 289 193 289 198 271 c 1,28,29
 214 282 214 282 242.5 301.5 c 128,-1,30
 271 321 271 321 304.5 342 c 128,-1,31
 338 363 338 363 374.5 383 c 128,-1,32
 411 403 411 403 443 414.5 c 128,-1,33
 475 426 475 426 500.5 427 c 128,-1,34
 526 428 526 428 538 412 c 128,-1,35
 550 396 550 396 545.5 359.5 c 128,-1,36
 541 323 541 323 514 260 c 0,37,38
 511 253 511 253 499.5 226.5 c 128,-1,39
 488 200 488 200 474.5 169.5 c 128,-1,40
 461 139 461 139 449.5 112.5 c 128,-1,41
 438 86 438 86 435 79 c 0,42,43
 434 75 434 75 432.5 64.5 c 128,-1,44
 431 54 431 54 429 41.5 c 128,-1,45
 427 29 427 29 423 17.5 c 128,-1,46
 419 6 419 6 413 0 c 256,47,48
 407 -6 407 -6 399 1.5 c 128,-1,49
 391 9 391 9 390 11 c 0,0,1
EndSplineSet
EndChar

StartChar: o
Encoding: 111 111 82
Width: 430
GlyphClass: 2
Flags: W
LayerCount: 2
Fore
SplineSet
79 11 m 0,0,1
 37 28 37 28 26.5 62 c 128,-1,2
 16 96 16 96 27 137.5 c 128,-1,3
 38 179 38 179 65 223.5 c 128,-1,4
 92 268 92 268 125 305 c 128,-1,5
 158 342 158 342 191.5 367.5 c 128,-1,6
 225 393 225 393 249 396 c 0,7,8
 311 404 311 404 346.5 387.5 c 128,-1,9
 382 371 382 371 395 340 c 128,-1,10
 408 309 408 309 402 267.5 c 128,-1,11
 396 226 396 226 375.5 184 c 128,-1,12
 355 142 355 142 322.5 103 c 128,-1,13
 290 64 290 64 250.5 37.5 c 128,-1,14
 211 11 211 11 167 2.5 c 128,-1,15
 123 -6 123 -6 79 11 c 0,0,1
68 68 m 0,16,17
 76 36 76 36 102 32.5 c 128,-1,18
 128 29 128 29 162.5 45.5 c 128,-1,19
 197 62 197 62 235 93.5 c 128,-1,20
 273 125 273 125 304.5 162 c 128,-1,21
 336 199 336 199 356.5 236.5 c 128,-1,22
 377 274 377 274 376.5 302 c 128,-1,23
 376 330 376 330 349.5 344.5 c 128,-1,24
 323 359 323 359 261 350 c 1,25,26
 247 337 247 337 225 318.5 c 128,-1,27
 203 300 203 300 179.5 278 c 128,-1,28
 156 256 156 256 133 230.5 c 128,-1,29
 110 205 110 205 93 178 c 128,-1,30
 76 151 76 151 68.5 123 c 128,-1,31
 61 95 61 95 68 68 c 0,16,17
EndSplineSet
EndChar

StartChar: p
Encoding: 112 112 83
Width: 542
GlyphClass: 2
Flags: W
LayerCount: 2
Fore
SplineSet
-90 -350 m 0,0,1
 -99 -294 -99 -294 -84.5 -236.5 c 128,-1,2
 -70 -179 -70 -179 -46.5 -122 c 128,-1,3
 -23 -65 -23 -65 1 -8.5 c 128,-1,4
 25 48 25 48 34 102 c 0,5,6
 34 104 34 104 42.5 114 c 128,-1,7
 51 124 51 124 61.5 135.5 c 128,-1,8
 72 147 72 147 80.5 157.5 c 128,-1,9
 89 168 89 168 90 170 c 0,10,11
 106 205 106 205 122.5 234.5 c 128,-1,12
 139 264 139 264 148 292 c 128,-1,13
 157 320 157 320 156 347.5 c 128,-1,14
 155 375 155 375 136 407 c 0,15,16
 134 409 134 409 134 413 c 128,-1,17
 134 417 134 417 136 418 c 0,18,19
 165 455 165 455 203 480 c 128,-1,20
 241 505 241 505 284 520 c 128,-1,21
 327 535 327 535 373 540 c 128,-1,22
 419 545 419 545 464 542 c 1,23,24
 502 510 502 510 512.5 469.5 c 128,-1,25
 523 429 523 429 513.5 385.5 c 128,-1,26
 504 342 504 342 478.5 298 c 128,-1,27
 453 254 453 254 420 216 c 128,-1,28
 387 178 387 178 350.5 148 c 128,-1,29
 314 118 314 118 282 102 c 0,30,31
 253 88 253 88 239.5 83.5 c 128,-1,32
 226 79 226 79 213 78 c 128,-1,33
 200 77 200 77 181.5 76 c 128,-1,34
 163 75 163 75 125 68 c 0,35,36
 108 65 108 65 96.5 52.5 c 128,-1,37
 85 40 85 40 77.5 24.5 c 128,-1,38
 70 9 70 9 65.5 -7.5 c 128,-1,39
 61 -24 61 -24 57 -34 c 0,40,41
 39 -78 39 -78 24.5 -115.5 c 128,-1,42
 10 -153 10 -153 -3.5 -189.5 c 128,-1,43
 -17 -226 -17 -226 -30 -265 c 128,-1,44
 -43 -304 -43 -304 -57 -350 c 0,45,46
 -59 -355 -59 -355 -64 -358.5 c 128,-1,47
 -69 -362 -69 -362 -74.5 -362.5 c 128,-1,48
 -80 -363 -80 -363 -84.5 -360.5 c 128,-1,49
 -89 -358 -89 -358 -90 -350 c 0,0,1
136 113 m 1,50,51
 182 104 182 104 225.5 118 c 128,-1,52
 269 132 269 132 307 161.5 c 128,-1,53
 345 191 345 191 375.5 232.5 c 128,-1,54
 406 274 406 274 427 320 c 128,-1,55
 448 366 448 366 458 412.5 c 128,-1,56
 468 459 468 459 464 498 c 1,57,58
 450 510 450 510 430.5 510.5 c 128,-1,59
 411 511 411 511 396 509 c 0,60,61
 342 502 342 502 311 481.5 c 128,-1,62
 280 461 280 461 260.5 430 c 128,-1,63
 241 399 241 399 227 358.5 c 128,-1,64
 213 318 213 318 193 271 c 0,65,66
 189 264 189 264 181 246.5 c 128,-1,67
 173 229 173 229 164 209.5 c 128,-1,68
 155 190 155 190 147 172 c 128,-1,69
 139 154 139 154 136 147 c 1,70,-1
 136 113 l 1,50,51
EndSplineSet
EndChar

StartChar: q
Encoding: 113 113 84
Width: 396
GlyphClass: 2
Flags: W
LayerCount: 2
Fore
SplineSet
62 -350 m 0,0,1
 33 -322 33 -322 28.5 -282 c 128,-1,2
 24 -242 24 -242 32 -200 c 128,-1,3
 40 -158 40 -158 56 -117 c 128,-1,4
 72 -76 72 -76 85 -45 c 0,5,6
 106 5 106 5 111.5 34.5 c 128,-1,7
 117 64 117 64 113 80 c 128,-1,8
 109 96 109 96 97 102 c 128,-1,9
 85 108 85 108 71.5 110.5 c 128,-1,10
 58 113 58 113 44.5 115 c 128,-1,11
 31 117 31 117 23 125.5 c 128,-1,12
 15 134 15 134 15 152 c 128,-1,13
 15 170 15 170 29 204 c 0,14,15
 33 215 33 215 47.5 235.5 c 128,-1,16
 62 256 62 256 83.5 280.5 c 128,-1,17
 105 305 105 305 132 331.5 c 128,-1,18
 159 358 159 358 187.5 380.5 c 128,-1,19
 216 403 216 403 244.5 418.5 c 128,-1,20
 273 434 273 434 297 437 c 128,-1,21
 321 440 321 440 340 428 c 128,-1,22
 359 416 359 416 368 384 c 0,23,24
 370 376 370 376 368 362 c 128,-1,25
 366 348 366 348 361.5 332.5 c 128,-1,26
 357 317 357 317 352.5 303 c 128,-1,27
 348 289 348 289 345 282 c 0,28,29
 335 254 335 254 304.5 209.5 c 128,-1,30
 274 165 274 165 237 111 c 128,-1,31
 200 57 200 57 162 -2.5 c 128,-1,32
 124 -62 124 -62 99 -119 c 128,-1,33
 74 -176 74 -176 67 -227.5 c 128,-1,34
 60 -279 60 -279 85 -316 c 0,35,36
 91 -325 91 -325 117 -306 c 128,-1,37
 143 -287 143 -287 180 -255 c 128,-1,38
 217 -223 217 -223 259.5 -185.5 c 128,-1,39
 302 -148 302 -148 340 -120 c 128,-1,40
 378 -92 378 -92 407 -81 c 128,-1,41
 436 -70 436 -70 446 -90 c 0,42,43
 448 -92 448 -92 448 -96 c 128,-1,44
 448 -100 448 -100 446 -102 c 0,45,46
 431 -113 431 -113 401.5 -140.5 c 128,-1,47
 372 -168 372 -168 335 -201 c 128,-1,48
 298 -234 298 -234 257 -267.5 c 128,-1,49
 216 -301 216 -301 178.5 -325 c 128,-1,50
 141 -349 141 -349 110 -358 c 128,-1,51
 79 -367 79 -367 62 -350 c 0,0,1
74 181 m 0,52,53
 73 178 73 178 72.5 171.5 c 128,-1,54
 72 165 72 165 72 158 c 128,-1,55
 72 151 72 151 72.5 144.5 c 128,-1,56
 73 138 73 138 74 136 c 1,57,58
 100 127 100 127 126 140.5 c 128,-1,59
 152 154 152 154 176.5 179 c 128,-1,60
 201 204 201 204 224 234.5 c 128,-1,61
 247 265 247 265 267.5 290.5 c 128,-1,62
 288 316 288 316 304.5 330.5 c 128,-1,63
 321 345 321 345 334 339 c 1,64,65
 343 377 343 377 328.5 384 c 128,-1,66
 314 391 314 391 286.5 378.5 c 128,-1,67
 259 366 259 366 224 339 c 128,-1,68
 189 312 189 312 157 282 c 128,-1,69
 125 252 125 252 101.5 224 c 128,-1,70
 78 196 78 196 74 181 c 0,52,53
EndSplineSet
EndChar

StartChar: r
Encoding: 114 114 85
Width: 486
GlyphClass: 2
Flags: W
LayerCount: 2
Fore
SplineSet
29 11 m 0,0,1
 27 12 27 12 29.5 34.5 c 128,-1,2
 32 57 32 57 37 91 c 128,-1,3
 42 125 42 125 50 166 c 128,-1,4
 58 207 58 207 67 244.5 c 128,-1,5
 76 282 76 282 86.5 310.5 c 128,-1,6
 97 339 97 339 107 350 c 0,7,8
 114 357 114 357 121 350.5 c 128,-1,9
 128 344 128 344 135 334.5 c 128,-1,10
 142 325 142 325 149 317.5 c 128,-1,11
 156 310 156 310 164 316 c 1,12,13
 192 355 192 355 225.5 390.5 c 128,-1,14
 259 426 259 426 300 452 c 0,15,16
 304 455 304 455 322 461.5 c 128,-1,17
 340 468 340 468 363 474.5 c 128,-1,18
 386 481 386 481 410.5 485.5 c 128,-1,19
 435 490 435 490 452.5 489.5 c 128,-1,20
 470 489 470 489 476.5 480.5 c 128,-1,21
 483 472 483 472 470 452 c 1,22,23
 410 451 410 451 358 417 c 128,-1,24
 306 383 306 383 262 333 c 128,-1,25
 218 283 218 283 182 224.5 c 128,-1,26
 146 166 146 166 119.5 116 c 128,-1,27
 93 66 93 66 75.5 33 c 128,-1,28
 58 0 58 0 50 0 c 0,29,30
 49 0 49 0 41 4.5 c 128,-1,31
 33 9 33 9 29 11 c 0,0,1
EndSplineSet
EndChar

StartChar: s
Encoding: 115 115 86
Width: 396
GlyphClass: 2
Flags: W
LayerCount: 2
Fore
SplineSet
29 11 m 0,0,1
 17 19 17 19 28.5 32.5 c 128,-1,2
 40 46 40 46 65.5 61.5 c 128,-1,3
 91 77 91 77 125 94 c 128,-1,4
 159 111 159 111 190.5 126 c 128,-1,5
 222 141 222 141 246 152.5 c 128,-1,6
 270 164 270 164 277 170 c 0,7,8
 310 198 310 198 311.5 216.5 c 128,-1,9
 313 235 313 235 295 246.5 c 128,-1,10
 277 258 277 258 244.5 264.5 c 128,-1,11
 212 271 212 271 177.5 276.5 c 128,-1,12
 143 282 143 282 111.5 288 c 128,-1,13
 80 294 80 294 64 304 c 128,-1,14
 48 314 48 314 53.5 330.5 c 128,-1,15
 59 347 59 347 97 373 c 0,16,17
 111 383 111 383 138 402 c 128,-1,18
 165 421 165 421 196.5 441 c 128,-1,19
 228 461 228 461 259 477 c 128,-1,20
 290 493 290 493 311 498 c 0,21,22
 322 500 322 500 333.5 496 c 128,-1,23
 345 492 345 492 352 484.5 c 128,-1,24
 359 477 359 477 358.5 468 c 128,-1,25
 358 459 358 459 345 452 c 0,26,27
 288 420 288 420 235.5 392 c 128,-1,28
 183 364 183 364 130 328 c 1,29,30
 127 320 127 320 131.5 314 c 128,-1,31
 136 308 136 308 142 305 c 1,32,33
 248 294 248 294 301.5 274 c 128,-1,34
 355 254 355 254 369.5 230 c 128,-1,35
 384 206 384 206 366 179 c 128,-1,36
 348 152 348 152 312.5 126 c 128,-1,37
 277 100 277 100 231 77 c 128,-1,38
 185 54 185 54 142.5 38 c 128,-1,39
 100 22 100 22 68 14 c 128,-1,40
 36 6 36 6 29 11 c 0,0,1
EndSplineSet
EndChar

StartChar: t
Encoding: 116 116 87
Width: 430
GlyphClass: 2
Flags: W
LayerCount: 2
Fore
SplineSet
91 11 m 0,0,1
 90 13 90 13 90 22 c 128,-1,2
 90 31 90 31 91 34 c 0,3,4
 94 45 94 45 102 72.5 c 128,-1,5
 110 100 110 100 119 130.5 c 128,-1,6
 128 161 128 161 136 188 c 128,-1,7
 144 215 144 215 147 226 c 0,8,9
 151 240 151 240 156 258.5 c 128,-1,10
 161 277 161 277 158 294 c 1,11,12
 143 296 143 296 121 290.5 c 128,-1,13
 99 285 99 285 77.5 281.5 c 128,-1,14
 56 278 56 278 37.5 281.5 c 128,-1,15
 19 285 19 285 11 305 c 1,16,17
 23 330 23 330 47 337.5 c 128,-1,18
 71 345 71 345 99 348 c 128,-1,19
 127 351 127 351 152.5 357 c 128,-1,20
 178 363 178 363 193 384 c 1,21,22
 202 410 202 410 214.5 447.5 c 128,-1,23
 227 485 227 485 241 526 c 128,-1,24
 255 567 255 567 271.5 607 c 128,-1,25
 288 647 288 647 306 678 c 1,26,27
 317 685 317 685 324 679 c 128,-1,28
 331 673 331 673 334.5 661.5 c 128,-1,29
 338 650 338 650 339 638 c 128,-1,30
 340 626 340 626 339 622 c 0,31,32
 333 596 333 596 318.5 566.5 c 128,-1,33
 304 537 304 537 291.5 507 c 128,-1,34
 279 477 279 477 271.5 447 c 128,-1,35
 264 417 264 417 271 390 c 1,36,-1
 486 390 l 2,37,38
 487 390 487 390 491 383.5 c 128,-1,39
 495 377 495 377 498 373 c 1,40,41
 503 359 503 359 487 354 c 128,-1,42
 471 349 471 349 444 347.5 c 128,-1,43
 417 346 417 346 382.5 345.5 c 128,-1,44
 348 345 348 345 316.5 340.5 c 128,-1,45
 285 336 285 336 260 325.5 c 128,-1,46
 235 315 235 315 226 294 c 0,47,48
 200 227 200 227 178 159.5 c 128,-1,49
 156 92 156 92 136 23 c 1,50,51
 134 20 134 20 128 13.5 c 128,-1,52
 122 7 122 7 115 2.5 c 128,-1,53
 108 -2 108 -2 101.5 -1 c 128,-1,54
 95 0 95 0 91 11 c 0,0,1
EndSplineSet
EndChar

StartChar: u
Encoding: 117 117 88
Width: 576
GlyphClass: 2
Flags: W
LayerCount: 2
Fore
SplineSet
430 11 m 0,0,1
 403 22 403 22 387 40 c 128,-1,2
 371 58 371 58 362 81 c 128,-1,3
 353 104 353 104 348 129.5 c 128,-1,4
 343 155 343 155 339 181 c 1,5,6
 330 187 330 187 307 169.5 c 128,-1,7
 284 152 284 152 254 126 c 128,-1,8
 224 100 224 100 189.5 72.5 c 128,-1,9
 155 45 155 45 123 32 c 128,-1,10
 91 19 91 19 64.5 27 c 128,-1,11
 38 35 38 35 23 79 c 0,12,13
 18 94 18 94 26.5 122.5 c 128,-1,14
 35 151 35 151 52 185 c 128,-1,15
 69 219 69 219 91.5 255.5 c 128,-1,16
 114 292 114 292 135.5 323.5 c 128,-1,17
 157 355 157 355 175.5 377.5 c 128,-1,18
 194 400 194 400 204 407 c 1,19,20
 227 396 227 396 224.5 373.5 c 128,-1,21
 222 351 222 351 206.5 322 c 128,-1,22
 191 293 191 293 166.5 260 c 128,-1,23
 142 227 142 227 120.5 194.5 c 128,-1,24
 99 162 99 162 86 132 c 128,-1,25
 73 102 73 102 79 79 c 1,26,27
 101 70 101 70 133.5 88.5 c 128,-1,28
 166 107 166 107 203.5 140 c 128,-1,29
 241 173 241 173 280.5 215.5 c 128,-1,30
 320 258 320 258 354 297.5 c 128,-1,31
 388 337 388 337 414 367 c 128,-1,32
 440 397 440 397 452 407 c 1,33,34
 473 397 473 397 473 374.5 c 128,-1,35
 473 352 473 352 461.5 323 c 128,-1,36
 450 294 450 294 433.5 260.5 c 128,-1,37
 417 227 417 227 405 194 c 128,-1,38
 393 161 393 161 391 131 c 128,-1,39
 389 101 389 101 407 79 c 2,40,-1
 441 39 l 1,41,-1
 542 39 l 2,42,43
 549 39 549 39 545 33 c 128,-1,44
 541 27 541 27 533.5 20 c 128,-1,45
 526 13 526 13 518 6.5 c 128,-1,46
 510 0 510 0 509 0 c 0,47,48
 483 -5 483 -5 467 -1.5 c 128,-1,49
 451 2 451 2 430 11 c 0,0,1
EndSplineSet
EndChar

StartChar: v
Encoding: 118 118 89
Width: 531
GlyphClass: 2
Flags: W
LayerCount: 2
Fore
SplineSet
57 23 m 0,0,1
 36 35 36 35 27 61 c 128,-1,2
 18 87 18 87 17 120 c 128,-1,3
 16 153 16 153 21 189 c 128,-1,4
 26 225 26 225 33 259 c 128,-1,5
 40 293 40 293 47 320 c 128,-1,6
 54 347 54 347 57 362 c 1,7,8
 62 365 62 365 67.5 362 c 128,-1,9
 73 359 73 359 78.5 353.5 c 128,-1,10
 84 348 84 348 87.5 343.5 c 128,-1,11
 91 339 91 339 91 339 c 1,12,13
 94 304 94 304 91.5 270.5 c 128,-1,14
 89 237 89 237 85.5 204 c 128,-1,15
 82 171 82 171 79.5 137 c 128,-1,16
 77 103 77 103 79 68 c 1,17,18
 87 53 87 53 112 67.5 c 128,-1,19
 137 82 137 82 173 114.5 c 128,-1,20
 209 147 209 147 251.5 191.5 c 128,-1,21
 294 236 294 236 335.5 280 c 128,-1,22
 377 324 377 324 414 362.5 c 128,-1,23
 451 401 451 401 476.5 421.5 c 128,-1,24
 502 442 502 442 512 438.5 c 128,-1,25
 522 435 522 435 509 396 c 1,26,27
 485 375 485 375 452 333 c 128,-1,28
 419 291 419 291 380 242.5 c 128,-1,29
 341 194 341 194 299 146 c 128,-1,30
 257 98 257 98 214.5 63.5 c 128,-1,31
 172 29 172 29 132 15.5 c 128,-1,32
 92 2 92 2 57 23 c 0,0,1
EndSplineSet
EndChar

StartChar: w
Encoding: 119 119 90
Width: 746
GlyphClass: 2
Flags: W
LayerCount: 2
Fore
SplineSet
334 11 m 0,0,1
 314 26 314 26 303 50 c 128,-1,2
 292 74 292 74 286.5 101 c 128,-1,3
 281 128 281 128 279 155 c 128,-1,4
 277 182 277 182 277 203 c 1,5,6
 275 205 275 205 271.5 205 c 128,-1,7
 268 205 268 205 266 203 c 0,8,9
 241 185 241 185 218 160 c 128,-1,10
 195 135 195 135 172.5 109 c 128,-1,11
 150 83 150 83 128.5 57.5 c 128,-1,12
 107 32 107 32 85 11 c 1,13,14
 71 6 71 6 56 8.5 c 128,-1,15
 41 11 41 11 30.5 18.5 c 128,-1,16
 20 26 20 26 15.5 38.5 c 128,-1,17
 11 51 11 51 18 68 c 1,18,19
 37 129 37 129 59.5 197.5 c 128,-1,20
 82 266 82 266 107 328 c 0,21,22
 116 350 116 350 126.5 352 c 128,-1,23
 137 354 137 354 145 344 c 128,-1,24
 153 334 153 334 156 316.5 c 128,-1,25
 159 299 159 299 153 282 c 0,26,27
 150 274 150 274 142 253.5 c 128,-1,28
 134 233 134 233 125 209.5 c 128,-1,29
 116 186 116 186 108 165 c 128,-1,30
 100 144 100 144 97 136 c 1,31,-1
 97 102 l 1,32,33
 128 130 128 130 149 152 c 128,-1,34
 170 174 170 174 188.5 196.5 c 128,-1,35
 207 219 207 219 227 244.5 c 128,-1,36
 247 270 247 270 277 305 c 0,37,38
 300 332 300 332 313 334.5 c 128,-1,39
 326 337 326 337 332.5 323.5 c 128,-1,40
 339 310 339 310 340 284.5 c 128,-1,41
 341 259 341 259 340.5 229.5 c 128,-1,42
 340 200 340 200 338 170.5 c 128,-1,43
 336 141 336 141 336.5 119.5 c 128,-1,44
 337 98 337 98 341 88.5 c 128,-1,45
 345 79 345 79 356 90 c 1,46,47
 368 109 368 109 391 145 c 128,-1,48
 414 181 414 181 443 224.5 c 128,-1,49
 472 268 472 268 506.5 312.5 c 128,-1,50
 541 357 541 357 577 392.5 c 128,-1,51
 613 428 613 428 649 448.5 c 128,-1,52
 685 469 685 469 718 464 c 1,53,54
 719 460 719 460 706.5 442 c 128,-1,55
 694 424 694 424 673.5 399.5 c 128,-1,56
 653 375 653 375 628.5 346.5 c 128,-1,57
 604 318 604 318 580.5 292 c 128,-1,58
 557 266 557 266 539 245 c 128,-1,59
 521 224 521 224 514 214 c 0,60,61
 511 210 511 210 501.5 196.5 c 128,-1,62
 492 183 492 183 479.5 164.5 c 128,-1,63
 467 146 467 146 452.5 125 c 128,-1,64
 438 104 438 104 425 85 c 128,-1,65
 412 66 412 66 402.5 52 c 128,-1,66
 393 38 393 38 390 34 c 0,67,68
 381 21 381 21 375 13 c 128,-1,69
 369 5 369 5 363.5 2 c 128,-1,70
 358 -1 358 -1 351 1 c 128,-1,71
 344 3 344 3 334 11 c 0,0,1
EndSplineSet
EndChar

StartChar: x
Encoding: 120 120 91
Width: 503
GlyphClass: 2
Flags: W
LayerCount: 2
Fore
SplineSet
18 23 m 0,0,1
 9 37 9 37 22 55 c 128,-1,2
 35 73 35 73 60 93.5 c 128,-1,3
 85 114 85 114 116.5 136 c 128,-1,4
 148 158 148 158 175 180 c 128,-1,5
 202 202 202 202 219 222.5 c 128,-1,6
 236 243 236 243 232 260 c 0,7,8
 231 264 231 264 226 282.5 c 128,-1,9
 221 301 221 301 215 322 c 128,-1,10
 209 343 209 343 204 361 c 128,-1,11
 199 379 199 379 198 384 c 1,12,-1
 198 407 l 1,13,14
 211 417 211 417 223.5 401 c 128,-1,15
 236 385 236 385 247.5 360.5 c 128,-1,16
 259 336 259 336 269.5 312 c 128,-1,17
 280 288 280 288 288 282 c 1,18,19
 306 294 306 294 326.5 310.5 c 128,-1,20
 347 327 347 327 367 344.5 c 128,-1,21
 387 362 387 362 405 378.5 c 128,-1,22
 423 395 423 395 435 407 c 1,23,24
 456 418 456 418 464.5 416.5 c 128,-1,25
 473 415 473 415 473 406 c 128,-1,26
 473 397 473 397 467.5 384 c 128,-1,27
 462 371 462 371 455 358.5 c 128,-1,28
 448 346 448 346 441.5 337 c 128,-1,29
 435 328 435 328 435 328 c 1,30,31
 382 280 382 280 354 246.5 c 128,-1,32
 326 213 326 213 315.5 190 c 128,-1,33
 305 167 305 167 308 153 c 128,-1,34
 311 139 311 139 321.5 129.5 c 128,-1,35
 332 120 332 120 346 113 c 128,-1,36
 360 106 360 106 370.5 97.5 c 128,-1,37
 381 89 381 89 384.5 77 c 128,-1,38
 388 65 388 65 378 45 c 1,39,40
 351 38 351 38 336 47.5 c 128,-1,41
 321 57 321 57 311 74 c 128,-1,42
 301 91 301 91 294.5 111 c 128,-1,43
 288 131 288 131 278.5 145.5 c 128,-1,44
 269 160 269 160 253.5 164.5 c 128,-1,45
 238 169 238 169 211 155 c 128,-1,46
 184 141 184 141 142.5 104.5 c 128,-1,47
 101 68 101 68 40 0 c 1,48,49
 37 2 37 2 28.5 11 c 128,-1,50
 20 20 20 20 18 23 c 0,0,1
EndSplineSet
EndChar

StartChar: y
Encoding: 121 121 92
Width: 441
GlyphClass: 2
Flags: W
LayerCount: 2
Fore
SplineSet
-170 -384 m 0,0,1
 -179 -370 -179 -370 -169.5 -340.5 c 128,-1,2
 -160 -311 -160 -311 -142.5 -279.5 c 128,-1,3
 -125 -248 -125 -248 -106.5 -220.5 c 128,-1,4
 -88 -193 -88 -193 -79 -181 c 0,5,6
 -71 -170 -71 -170 -54.5 -148 c 128,-1,7
 -38 -126 -38 -126 -17 -98 c 128,-1,8
 4 -70 4 -70 27.5 -39 c 128,-1,9
 51 -8 51 -8 72 19.5 c 128,-1,10
 93 47 93 47 110 69 c 128,-1,11
 127 91 127 91 135 102 c 1,12,13
 143 111 143 111 135 130 c 128,-1,14
 127 149 127 149 110.5 174.5 c 128,-1,15
 94 200 94 200 73.5 230.5 c 128,-1,16
 53 261 53 261 36.5 292.5 c 128,-1,17
 20 324 20 324 11.5 355 c 128,-1,18
 3 386 3 386 11 413 c 1,19,20
 22 421 22 421 35 403.5 c 128,-1,21
 48 386 48 386 62.5 355.5 c 128,-1,22
 77 325 77 325 93 288.5 c 128,-1,23
 109 252 109 252 124 222.5 c 128,-1,24
 139 193 139 193 153.5 176 c 128,-1,25
 168 159 168 159 181 169 c 0,26,27
 207 188 207 188 232 217.5 c 128,-1,28
 257 247 257 247 280 279 c 128,-1,29
 303 311 303 311 323.5 341.5 c 128,-1,30
 344 372 344 372 362 395 c 0,31,32
 369 404 369 404 375.5 407.5 c 128,-1,33
 382 411 382 411 396 406 c 0,34,35
 407 402 407 402 392 371 c 128,-1,36
 377 340 377 340 345 291 c 128,-1,37
 313 242 313 242 268.5 179.5 c 128,-1,38
 224 117 224 117 174.5 49.5 c 128,-1,39
 125 -18 125 -18 75.5 -85 c 128,-1,40
 26 -152 26 -152 -15.5 -209.5 c 128,-1,41
 -57 -267 -57 -267 -86.5 -310.5 c 128,-1,42
 -116 -354 -116 -354 -125 -374 c 0,43,44
 -129 -383 -129 -383 -133.5 -392 c 128,-1,45
 -138 -401 -138 -401 -146 -407 c 1,46,47
 -148 -406 -148 -406 -151.5 -403 c 128,-1,48
 -155 -400 -155 -400 -158.5 -396.5 c 128,-1,49
 -162 -393 -162 -393 -165.5 -389.5 c 128,-1,50
 -169 -386 -169 -386 -170 -384 c 0,0,1
EndSplineSet
EndChar

StartChar: z
Encoding: 122 122 93
Width: 566
GlyphClass: 2
Flags: W
LayerCount: 2
Fore
SplineSet
40 11 m 0,0,1
 21 22 21 22 26.5 42 c 128,-1,2
 32 62 32 62 55 87.5 c 128,-1,3
 78 113 78 113 113.5 142.5 c 128,-1,4
 149 172 149 172 190.5 204 c 128,-1,5
 232 236 232 236 275 268.5 c 128,-1,6
 318 301 318 301 355.5 332 c 128,-1,7
 393 363 393 363 420.5 391 c 128,-1,8
 448 419 448 419 458 441 c 1,9,10
 456 454 456 454 438 455.5 c 128,-1,11
 420 457 420 457 395 453.5 c 128,-1,12
 370 450 370 450 342 444 c 128,-1,13
 314 438 314 438 292 437.5 c 128,-1,14
 270 437 270 437 258.5 444.5 c 128,-1,15
 247 452 247 452 254 474 c 0,16,17
 255 476 255 476 275.5 482.5 c 128,-1,18
 296 489 296 489 327 496 c 128,-1,19
 358 503 358 503 394 508 c 128,-1,20
 430 513 430 513 461 512.5 c 128,-1,21
 492 512 492 512 513.5 503 c 128,-1,22
 535 494 535 494 536.5 473 c 128,-1,23
 538 452 538 452 515 417 c 128,-1,24
 492 382 492 382 435 328 c 0,25,26
 432 324 432 324 418.5 312 c 128,-1,27
 405 300 405 300 388.5 285.5 c 128,-1,28
 372 271 372 271 356.5 257.5 c 128,-1,29
 341 244 341 244 334 238 c 256,30,31
 327 232 327 232 309 218.5 c 128,-1,32
 291 205 291 205 268.5 187.5 c 128,-1,33
 246 170 246 170 222 151 c 128,-1,34
 198 132 198 132 179 115 c 128,-1,35
 160 98 160 98 149 85.5 c 128,-1,36
 138 73 138 73 142 68 c 1,37,38
 184 64 184 64 226.5 68.5 c 128,-1,39
 269 73 269 73 311 79 c 128,-1,40
 353 85 353 85 395.5 89.5 c 128,-1,41
 438 94 438 94 481 90 c 1,42,43
 491 84 491 84 500.5 71.5 c 128,-1,44
 510 59 510 59 503 45 c 1,45,46
 477 43 477 43 438.5 36.5 c 128,-1,47
 400 30 400 30 355.5 22 c 128,-1,48
 311 14 311 14 264 6.5 c 128,-1,49
 217 -1 217 -1 174.5 -4 c 128,-1,50
 132 -7 132 -7 96.5 -4.5 c 128,-1,51
 61 -2 61 -2 40 11 c 0,0,1
EndSplineSet
EndChar

StartChar: braceleft
Encoding: 123 123 94
Width: 271
GlyphClass: 2
Flags: W
LayerCount: 2
Fore
SplineSet
155 -47 m 0,0,1
 122 -35 122 -35 89.5 -5.5 c 128,-1,2
 57 24 57 24 37.5 61 c 128,-1,3
 18 98 18 98 16.5 138 c 128,-1,4
 15 178 15 178 42 212 c 0,5,6
 45 216 45 216 56.5 229.5 c 128,-1,7
 68 243 68 243 81.5 258 c 128,-1,8
 95 273 95 273 106.5 286 c 128,-1,9
 118 299 118 299 121 302 c 0,10,11
 133 317 133 317 133.5 328 c 128,-1,12
 134 339 134 339 128 347.5 c 128,-1,13
 122 356 122 356 112 362.5 c 128,-1,14
 102 369 102 369 94 376.5 c 128,-1,15
 86 384 86 384 83 393 c 128,-1,16
 80 402 80 402 87 415 c 0,17,18
 88 418 88 418 95 426 c 128,-1,19
 102 434 102 434 110 443.5 c 128,-1,20
 118 453 118 453 125 461.5 c 128,-1,21
 132 470 132 470 133 472 c 0,22,23
 144 498 144 498 138 523.5 c 128,-1,24
 132 549 132 549 120 574.5 c 128,-1,25
 108 600 108 600 97.5 625 c 128,-1,26
 87 650 87 650 89.5 674.5 c 128,-1,27
 92 699 92 699 113.5 721.5 c 128,-1,28
 135 744 135 744 189 766 c 0,29,30
 201 770 201 770 209.5 759.5 c 128,-1,31
 218 749 218 749 222 743 c 1,32,33
 213 732 213 732 194 719.5 c 128,-1,34
 175 707 175 707 158 692 c 128,-1,35
 141 677 141 677 131.5 658.5 c 128,-1,36
 122 640 122 640 133 618 c 2,37,-1
 189 506 l 2,38,39
 189 505 189 505 187.5 490 c 128,-1,40
 186 475 186 475 185 454 c 128,-1,41
 184 433 184 433 184.5 410 c 128,-1,42
 185 387 185 387 189 370 c 0,43,44
 196 342 196 342 191.5 322 c 128,-1,45
 187 302 187 302 176 287 c 128,-1,46
 165 272 165 272 149.5 260 c 128,-1,47
 134 248 134 248 119.5 235 c 128,-1,48
 105 222 105 222 92.5 206 c 128,-1,49
 80 190 80 190 76 167 c 0,50,51
 66 117 66 117 78 86 c 128,-1,52
 90 55 90 55 115.5 35 c 128,-1,53
 141 15 141 15 176 1.5 c 128,-1,54
 211 -12 211 -12 246 -26 c 0,55,56
 265 -34 265 -34 263.5 -42 c 128,-1,57
 262 -50 262 -50 246.5 -54.5 c 128,-1,58
 231 -59 231 -59 206 -58 c 128,-1,59
 181 -57 181 -57 155 -47 c 0,0,1
EndSplineSet
EndChar

StartChar: bar
Encoding: 124 124 95
Width: 113
GlyphClass: 2
Flags: W
LayerCount: 2
Fore
SplineSet
34 11 m 0,0,1
 32 13 32 13 28 22 c 128,-1,2
 24 31 24 31 23 34 c 1,3,4
 23 47 23 47 22.5 79 c 128,-1,5
 22 111 22 111 22 147 c 128,-1,6
 22 183 22 183 22.5 215 c 128,-1,7
 23 247 23 247 23 260 c 0,8,9
 23 268 23 268 24 292 c 128,-1,10
 25 316 25 316 26 349 c 128,-1,11
 27 382 27 382 28.5 418.5 c 128,-1,12
 30 455 30 455 31 487.5 c 128,-1,13
 32 520 32 520 33 544 c 128,-1,14
 34 568 34 568 34 576 c 0,15,16
 34 578 34 578 35.5 588.5 c 128,-1,17
 37 599 37 599 39.5 612 c 128,-1,18
 42 625 42 625 45.5 639 c 128,-1,19
 49 653 49 653 54 661 c 128,-1,20
 59 669 59 669 65.5 669 c 128,-1,21
 72 669 72 669 79 655 c 1,22,23
 82 575 82 575 80 494.5 c 128,-1,24
 78 414 78 414 75 333.5 c 128,-1,25
 72 253 72 253 69 172.5 c 128,-1,26
 66 92 66 92 68 11 c 1,27,28
 61 -2 61 -2 51.5 -0.5 c 128,-1,29
 42 1 42 1 34 11 c 0,0,1
EndSplineSet
EndChar

StartChar: braceright
Encoding: 125 125 96
Width: 300
GlyphClass: 2
Flags: W
LayerCount: 2
Fore
SplineSet
66 -57 m 0,0,1
 63 -49 63 -49 75 -37 c 128,-1,2
 87 -25 87 -25 106.5 -10.5 c 128,-1,3
 126 4 126 4 149 22 c 128,-1,4
 172 40 172 40 190.5 61 c 128,-1,5
 209 82 209 82 219 106.5 c 128,-1,6
 229 131 229 131 224 158 c 0,7,8
 220 180 220 180 206 198.5 c 128,-1,9
 192 217 192 217 174.5 234 c 128,-1,10
 157 251 157 251 139.5 267.5 c 128,-1,11
 122 284 122 284 109.5 301.5 c 128,-1,12
 97 319 97 319 93 339 c 128,-1,13
 89 359 89 359 99 384 c 1,14,15
 77 430 77 430 71.5 453 c 128,-1,16
 66 476 66 476 71 486.5 c 128,-1,17
 76 497 76 497 88.5 501.5 c 128,-1,18
 101 506 101 506 113.5 514.5 c 128,-1,19
 126 523 126 523 135.5 541 c 128,-1,20
 145 559 145 559 145 598 c 0,21,22
 145 618 145 618 133.5 637 c 128,-1,23
 122 656 122 656 105 673 c 128,-1,24
 88 690 88 690 69 706.5 c 128,-1,25
 50 723 50 723 35 739 c 128,-1,26
 20 755 20 755 12 770.5 c 128,-1,27
 4 786 4 786 10 802 c 1,28,-1
 42 802 l 2,29,30
 45 802 45 802 59.5 789 c 128,-1,31
 74 776 74 776 92 758 c 128,-1,32
 110 740 110 740 128 720.5 c 128,-1,33
 146 701 146 701 156 689 c 0,34,35
 181 657 181 657 187.5 630 c 128,-1,36
 194 603 194 603 188 577 c 128,-1,37
 182 551 182 551 167 526 c 128,-1,38
 152 501 152 501 134 474 c 0,39,40
 131 469 131 469 126.5 460.5 c 128,-1,41
 122 452 122 452 122 451 c 2,42,-1
 178 394 l 2,43,44
 191 381 191 381 187 372.5 c 128,-1,45
 183 364 183 364 174 357 c 128,-1,46
 165 350 165 350 157.5 343 c 128,-1,47
 150 336 150 336 156 327 c 0,48,49
 168 309 168 309 185.5 290.5 c 128,-1,50
 203 272 203 272 220.5 252 c 128,-1,51
 238 232 238 232 252 211 c 128,-1,52
 266 190 266 190 269 168 c 0,53,54
 273 142 273 142 262 108.5 c 128,-1,55
 251 75 251 75 231 42.5 c 128,-1,56
 211 10 211 10 185.5 -18 c 128,-1,57
 160 -46 160 -46 136 -62.5 c 128,-1,58
 112 -79 112 -79 92.5 -79.5 c 128,-1,59
 73 -80 73 -80 66 -57 c 0,0,1
EndSplineSet
EndChar

StartChar: asciitilde
Encoding: 126 126 97
Width: 531
GlyphClass: 2
Flags: W
LayerCount: 2
Fore
SplineSet
249 11 m 0,0,1
 222 27 222 27 209.5 55.5 c 128,-1,2
 197 84 197 84 190 111 c 128,-1,3
 183 138 183 138 178 156.5 c 128,-1,4
 173 175 173 175 160.5 171 c 128,-1,5
 148 167 148 167 124 133.5 c 128,-1,6
 100 100 100 100 57 23 c 1,7,8
 39 17 39 17 34.5 30.5 c 128,-1,9
 30 44 30 44 35.5 68 c 128,-1,10
 41 92 41 92 54.5 121.5 c 128,-1,11
 68 151 68 151 86.5 176.5 c 128,-1,12
 105 202 105 202 126 218.5 c 128,-1,13
 147 235 147 235 167.5 233.5 c 128,-1,14
 188 232 188 232 206.5 207 c 128,-1,15
 225 182 225 182 238 125 c 0,16,17
 247 82 247 82 263.5 66 c 128,-1,18
 280 50 280 50 301.5 51 c 128,-1,19
 323 52 323 52 348 67 c 128,-1,20
 373 82 373 82 400 101 c 128,-1,21
 427 120 427 120 455 139.5 c 128,-1,22
 483 159 483 159 509 170 c 1,23,24
 515 161 515 161 503.5 142 c 128,-1,25
 492 123 492 123 469.5 101.5 c 128,-1,26
 447 80 447 80 417 59 c 128,-1,27
 387 38 387 38 356 23.5 c 128,-1,28
 325 9 325 9 296.5 4 c 128,-1,29
 268 -1 268 -1 249 11 c 0,0,1
EndSplineSet
EndChar

StartChar: cent
Encoding: 162 162 99
Width: 559
GlyphClass: 2
Flags: W
LayerCount: 2
Fore
SplineSet
102 11 m 0,0,1
 51 28 51 28 34.5 64 c 128,-1,2
 18 100 18 100 25.5 145.5 c 128,-1,3
 33 191 33 191 60 241.5 c 128,-1,4
 87 292 87 292 124 338 c 128,-1,5
 161 384 161 384 202 421 c 128,-1,6
 243 458 243 458 279.5 477 c 128,-1,7
 316 496 316 496 342 492 c 128,-1,8
 368 488 368 488 374 452 c 0,9,10
 377 436 377 436 370.5 417 c 128,-1,11
 364 398 364 398 352.5 380.5 c 128,-1,12
 341 363 341 363 326.5 348.5 c 128,-1,13
 312 334 312 334 298.5 327 c 128,-1,14
 285 320 285 320 274.5 322 c 128,-1,15
 264 324 264 324 261 339 c 1,16,17
 273 359 273 359 288 379.5 c 128,-1,18
 303 400 303 400 317 418 c 1,19,20
 311 429 311 429 294 423 c 128,-1,21
 277 417 277 417 253 399 c 128,-1,22
 229 381 229 381 202.5 353.5 c 128,-1,23
 176 326 176 326 151 294 c 128,-1,24
 126 262 126 262 106.5 227.5 c 128,-1,25
 87 193 87 193 78 161 c 128,-1,26
 69 129 69 129 73.5 101.5 c 128,-1,27
 78 74 78 74 102 57 c 1,28,29
 135 54 135 54 178 63.5 c 128,-1,30
 221 73 221 73 266 88 c 128,-1,31
 311 103 311 103 355.5 120.5 c 128,-1,32
 400 138 400 138 436.5 153 c 128,-1,33
 473 168 473 168 498.5 176.5 c 128,-1,34
 524 185 524 185 532 181 c 0,35,36
 551 171 551 171 534.5 152 c 128,-1,37
 518 133 518 133 479 111 c 128,-1,38
 440 89 440 89 386.5 67.5 c 128,-1,39
 333 46 333 46 279 30.5 c 128,-1,40
 225 15 225 15 177 8.5 c 128,-1,41
 129 2 129 2 102 11 c 0,0,1
231 -44 m 0,42,43
 229 -42 229 -42 224.5 -33.5 c 128,-1,44
 220 -25 220 -25 219 -22 c 1,45,46
 219 -14 219 -14 216.5 6.5 c 128,-1,47
 214 27 214 27 210.5 53.5 c 128,-1,48
 207 80 207 80 203 109 c 128,-1,49
 199 138 199 138 195.5 164 c 128,-1,50
 192 190 192 190 190 210.5 c 128,-1,51
 188 231 188 231 189 239 c 0,52,53
 189 247 189 247 191 272.5 c 128,-1,54
 193 298 193 298 195 332.5 c 128,-1,55
 197 367 197 367 200 406.5 c 128,-1,56
 203 446 203 446 205 480.5 c 128,-1,57
 207 515 207 515 209 540.5 c 128,-1,58
 211 566 211 566 211 574 c 0,59,60
 211 576 211 576 212.5 586.5 c 128,-1,61
 214 597 214 597 216.5 610 c 128,-1,62
 219 623 219 623 223 637 c 128,-1,63
 227 651 227 651 232 659 c 128,-1,64
 237 667 237 667 243.5 667 c 128,-1,65
 250 667 250 667 257 653 c 1,66,67
 246 572 246 572 237.5 483.5 c 128,-1,68
 229 395 229 395 228 304.5 c 128,-1,69
 227 214 227 214 235 125 c 128,-1,70
 243 36 243 36 265 -44 c 1,71,72
 257 -58 257 -58 248 -56.5 c 128,-1,73
 239 -55 239 -55 231 -44 c 0,42,43
EndSplineSet
EndChar

StartChar: sterling
Encoding: 163 163 100
Width: 332
GlyphClass: 2
Flags: W
LayerCount: 2
Fore
SplineSet
100 265 m 1,0,1
 92 266 92 266 85.5 266.5 c 128,-1,2
 79 267 79 267 72 268 c 1,3,4
 65 231 65 231 61.5 196.5 c 128,-1,5
 58 162 58 162 57.5 132.5 c 128,-1,6
 57 103 57 103 59.5 80 c 128,-1,7
 62 57 62 57 68 45 c 1,8,9
 79 50 79 50 111 57.5 c 128,-1,10
 143 65 143 65 186.5 66.5 c 128,-1,11
 230 68 230 68 281.5 59 c 128,-1,12
 333 50 333 50 384 22 c 0,13,14
 397 15 397 15 380 14.5 c 128,-1,15
 363 14 363 14 329 16.5 c 128,-1,16
 295 19 295 19 251 23 c 128,-1,17
 207 27 207 27 166.5 28 c 128,-1,18
 126 29 126 29 95 25.5 c 128,-1,19
 64 22 64 22 57 11 c 1,20,21
 34 59 34 59 28.5 128.5 c 128,-1,22
 23 198 23 198 32 274 c 1,23,24
 6 278 6 278 -4 282.5 c 128,-1,25
 -14 287 -14 287 -12 291 c 128,-1,26
 -10 295 -10 295 3 298 c 128,-1,27
 16 301 16 301 36 303 c 1,28,29
 44 356 44 356 58.5 407 c 128,-1,30
 73 458 73 458 92.5 501.5 c 128,-1,31
 112 545 112 545 137 578 c 128,-1,32
 162 611 162 611 191.5 628 c 128,-1,33
 221 645 221 645 253.5 643 c 128,-1,34
 286 641 286 641 322 615 c 1,35,-1
 293 562 l 1,36,37
 256 598 256 598 223 587 c 128,-1,38
 190 576 190 576 162.5 535.5 c 128,-1,39
 135 495 135 495 113.5 433.5 c 128,-1,40
 92 372 92 372 79 306 c 1,41,42
 109 307 109 307 141.5 306 c 128,-1,43
 174 305 174 305 202.5 301.5 c 128,-1,44
 231 298 231 298 252 291.5 c 128,-1,45
 273 285 273 285 281 275 c 1,46,47
 271 275 271 275 245 273.5 c 128,-1,48
 219 272 219 272 190.5 270 c 128,-1,49
 162 268 162 268 136 266.5 c 128,-1,50
 110 265 110 265 100 265 c 1,0,1
EndSplineSet
EndChar

StartChar: currency
Encoding: 164 164 101
Width: 594
GlyphClass: 2
Flags: W
LayerCount: 2
Fore
SplineSet
130 112 m 1,0,1
 114 115 114 115 112.5 142 c 128,-1,2
 111 169 111 169 120 204.5 c 128,-1,3
 129 240 129 240 146 275 c 128,-1,4
 163 310 163 310 186 330 c 1,5,6
 172 348 172 348 152 364.5 c 128,-1,7
 132 381 132 381 114.5 399 c 128,-1,8
 97 417 97 417 86 437 c 128,-1,9
 75 457 75 457 79 482 c 1,10,11
 97 483 97 483 117 468.5 c 128,-1,12
 137 454 137 454 155 433 c 128,-1,13
 173 412 173 412 187 389 c 128,-1,14
 201 366 201 366 206 349 c 1,15,16
 221 375 221 375 247.5 389.5 c 128,-1,17
 274 404 274 404 302.5 408.5 c 128,-1,18
 331 413 331 413 358 407 c 128,-1,19
 385 401 385 401 403 386 c 1,20,21
 463 428 463 428 499.5 447 c 128,-1,22
 536 466 536 466 552 468.5 c 128,-1,23
 568 471 568 471 566 460 c 128,-1,24
 564 449 564 449 546 432 c 128,-1,25
 528 415 528 415 496 395.5 c 128,-1,26
 464 376 464 376 422 361 c 1,27,28
 429 343 429 343 428 322 c 128,-1,29
 427 301 427 301 419.5 278.5 c 128,-1,30
 412 256 412 256 399.5 233.5 c 128,-1,31
 387 211 387 211 372 190 c 1,32,33
 389 181 389 181 407 163 c 128,-1,34
 425 145 425 145 439.5 124.5 c 128,-1,35
 454 104 454 104 463.5 84.5 c 128,-1,36
 473 65 473 65 474 53 c 128,-1,37
 475 41 475 41 466 40.5 c 128,-1,38
 457 40 457 40 435 57 c 1,39,40
 426 72 426 72 412.5 85 c 128,-1,41
 399 98 399 98 386 110 c 128,-1,42
 373 122 373 122 362 134.5 c 128,-1,43
 351 147 351 147 346 162 c 1,44,45
 337 144 337 144 315.5 130.5 c 128,-1,46
 294 117 294 117 268 109 c 128,-1,47
 242 101 242 101 216 98.5 c 128,-1,48
 190 96 190 96 172 101 c 1,49,50
 163 91 163 91 148 77.5 c 128,-1,51
 133 64 133 64 116.5 50.5 c 128,-1,52
 100 37 100 37 85 27 c 128,-1,53
 70 17 70 17 61.5 14 c 128,-1,54
 53 11 53 11 53.5 18 c 128,-1,55
 54 25 54 25 70 46 c 1,56,-1
 130 112 l 1,0,1
147 149 m 0,57,58
 148 143 148 143 152 139 c 128,-1,59
 156 135 156 135 160 133 c 128,-1,60
 164 131 164 131 167.5 130 c 128,-1,61
 171 129 171 129 172 128 c 0,62,63
 190 117 190 117 216 122.5 c 128,-1,64
 242 128 242 128 269.5 144.5 c 128,-1,65
 297 161 297 161 323.5 185 c 128,-1,66
 350 209 350 209 370 236 c 128,-1,67
 390 263 390 263 400.5 289 c 128,-1,68
 411 315 411 315 406 335 c 128,-1,69
 401 355 401 355 378 366 c 128,-1,70
 355 377 355 377 309 374 c 1,71,72
 303 375 303 375 287.5 365.5 c 128,-1,73
 272 356 272 356 252.5 338.5 c 128,-1,74
 233 321 233 321 212 298.5 c 128,-1,75
 191 276 191 276 175 250.5 c 128,-1,76
 159 225 159 225 150.5 199 c 128,-1,77
 142 173 142 173 147 149 c 0,57,58
EndSplineSet
EndChar

StartChar: yen
Encoding: 165 165 102
Width: 402
GlyphClass: 2
Flags: W
LayerCount: 2
Fore
SplineSet
75 248 m 1,0,1
 80 258 80 258 95.5 266 c 128,-1,2
 111 274 111 274 132.5 280 c 128,-1,3
 154 286 154 286 180.5 290 c 128,-1,4
 207 294 207 294 234 295 c 1,5,6
 235 305 235 305 235.5 315 c 128,-1,7
 236 325 236 325 236 335 c 1,8,9
 232 344 232 344 218 365.5 c 128,-1,10
 204 387 204 387 185 415.5 c 128,-1,11
 166 444 166 444 144 477 c 128,-1,12
 122 510 122 510 101.5 541.5 c 128,-1,13
 81 573 81 573 64.5 601.5 c 128,-1,14
 48 630 48 630 40 649 c 128,-1,15
 32 668 32 668 35 675.5 c 128,-1,16
 38 683 38 683 56 674 c 1,17,18
 70 661 70 661 91 632.5 c 128,-1,19
 112 604 112 604 134.5 568.5 c 128,-1,20
 157 533 157 533 180.5 495.5 c 128,-1,21
 204 458 204 458 224 428.5 c 128,-1,22
 244 399 244 399 259 381.5 c 128,-1,23
 274 364 274 364 281 369 c 1,24,25
 291 389 291 389 310.5 432.5 c 128,-1,26
 330 476 330 476 353 527.5 c 128,-1,27
 376 579 376 579 400.5 630.5 c 128,-1,28
 425 682 425 682 446.5 718 c 128,-1,29
 468 754 468 754 484.5 766.5 c 128,-1,30
 501 779 501 779 507 753 c 1,31,32
 496 735 496 735 475.5 690 c 128,-1,33
 455 645 455 645 428.5 582 c 128,-1,34
 402 519 402 519 372 443.5 c 128,-1,35
 342 368 342 368 314 290 c 1,36,37
 364 284 364 284 380 260 c 1,38,39
 375 255 375 255 352.5 250 c 128,-1,40
 330 245 330 245 297 240 c 1,41,42
 293 229 293 229 290 219 c 128,-1,43
 287 209 287 209 283 198 c 1,44,-1
 390 198 l 1,45,46
 396 195 396 195 400.5 188.5 c 128,-1,47
 405 182 405 182 402 174 c 1,48,49
 375 171 375 171 340.5 165.5 c 128,-1,50
 306 160 306 160 269 154 c 1,51,52
 240 60 240 60 223 -17.5 c 128,-1,53
 206 -95 206 -95 211 -142 c 1,54,55
 208 -152 208 -152 201.5 -161.5 c 128,-1,56
 195 -171 195 -171 187 -174.5 c 128,-1,57
 179 -178 179 -178 170.5 -173.5 c 128,-1,58
 162 -169 162 -169 155 -152 c 0,59,60
 143 -124 143 -124 144 -90 c 128,-1,61
 145 -56 145 -56 153.5 -18.5 c 128,-1,62
 162 19 162 19 175.5 59.5 c 128,-1,63
 189 100 189 100 202 142 c 1,64,65
 159 134 159 134 122.5 127.5 c 128,-1,66
 86 121 86 121 63 118 c 0,67,68
 45 115 45 115 37.5 119.5 c 128,-1,69
 30 124 30 124 18 141 c 0,70,71
 11 151 11 151 32 160 c 128,-1,72
 53 169 53 169 86 176 c 128,-1,73
 119 183 119 183 155.5 187.5 c 128,-1,74
 192 192 192 192 216 195 c 1,75,76
 218 205 218 205 220.5 214 c 128,-1,77
 223 223 223 223 225 233 c 1,78,79
 198 231 198 231 172.5 230.5 c 128,-1,80
 147 230 147 230 126 231.5 c 128,-1,81
 105 233 105 233 91.5 237 c 128,-1,82
 78 241 78 241 75 248 c 1,0,1
EndSplineSet
EndChar

StartChar: brokenbar
Encoding: 166 166 103
Width: 113
GlyphClass: 2
Flags: W
LayerCount: 2
Fore
SplineSet
28 403 m 1,0,1
 29 429 29 429 30 457 c 128,-1,2
 31 485 31 485 32 509.5 c 128,-1,3
 33 534 33 534 33.5 552 c 128,-1,4
 34 570 34 570 34 576 c 0,5,6
 34 578 34 578 35.5 588.5 c 128,-1,7
 37 599 37 599 39.5 612 c 128,-1,8
 42 625 42 625 45.5 639 c 128,-1,9
 49 653 49 653 54 661 c 128,-1,10
 59 669 59 669 65.5 669 c 128,-1,11
 72 669 72 669 79 655 c 1,12,13
 81 597 81 597 80.5 531.5 c 128,-1,14
 80 466 80 466 78 407 c 1,15,-1
 28 403 l 1,0,1
80 352 m 1,16,17
 78 301 78 301 76 260.5 c 128,-1,18
 74 220 74 220 72 181.5 c 128,-1,19
 70 143 70 143 68.5 102.5 c 128,-1,20
 67 62 67 62 68 11 c 1,21,22
 61 -2 61 -2 51.5 -0.5 c 128,-1,23
 42 1 42 1 34 11 c 0,24,25
 32 13 32 13 28 22 c 128,-1,26
 24 31 24 31 23 34 c 1,27,28
 23 47 23 47 22.5 79 c 128,-1,29
 22 111 22 111 22 147 c 128,-1,30
 22 183 22 183 22.5 215 c 128,-1,31
 23 247 23 247 23 260 c 0,32,33
 23 266 23 266 23.5 270 c 128,-1,34
 24 274 24 274 25 282.5 c 128,-1,35
 26 291 26 291 26.5 306 c 128,-1,36
 27 321 27 321 28 349 c 1,37,-1
 80 352 l 1,16,17
EndSplineSet
EndChar

StartChar: section
Encoding: 167 167 104
Width: 604
GlyphClass: 2
Flags: W
LayerCount: 2
Fore
SplineSet
74 19 m 0,0,1
 62 27 62 27 74 40 c 128,-1,2
 86 53 86 53 111.5 69 c 128,-1,3
 137 85 137 85 171 102 c 128,-1,4
 205 119 205 119 236.5 134 c 128,-1,5
 268 149 268 149 292 160.5 c 128,-1,6
 316 172 316 172 322 177 c 0,7,8
 345 196 345 196 352.5 211 c 128,-1,9
 360 226 360 226 356.5 236.5 c 128,-1,10
 353 247 353 247 339 254.5 c 128,-1,11
 325 262 325 262 306 267 c 1,12,-1
 212 272 l 1,13,14
 179 277 179 277 150.5 285 c 128,-1,15
 122 293 122 293 108 306 c 128,-1,16
 94 319 94 319 100 337 c 128,-1,17
 106 355 106 355 142 380 c 0,18,19
 155 389 155 389 178.5 405.5 c 128,-1,20
 202 422 202 422 230 440 c 128,-1,21
 258 458 258 458 286.5 474 c 128,-1,22
 315 490 315 490 338 499 c 1,23,24
 302 505 302 505 268.5 510.5 c 128,-1,25
 235 516 235 516 217 526.5 c 128,-1,26
 199 537 199 537 203.5 553.5 c 128,-1,27
 208 570 208 570 247 597 c 0,28,29
 261 607 261 607 288.5 626 c 128,-1,30
 316 645 316 645 347.5 665 c 128,-1,31
 379 685 379 685 410 701 c 128,-1,32
 441 717 441 717 462 722 c 0,33,34
 472 724 472 724 484 720 c 128,-1,35
 496 716 496 716 503 708.5 c 128,-1,36
 510 701 510 701 509.5 692.5 c 128,-1,37
 509 684 509 684 496 677 c 0,38,39
 439 645 439 645 386 617 c 128,-1,40
 333 589 333 589 281 552 c 1,41,42
 277 544 277 544 282 538.5 c 128,-1,43
 287 533 287 533 293 530 c 1,44,45
 389 519 389 519 442 501.5 c 128,-1,46
 495 484 495 484 514 462.5 c 128,-1,47
 533 441 533 441 524 417 c 128,-1,48
 515 393 515 393 488 369 c 128,-1,49
 461 345 461 345 422 322.5 c 128,-1,50
 383 300 383 300 342 282 c 1,51,52
 392 265 392 265 408.5 244 c 128,-1,53
 425 223 425 223 418 200.5 c 128,-1,54
 411 178 411 178 384.5 154 c 128,-1,55
 358 130 358 130 322 108.5 c 128,-1,56
 286 87 286 87 245 69 c 128,-1,57
 204 51 204 51 168.5 38 c 128,-1,58
 133 25 133 25 107 20 c 128,-1,59
 81 15 81 15 74 19 c 0,0,1
428 394 m 0,60,61
 460 422 460 422 463 438.5 c 128,-1,62
 466 455 466 455 454 462 c 128,-1,63
 442 469 442 469 422.5 467.5 c 128,-1,64
 403 466 403 466 390 459 c 0,65,66
 334 428 334 428 281.5 399.5 c 128,-1,67
 229 371 229 371 176 335 c 1,68,69
 171 324 171 324 179.5 318.5 c 128,-1,70
 188 313 188 313 200.5 310 c 128,-1,71
 213 307 213 307 226.5 306 c 128,-1,72
 240 305 240 305 246 304 c 1,73,74
 272 318 272 318 301.5 332.5 c 128,-1,75
 331 347 331 347 357.5 359 c 128,-1,76
 384 371 384 371 403 380 c 128,-1,77
 422 389 422 389 428 394 c 0,60,61
EndSplineSet
EndChar

StartChar: dieresis
Encoding: 168 168 105
Width: 478
GlyphClass: 2
Flags: W
LayerCount: 2
Fore
SplineSet
110 426 m 0,0,1
 96 447 96 447 102.5 468 c 128,-1,2
 109 489 109 489 125 500.5 c 128,-1,3
 141 512 141 512 160 509.5 c 128,-1,4
 179 507 179 507 190 482 c 0,5,6
 196 467 196 467 188 450.5 c 128,-1,7
 180 434 180 434 166 423.5 c 128,-1,8
 152 413 152 413 136 412 c 128,-1,9
 120 411 120 411 110 426 c 0,0,1
254 431 m 0,10,11
 239 452 239 452 246 473 c 128,-1,12
 253 494 253 494 269 505.5 c 128,-1,13
 285 517 285 517 304 514.5 c 128,-1,14
 323 512 323 512 333 487 c 0,15,16
 339 472 339 472 331 455.5 c 128,-1,17
 323 439 323 439 309 428.5 c 128,-1,18
 295 418 295 418 279.5 417 c 128,-1,19
 264 416 264 416 254 431 c 0,10,11
EndSplineSet
EndChar

StartChar: copyright
Encoding: 169 169 106
Width: 682
GlyphClass: 2
Flags: W
LayerCount: 2
Fore
SplineSet
99 22 m 1,0,1
 48 58 48 58 26.5 116.5 c 128,-1,2
 5 175 5 175 8 244.5 c 128,-1,3
 11 314 11 314 36 388 c 128,-1,4
 61 462 61 462 101.5 529 c 128,-1,5
 142 596 142 596 196.5 650 c 128,-1,6
 251 704 251 704 313 733.5 c 128,-1,7
 375 763 375 763 442.5 762 c 128,-1,8
 510 761 510 761 578 717 c 1,9,10
 629 686 629 686 648 632 c 128,-1,11
 667 578 667 578 661 511 c 128,-1,12
 655 444 655 444 627.5 371.5 c 128,-1,13
 600 299 600 299 557 232 c 128,-1,14
 514 165 514 165 459 109.5 c 128,-1,15
 404 54 404 54 343.5 21.5 c 128,-1,16
 283 -11 283 -11 220.5 -13.5 c 128,-1,17
 158 -16 158 -16 99 22 c 1,0,1
236 186 m 0,18,19
 199 199 199 199 186.5 225.5 c 128,-1,20
 174 252 174 252 180 285.5 c 128,-1,21
 186 319 186 319 205.5 356.5 c 128,-1,22
 225 394 225 394 252 428.5 c 128,-1,23
 279 463 279 463 309.5 490.5 c 128,-1,24
 340 518 340 518 366.5 532 c 128,-1,25
 393 546 393 546 412 543.5 c 128,-1,26
 431 541 431 541 436 514 c 0,27,28
 439 496 439 496 428 474 c 128,-1,29
 417 452 417 452 401.5 436.5 c 128,-1,30
 386 421 386 421 371 416.5 c 128,-1,31
 356 412 356 412 352 430 c 1,32,33
 362 445 362 445 372.5 459.5 c 128,-1,34
 383 474 383 474 394 488 c 1,35,36
 389 499 389 499 368.5 488 c 128,-1,37
 348 477 348 477 323 453 c 128,-1,38
 298 429 298 429 272.5 396 c 128,-1,39
 247 363 247 363 231 329.5 c 128,-1,40
 215 296 215 296 214 266 c 128,-1,41
 213 236 213 236 236 219 c 1,42,43
 265 217 265 217 304 227 c 128,-1,44
 343 237 343 237 382.5 251.5 c 128,-1,45
 422 266 422 266 458.5 281.5 c 128,-1,46
 495 297 495 297 519 306 c 1,47,48
 541 345 541 345 557 384 c 128,-1,49
 573 423 573 423 581.5 459 c 128,-1,50
 590 495 590 495 590 526 c 128,-1,51
 590 557 590 557 581 581 c 1,52,53
 566 650 566 650 527 674 c 128,-1,54
 488 698 488 698 437 688.5 c 128,-1,55
 386 679 386 679 328.5 641 c 128,-1,56
 271 603 271 603 219 548 c 128,-1,57
 167 493 167 493 126 426.5 c 128,-1,58
 85 360 85 360 66 294 c 128,-1,59
 47 228 47 228 56 167 c 128,-1,60
 65 106 65 106 114 62 c 1,61,62
 157 30 157 30 206 33.5 c 128,-1,63
 255 37 255 37 304 65 c 128,-1,64
 353 93 353 93 398.5 140 c 128,-1,65
 444 187 444 187 482 243 c 1,66,67
 452 229 452 229 416.5 216 c 128,-1,68
 381 203 381 203 346.5 194.5 c 128,-1,69
 312 186 312 186 282.5 183 c 128,-1,70
 253 180 253 180 236 186 c 0,18,19
EndSplineSet
EndChar

StartChar: guillemotleft
Encoding: 171 171 108
Width: 682
GlyphClass: 2
Flags: W
LayerCount: 2
Fore
SplineSet
396 11 m 0,0,1
 315 65 315 65 233 118.5 c 128,-1,2
 151 172 151 172 79 238 c 0,3,4
 63 252 63 252 46.5 266.5 c 128,-1,5
 30 281 30 281 20.5 296 c 128,-1,6
 11 311 11 311 12.5 327.5 c 128,-1,7
 14 344 14 344 34 362 c 0,8,9
 43 370 43 370 61.5 386.5 c 128,-1,10
 80 403 80 403 103.5 424.5 c 128,-1,11
 127 446 127 446 153 469 c 128,-1,12
 179 492 179 492 202 513.5 c 128,-1,13
 225 535 225 535 243.5 551.5 c 128,-1,14
 262 568 262 568 271 576 c 1,15,16
 276 578 276 578 285 576 c 128,-1,17
 294 574 294 574 301.5 569.5 c 128,-1,18
 309 565 309 565 311.5 558 c 128,-1,19
 314 551 314 551 306 542 c 2,20,-1
 91 328 l 2,21,22
 80 317 80 317 93 299 c 128,-1,23
 106 281 106 281 127 263 c 128,-1,24
 148 245 148 245 168.5 231 c 128,-1,25
 189 217 189 217 193 214 c 0,26,27
 206 205 206 205 239.5 182.5 c 128,-1,28
 273 160 273 160 311 135 c 128,-1,29
 349 110 349 110 382.5 87.5 c 128,-1,30
 416 65 416 65 430 57 c 1,31,32
 440 44 440 44 442 31.5 c 128,-1,33
 444 19 444 19 438.5 11 c 128,-1,34
 433 3 433 3 422 2 c 128,-1,35
 411 1 411 1 396 11 c 0,0,1
594 38 m 0,36,37
 514 92 514 92 432 145.5 c 128,-1,38
 350 199 350 199 278 265 c 0,39,40
 262 279 262 279 245.5 293.5 c 128,-1,41
 229 308 229 308 220 323 c 128,-1,42
 211 338 211 338 212.5 354 c 128,-1,43
 214 370 214 370 234 388 c 0,44,45
 243 396 243 396 261.5 413 c 128,-1,46
 280 430 280 430 303 451.5 c 128,-1,47
 326 473 326 473 352 496 c 128,-1,48
 378 519 378 519 401 540.5 c 128,-1,49
 424 562 424 562 442.5 578.5 c 128,-1,50
 461 595 461 595 470 603 c 1,51,52
 475 605 475 605 484 603 c 128,-1,53
 493 601 493 601 500.5 596.5 c 128,-1,54
 508 592 508 592 510.5 585 c 128,-1,55
 513 578 513 578 505 570 c 2,56,-1
 290 354 l 2,57,58
 283 347 283 347 287 336.5 c 128,-1,59
 291 326 291 326 301.5 314 c 128,-1,60
 312 302 312 302 326.5 290 c 128,-1,61
 341 278 341 278 354.5 268 c 128,-1,62
 368 258 368 258 378.5 250.5 c 128,-1,63
 389 243 389 243 391 242 c 0,64,65
 400 236 400 236 418.5 223.5 c 128,-1,66
 437 211 437 211 460 195 c 128,-1,67
 483 179 483 179 509 161.5 c 128,-1,68
 535 144 535 144 558.5 128.5 c 128,-1,69
 582 113 582 113 600.5 101 c 128,-1,70
 619 89 619 89 628 83 c 1,71,72
 638 70 638 70 640 57.5 c 128,-1,73
 642 45 642 45 637 37.5 c 128,-1,74
 632 30 632 30 621 29 c 128,-1,75
 610 28 610 28 594 38 c 0,36,37
EndSplineSet
EndChar

StartChar: logicalnot
Encoding: 172 172 109
Width: 515
GlyphClass: 2
Flags: W
LayerCount: 2
Fore
SplineSet
470 165 m 1,0,1
 459 144 459 144 448 153 c 128,-1,2
 437 162 437 162 428 188.5 c 128,-1,3
 419 215 419 215 414.5 252.5 c 128,-1,4
 410 290 410 290 412 327 c 1,5,6
 397 328 397 328 369 324.5 c 128,-1,7
 341 321 341 321 307 317.5 c 128,-1,8
 273 314 273 314 236 311 c 128,-1,9
 199 308 199 308 166 309 c 128,-1,10
 133 310 133 310 108 316.5 c 128,-1,11
 83 323 83 323 73 338 c 0,12,13
 67 346 67 346 93.5 356.5 c 128,-1,14
 120 367 120 367 163 375.5 c 128,-1,15
 206 384 206 384 258 388.5 c 128,-1,16
 310 393 310 393 356 390 c 128,-1,17
 402 387 402 387 434 375 c 128,-1,18
 466 363 466 363 469 338 c 1,19,-1
 470 165 l 1,0,1
EndSplineSet
EndChar

StartChar: registered
Encoding: 174 174 110
Width: 682
GlyphClass: 2
Flags: W
LayerCount: 2
Fore
SplineSet
99 22 m 1,0,1
 48 58 48 58 26.5 116.5 c 128,-1,2
 5 175 5 175 8 244.5 c 128,-1,3
 11 314 11 314 36 388 c 128,-1,4
 61 462 61 462 101.5 529 c 128,-1,5
 142 596 142 596 196.5 650 c 128,-1,6
 251 704 251 704 313 733.5 c 128,-1,7
 375 763 375 763 442.5 762 c 128,-1,8
 510 761 510 761 578 717 c 1,9,10
 629 686 629 686 648 632 c 128,-1,11
 667 578 667 578 661 511 c 128,-1,12
 655 444 655 444 627.5 371.5 c 128,-1,13
 600 299 600 299 557 232 c 128,-1,14
 514 165 514 165 459 109.5 c 128,-1,15
 404 54 404 54 343.5 21.5 c 128,-1,16
 283 -11 283 -11 220.5 -13.5 c 128,-1,17
 158 -16 158 -16 99 22 c 1,0,1
114 62 m 1,18,19
 154 33 154 33 197.5 33.5 c 128,-1,20
 241 34 241 34 285.5 55 c 128,-1,21
 330 76 330 76 372.5 114.5 c 128,-1,22
 415 153 415 153 452 201 c 128,-1,23
 489 249 489 249 518.5 303 c 128,-1,24
 548 357 548 357 566 408 c 128,-1,25
 584 459 584 459 589 504.5 c 128,-1,26
 594 550 594 550 581 581 c 1,27,28
 566 650 566 650 527 674 c 128,-1,29
 488 698 488 698 437 688.5 c 128,-1,30
 386 679 386 679 328.5 641 c 128,-1,31
 271 603 271 603 219 548 c 128,-1,32
 167 493 167 493 126 426.5 c 128,-1,33
 85 360 85 360 66 294 c 128,-1,34
 47 228 47 228 56 167 c 128,-1,35
 65 106 65 106 114 62 c 1,18,19
136 159 m 1,36,37
 132 169 132 169 141.5 192.5 c 128,-1,38
 151 216 151 216 167.5 246.5 c 128,-1,39
 184 277 184 277 204 310 c 128,-1,40
 224 343 224 343 241 371.5 c 128,-1,41
 258 400 258 400 269 420 c 128,-1,42
 280 440 280 440 278 445 c 1,43,44
 272 447 272 447 265 444 c 128,-1,45
 258 441 258 441 251.5 438 c 128,-1,46
 245 435 245 435 238.5 434.5 c 128,-1,47
 232 434 232 434 227 440 c 256,48,49
 222 446 222 446 228.5 451.5 c 128,-1,50
 235 457 235 457 238 459 c 0,51,52
 320 512 320 512 389 533.5 c 128,-1,53
 458 555 458 555 503 553 c 128,-1,54
 548 551 548 551 563.5 529 c 128,-1,55
 579 507 579 507 554 472.5 c 128,-1,56
 529 438 529 438 458 394 c 128,-1,57
 387 350 387 350 259 305 c 1,58,59
 255 297 255 297 274 285 c 128,-1,60
 293 273 293 273 321.5 260 c 128,-1,61
 350 247 350 247 381.5 232.5 c 128,-1,62
 413 218 413 218 433.5 204.5 c 128,-1,63
 454 191 454 191 457 179 c 128,-1,64
 460 167 460 167 432 159 c 0,65,66
 431 159 431 159 417 165 c 128,-1,67
 403 171 403 171 386 179.5 c 128,-1,68
 369 188 369 188 354 195 c 128,-1,69
 339 202 339 202 338 203 c 0,70,71
 296 234 296 234 267.5 240.5 c 128,-1,72
 239 247 239 247 220.5 239 c 128,-1,73
 202 231 202 231 191 214.5 c 128,-1,74
 180 198 180 198 171.5 183 c 128,-1,75
 163 168 163 168 155 159.5 c 128,-1,76
 147 151 147 151 136 159 c 1,36,37
262 353 m 1,77,78
 346 375 346 375 396.5 400 c 128,-1,79
 447 425 447 425 471 448 c 128,-1,80
 495 471 495 471 496 489.5 c 128,-1,81
 497 508 497 508 482.5 517.5 c 128,-1,82
 468 527 468 527 442 525 c 128,-1,83
 416 523 416 523 384.5 505 c 128,-1,84
 353 487 353 487 320.5 450 c 128,-1,85
 288 413 288 413 262 353 c 1,77,78
EndSplineSet
EndChar

StartChar: degree
Encoding: 176 176 111
Width: 328
GlyphClass: 2
Flags: W
LayerCount: 2
Fore
SplineSet
66 425 m 0,0,1
 41 435 41 435 34.5 452.5 c 128,-1,2
 28 470 28 470 34.5 490 c 128,-1,3
 41 510 41 510 56.5 531 c 128,-1,4
 72 552 72 552 91.5 570 c 128,-1,5
 111 588 111 588 131 599.5 c 128,-1,6
 151 611 151 611 166 613 c 0,7,8
 216 619 216 619 238 603.5 c 128,-1,9
 260 588 260 588 260.5 563 c 128,-1,10
 261 538 261 538 244 508 c 128,-1,11
 227 478 227 478 199.5 455.5 c 128,-1,12
 172 433 172 433 136.5 422.5 c 128,-1,13
 101 412 101 412 66 425 c 0,0,1
73 470 m 0,14,15
 78 451 78 451 92.5 447 c 128,-1,16
 107 443 107 443 126 449 c 128,-1,17
 145 455 145 455 165 468.5 c 128,-1,18
 185 482 185 482 201 498 c 128,-1,19
 217 514 217 514 226.5 531 c 128,-1,20
 236 548 236 548 233.5 560.5 c 128,-1,21
 231 573 231 573 213.5 579 c 128,-1,22
 196 585 196 585 159 580 c 1,23,24
 146 569 146 569 129 559.5 c 128,-1,25
 112 550 112 550 97.5 538 c 128,-1,26
 83 526 83 526 75 510 c 128,-1,27
 67 494 67 494 73 470 c 0,14,15
EndSplineSet
EndChar

StartChar: plusminus
Encoding: 177 177 112
Width: 380
GlyphClass: 2
Flags: W
LayerCount: 2
Fore
SplineSet
45 42 m 0,0,1
 41 46 41 46 50.5 51 c 128,-1,2
 60 56 60 56 78.5 62 c 128,-1,3
 97 68 97 68 122 73.5 c 128,-1,4
 147 79 147 79 174 84 c 1,5,6
 166 113 166 113 163.5 143.5 c 128,-1,7
 161 174 161 174 158 199 c 1,8,-1
 45 199 l 1,9,-1
 22 227 l 1,10,11
 24 229 24 229 33 233.5 c 128,-1,12
 42 238 42 238 45 238 c 0,13,14
 51 239 51 239 67 242.5 c 128,-1,15
 83 246 83 246 101 250 c 128,-1,16
 119 254 119 254 135.5 257 c 128,-1,17
 152 260 152 260 158 262 c 1,18,-1
 180 419 l 2,19,20
 181 425 181 425 186.5 428.5 c 128,-1,21
 192 432 192 432 198 432 c 128,-1,22
 204 432 204 432 209 429 c 128,-1,23
 214 426 214 426 214 419 c 2,24,-1
 214 273 l 1,25,26
 220 273 220 273 234.5 271.5 c 128,-1,27
 249 270 249 270 265.5 268 c 128,-1,28
 282 266 282 266 296 264.5 c 128,-1,29
 310 263 310 263 316 262 c 0,30,31
 318 261 318 261 327 256.5 c 128,-1,32
 336 252 336 252 338 250 c 1,33,34
 327 233 327 233 309.5 227.5 c 128,-1,35
 292 222 292 222 273 219.5 c 128,-1,36
 254 217 254 217 237.5 213 c 128,-1,37
 221 209 221 209 214 194 c 0,38,39
 201 168 201 168 206 141.5 c 128,-1,40
 211 115 211 115 214 90 c 1,41,42
 247 94 247 94 276.5 95.5 c 128,-1,43
 306 97 306 97 324 93.5 c 128,-1,44
 342 90 342 90 345 81 c 128,-1,45
 348 72 348 72 329 56 c 1,46,47
 275 50 275 50 231.5 39.5 c 128,-1,48
 188 29 188 29 152.5 23.5 c 128,-1,49
 117 18 117 18 90.5 20.5 c 128,-1,50
 64 23 64 23 45 42 c 0,0,1
EndSplineSet
EndChar

StartChar: acute
Encoding: 180 180 115
Width: 233
GlyphClass: 2
Flags: W
LayerCount: 2
Fore
SplineSet
85 430 m 1,0,1
 52 406 52 406 38.5 406 c 128,-1,2
 25 406 25 406 26.5 420.5 c 128,-1,3
 28 435 28 435 41.5 458 c 128,-1,4
 55 481 55 481 75.5 503 c 128,-1,5
 96 525 96 525 121 540 c 128,-1,6
 146 555 146 555 170 554 c 1,7,8
 176 524 176 524 169.5 510 c 128,-1,9
 163 496 163 496 149.5 486.5 c 128,-1,10
 136 477 136 477 118 465.5 c 128,-1,11
 100 454 100 454 85 430 c 1,0,1
EndSplineSet
EndChar

StartChar: mu
Encoding: 181 181 116
Width: 401
GlyphClass: 2
Flags: W
LayerCount: 2
Fore
SplineSet
197 -192 m 1,0,1
 181 -102 181 -102 158.5 -25.5 c 128,-1,2
 136 51 136 51 112.5 114.5 c 128,-1,3
 89 178 89 178 68.5 228.5 c 128,-1,4
 48 279 48 279 36 316.5 c 128,-1,5
 24 354 24 354 23 377.5 c 128,-1,6
 22 401 22 401 38 412 c 1,7,8
 47 402 47 402 67.5 371 c 128,-1,9
 88 340 88 340 115 300.5 c 128,-1,10
 142 261 142 261 172.5 218 c 128,-1,11
 203 175 203 175 232.5 141.5 c 128,-1,12
 262 108 262 108 287.5 89.5 c 128,-1,13
 313 71 313 71 330 80 c 1,14,15
 335 103 335 103 325 133.5 c 128,-1,16
 315 164 315 164 298 197 c 128,-1,17
 281 230 281 230 262 263.5 c 128,-1,18
 243 297 243 297 231 326 c 128,-1,19
 219 355 219 355 217 378 c 128,-1,20
 215 401 215 401 233 412 c 1,21,22
 240 405 240 405 254.5 382 c 128,-1,23
 269 359 269 359 286 327.5 c 128,-1,24
 303 296 303 296 320.5 259 c 128,-1,25
 338 222 338 222 351 187.5 c 128,-1,26
 364 153 364 153 371 124 c 128,-1,27
 378 95 378 95 374 80 c 0,28,29
 363 35 363 35 342 27 c 128,-1,30
 321 19 321 19 296 32 c 128,-1,31
 271 45 271 45 244.5 72.5 c 128,-1,32
 218 100 218 100 194 126.5 c 128,-1,33
 170 153 170 153 152 170.5 c 128,-1,34
 134 188 134 188 127 182 c 1,35,36
 124 165 124 165 134.5 132.5 c 128,-1,37
 145 100 145 100 161 61.5 c 128,-1,38
 177 23 177 23 195 -18.5 c 128,-1,39
 213 -60 213 -60 225 -95.5 c 128,-1,40
 237 -131 237 -131 239.5 -156.5 c 128,-1,41
 242 -182 242 -182 228 -189 c 1,42,-1
 197 -192 l 1,0,1
EndSplineSet
EndChar

StartChar: paragraph
Encoding: 182 182 117
Width: 559
GlyphClass: 2
Flags: W
LayerCount: 2
Fore
SplineSet
191 -38 m 0,0,1
 190 -37 190 -37 190 -33.5 c 128,-1,2
 190 -30 190 -30 191 -28 c 0,3,4
 197 -16 197 -16 213 13 c 128,-1,5
 229 42 229 42 247 74 c 128,-1,6
 265 106 265 106 281 135 c 128,-1,7
 297 164 297 164 304 176 c 0,8,9
 314 195 314 195 323.5 211 c 128,-1,10
 333 227 333 227 345.5 252 c 128,-1,11
 358 277 358 277 377.5 317 c 128,-1,12
 397 357 397 357 429 424 c 1,13,14
 382 419 382 419 359 428 c 1,15,16
 349 399 349 399 327 349.5 c 128,-1,17
 305 300 305 300 277.5 244.5 c 128,-1,18
 250 189 250 189 220 133.5 c 128,-1,19
 190 78 190 78 163 36 c 128,-1,20
 136 -6 136 -6 115.5 -28 c 128,-1,21
 95 -50 95 -50 86 -38 c 1,22,23
 83 -21 83 -21 88.5 0.5 c 128,-1,24
 94 22 94 22 103.5 44.5 c 128,-1,25
 113 67 113 67 123.5 88 c 128,-1,26
 134 109 134 109 142 125 c 0,27,28
 148 136 148 136 162 165 c 128,-1,29
 176 194 176 194 192.5 227.5 c 128,-1,30
 209 261 209 261 223 292.5 c 128,-1,31
 237 324 237 324 243 339 c 1,32,33
 217 348 217 348 189.5 343.5 c 128,-1,34
 162 339 162 339 138.5 337.5 c 128,-1,35
 115 336 115 336 99 344 c 128,-1,36
 83 352 83 352 80 386 c 0,37,38
 76 444 76 444 117 479 c 128,-1,39
 158 514 158 514 224.5 525.5 c 128,-1,40
 291 537 291 537 372.5 525.5 c 128,-1,41
 454 514 454 514 530 481 c 1,42,43
 524 467 524 467 508.5 433.5 c 128,-1,44
 493 400 493 400 471.5 355.5 c 128,-1,45
 450 311 450 311 424.5 259.5 c 128,-1,46
 399 208 399 208 371.5 158.5 c 128,-1,47
 344 109 344 109 317 65.5 c 128,-1,48
 290 22 290 22 265.5 -7 c 128,-1,49
 241 -36 241 -36 222 -46 c 128,-1,50
 203 -56 203 -56 191 -38 c 0,0,1
EndSplineSet
EndChar

StartChar: periodcentered
Encoding: 183 183 118
Width: 322
GlyphClass: 2
Flags: W
LayerCount: 2
Fore
SplineSet
156 218 m 0,0,1
 143 238 143 238 143 259 c 128,-1,2
 143 280 143 280 152 297.5 c 128,-1,3
 161 315 161 315 175.5 326.5 c 128,-1,4
 190 338 190 338 206 340.5 c 128,-1,5
 222 343 222 343 237 333.5 c 128,-1,6
 252 324 252 324 261 300 c 0,7,8
 269 278 269 278 258.5 254.5 c 128,-1,9
 248 231 248 231 229.5 216 c 128,-1,10
 211 201 211 201 190 199 c 128,-1,11
 169 197 169 197 156 218 c 0,0,1
EndSplineSet
EndChar

StartChar: cedilla
Encoding: 184 184 119
Width: 242
GlyphClass: 2
Flags: W
LayerCount: 2
Fore
SplineSet
52 -158 m 0,0,1
 47 -144 47 -144 61.5 -138.5 c 128,-1,2
 76 -133 76 -133 96.5 -130 c 128,-1,3
 117 -127 117 -127 137 -122.5 c 128,-1,4
 157 -118 157 -118 163 -106 c 0,5,6
 169 -93 169 -93 165 -87.5 c 128,-1,7
 161 -82 161 -82 151 -79 c 128,-1,8
 141 -76 141 -76 128.5 -75 c 128,-1,9
 116 -74 116 -74 105 -71 c 128,-1,10
 94 -68 94 -68 87 -61.5 c 128,-1,11
 80 -55 80 -55 82 -42 c 1,12,13
 78 -20 78 -20 79 -1 c 128,-1,14
 80 18 80 18 84.5 26 c 128,-1,15
 89 34 89 34 96.5 26.5 c 128,-1,16
 104 19 104 19 113 -11 c 0,17,18
 119 -30 119 -30 140 -37 c 128,-1,19
 161 -44 161 -44 181.5 -49 c 128,-1,20
 202 -54 202 -54 215 -63 c 128,-1,21
 228 -72 228 -72 219 -94 c 1,22,23
 217 -102 217 -102 200 -119 c 128,-1,24
 183 -136 183 -136 159 -151 c 128,-1,25
 135 -166 135 -166 108.5 -173 c 128,-1,26
 82 -180 82 -180 63 -169 c 0,27,28
 61 -168 61 -168 57 -164 c 128,-1,29
 53 -160 53 -160 52 -158 c 0,0,1
EndSplineSet
EndChar

StartChar: ordmasculine
Encoding: 186 186 121
Width: 328
GlyphClass: 2
Flags: W
LayerCount: 2
Fore
SplineSet
66 425 m 0,0,1
 41 435 41 435 34.5 452.5 c 128,-1,2
 28 470 28 470 34.5 490 c 128,-1,3
 41 510 41 510 56.5 531 c 128,-1,4
 72 552 72 552 91.5 570 c 128,-1,5
 111 588 111 588 131 599.5 c 128,-1,6
 151 611 151 611 166 613 c 0,7,8
 216 619 216 619 238 603.5 c 128,-1,9
 260 588 260 588 260.5 563 c 128,-1,10
 261 538 261 538 244 508 c 128,-1,11
 227 478 227 478 199.5 455.5 c 128,-1,12
 172 433 172 433 136.5 422.5 c 128,-1,13
 101 412 101 412 66 425 c 0,0,1
73 470 m 0,14,15
 78 451 78 451 92.5 447 c 128,-1,16
 107 443 107 443 126 449 c 128,-1,17
 145 455 145 455 165 468.5 c 128,-1,18
 185 482 185 482 201 498 c 128,-1,19
 217 514 217 514 226.5 531 c 128,-1,20
 236 548 236 548 233.5 560.5 c 128,-1,21
 231 573 231 573 213.5 579 c 128,-1,22
 196 585 196 585 159 580 c 1,23,24
 146 569 146 569 129 559.5 c 128,-1,25
 112 550 112 550 97.5 538 c 128,-1,26
 83 526 83 526 75 510 c 128,-1,27
 67 494 67 494 73 470 c 0,14,15
EndSplineSet
EndChar

StartChar: guillemotright
Encoding: 187 187 122
Width: 589
GlyphClass: 2
Flags: W
LayerCount: 2
Fore
SplineSet
39 23 m 0,0,1
 29 42 29 42 43 66 c 128,-1,2
 57 90 57 90 83 117 c 128,-1,3
 109 144 109 144 141 173 c 128,-1,4
 173 202 173 202 200 230.5 c 128,-1,5
 227 259 227 259 243.5 286.5 c 128,-1,6
 260 314 260 314 254 339 c 0,7,8
 253 341 253 341 235 355.5 c 128,-1,9
 217 370 217 370 191.5 391 c 128,-1,10
 166 412 166 412 136 436.5 c 128,-1,11
 106 461 106 461 81.5 484 c 128,-1,12
 57 507 57 507 41.5 526 c 128,-1,13
 26 545 26 545 28 554 c 0,14,15
 29 558 29 558 37.5 566.5 c 128,-1,16
 46 575 46 575 50 576 c 1,17,18
 71 560 71 560 104.5 538.5 c 128,-1,19
 138 517 138 517 173 492.5 c 128,-1,20
 208 468 208 468 240 440.5 c 128,-1,21
 272 413 272 413 291 383.5 c 128,-1,22
 310 354 310 354 311.5 322.5 c 128,-1,23
 313 291 313 291 287 260 c 0,24,25
 279 250 279 250 264 231.5 c 128,-1,26
 249 213 249 213 230.5 191 c 128,-1,27
 212 169 212 169 192.5 146 c 128,-1,28
 173 123 173 123 155.5 102.5 c 128,-1,29
 138 82 138 82 125 66.5 c 128,-1,30
 112 51 112 51 107 45 c 0,31,32
 105 42 105 42 98.5 35.5 c 128,-1,33
 92 29 92 29 85 22 c 128,-1,34
 78 15 78 15 71.5 8.5 c 128,-1,35
 65 2 65 2 62 0 c 1,36,37
 59 2 59 2 50 10.5 c 128,-1,38
 41 19 41 19 39 23 c 0,0,1
258 29 m 0,39,40
 248 48 248 48 261.5 72 c 128,-1,41
 275 96 275 96 301 123 c 128,-1,42
 327 150 327 150 359.5 178.5 c 128,-1,43
 392 207 392 207 419 236 c 128,-1,44
 446 265 446 265 462 292.5 c 128,-1,45
 478 320 478 320 472 345 c 0,46,47
 471 347 471 347 453.5 361.5 c 128,-1,48
 436 376 436 376 410 396.5 c 128,-1,49
 384 417 384 417 354.5 441.5 c 128,-1,50
 325 466 325 466 300 489 c 128,-1,51
 275 512 275 512 259.5 531 c 128,-1,52
 244 550 244 550 246 559 c 1,53,54
 246 564 246 564 255 572.5 c 128,-1,55
 264 581 264 581 269 582 c 1,56,57
 290 565 290 565 323 544 c 128,-1,58
 356 523 356 523 391 498.5 c 128,-1,59
 426 474 426 474 458 446 c 128,-1,60
 490 418 490 418 509.5 388.5 c 128,-1,61
 529 359 529 359 530.5 328 c 128,-1,62
 532 297 532 297 506 266 c 0,63,64
 498 256 498 256 482.5 238 c 128,-1,65
 467 220 467 220 449 198 c 128,-1,66
 431 176 431 176 411 152 c 128,-1,67
 391 128 391 128 374 107.5 c 128,-1,68
 357 87 357 87 344 71.5 c 128,-1,69
 331 56 331 56 326 50 c 0,70,71
 323 47 323 47 316.5 41 c 128,-1,72
 310 35 310 35 302.5 28 c 128,-1,73
 295 21 295 21 288.5 14.5 c 128,-1,74
 282 8 282 8 279 6 c 1,75,76
 276 8 276 8 268 16.5 c 128,-1,77
 260 25 260 25 258 29 c 0,39,40
EndSplineSet
EndChar

